<mxfile host="65bd71144e">
    <diagram id="Igr_nvPgqlvlULuS0BVk" name="Page-1">
        <mxGraphModel dx="399" dy="390" grid="1" gridSize="10" guides="1" tooltips="1" connect="1" arrows="1" fold="1" page="1" pageScale="1" pageWidth="827" pageHeight="1169" math="0" shadow="0">
            <root>
                <mxCell id="0"/>
                <mxCell id="1" parent="0"/>
                <mxCell id="2" value="" style="shape=image;verticalLabelPosition=bottom;labelBackgroundColor=default;verticalAlign=top;aspect=fixed;imageAspect=0;image=data:image/png,iVBORw0KGgoAAAANSUhEUgAAAggAAADpCAYAAABBe89tAAAAAXNSR0IArs4c6QAAIABJREFUeF7svQmcZVV1Lv6d+c731tjVXT3QTQNNN/MoRFEU0CgYZ41DcPpF8wdFo0k0+b+8Z4wxMe9pjFFRNIoiokYEnCOgiALKPDXQ3fQ811x15zO937f2OXeonqqqq7sLXx0tuu6tM+yzzz57fetb31pbO3HVqeHFL3s1prKF4VT2eu7vk0omYTp5bBo0UPeO/P0E07hEUq+i0x6axhFHZ9cQGsp+CvXAQcacgKH50DGdOzv8do6PjuBHN38DlXLx8E82jTMEQYBUrgfnvvhPMbb9fgT10jSOnt91vgfme2C+B45dD7zpTW/CX/7lX0LTNHAu4797B4Zw0/d/Am06AIG38P8CSEgkEnCSeWwaMFE7CgAhHhpTMadps4yCOXLsRtMBrhxCx7iXRdHLQEMIS/eQMUqw9Dr0owQWYoCwbOliGIZx1Ppox44dqHomVi7vB0L/qF13/kLzPTDfA/M9cLg9EAOEWq2GoSHlfHZ1dWFoeHT6ACFuzB8yUHAcB8lUHttHTUxUNeAoMSfxZQ52uZRRRt4cF6M7lzYvNDHidaDu223NsnUXtl6HrdXA3w3tyCGuGCBc8Lzz4HkexsfHj2gXEWlnMhls3LgRw+M1rFjaB007opecP/l8D8z3wHwPzGoPECB84AMfwK5du7B9+3ZhEPr7+9Hd3T1zgNDawj80sGBbFnLZHMqegVJdQ6WmoVTX4flHZ/YnQDgQSCAwSOh18cwTek0MLj32Y725gYVBtxtBqO+3KYYWwNJcOHoVjl6Dpbuz3uRWgDA2NoaJiQmsWbNGBnw4i4PU930MDQ5h3fp1WLRoEQYHBzEwPIETViyRa81v8z0w3wPzPfBc6YEYIGzevBkDAwMyhxEccG6bdojhQDc9i/PvMe9XyzTFM9RJU4eAG2io+xqqroaxioFKXT8qoZaDA4UABnzxymlwk0blILDiyHdpLUhgsN51yAvpWrPdKaMCS6tD06YSXDnkqTEZIBx33HH4+Mc/PusAoVKp4Dd3/wb/8ql/QU9PjwCEHTt2Ys2a1fMA4dCPaX6P+R6Y74E51ANHBSD8IYUeDENHKpWCbdlo5YwJgoJQQ83TMFwiu2DAPXKMuXTpwUAC/x6zB6bui3eeMYoiEDzaW9VPYsjtnPJl6WcTGFiah7RRRMKoHjYTMhkgrFq1Cv/2b/+GPXv2oFicPeHi6Mgobvz2jfj5z3+Ovr4+AQjbtm3DqaeeOg8QpjwC5nec74H5HpgLPXBUAcJ0gYKha0g6FmquB9ebHU9ytjrdNE3Yti0/uq7vM/kHIYRRIFiouboy5keI7T8UUIjvmR46Mx3IKNA75+cjvTGDgeLEcS8340ux97JWEQmtCkN3ZwQW9gcQPvOZz2Dnzp0SbpitbWR4BDd86wbcddddUwIIBEPWpMiD4MpJOsowAPgz1ze+D1Q7U+cxv833wHwPzL0eoO3iD99T13UPGmI9JgBBvN8pGMtUwkIuncDIRAW1o5FTOINnyZhMDBSojp8MFnifVU/DWNVAqarD9TX4AePeM7jYQQ6ZKkiIT8E4f9oow6ZWAT50bbpnmFr7CRCG6l2oBc7UDjjIXpoWIqVXBOCYmjctUeNcBQjdZoh3dzSNKVUjP03osM8rQtPVIAk8HdseSmB4qzXr4+awH8qkE7znPe/Bs88+i1/+8pegHmN+m++B+R6YWz3w8pe/HC984QtFQH3rrbdi9+7dB2zgMQMIhwIJdKqy6SQ68mnsHpxArV6bW708qTUECgQHlmWBQkZqFCaDhSDQMF7TUa7rqNYZjtDhz7JXOF0zT4FgQq9KNgHFjTS8sylsDKBjd60PYTh7Aj22z6EQMwIKtuYeUqswVwHCcTbwzf4mg1ELNXwq7yD9p+ugGWpw+HUbj9y8CFsfygpAoEiIxnd0dFTQP8cZ9Q7UP8SfKcScrS2Xy2H16tXCtmzduvWgp50KQIjFmrE4dPLn+AL8vre3Vz4yFHSojRlG7Av2w8E2vqOFQkH2K5VKsypSPVQb5/8+3wPHogcY7lywYIGwBq9//etx0kkniejwJz/5ibzX5XIZ69at26dpxxQgtLZmfx51OpmUF3nHkIuJMo0XRXcqd34ub7qmwRAax4BpWkLncOKKN94rwQGZhXJNQ7FuoO7OngGdSkrk5P5juIHgQKUdukga5VnpYqY47qktmJVzTT4Je4yZGszYkHZL5sb+x8ZUAAJfni1btmD9uvVIJBM495xzkUwl92k7jcpvf/NbpNIpXHDBBW11FaYbYtgfQPjXvIPUQQDCRz7yEdFNfPOb3wSBwLJly/AXf/EXuP/++8WQcrwxxDEb2Rk00m95y1uwePFiOSf76KGHHhJqcn/boQAC9Tvvfe97sXfvXtxyyy1Yvnw5XvCCF8h5r7322rZTkpn70Ic+JKD7H/7hHw44hghgnv/854vOg8cQxHznO99BtVrd7zHsrze84Q343e9+h3vuuWc+HHJE3s75k86VHuA799rXvhbnnXeevGcEC/HG+YPvMue0T37ykxgZaa+jM2cAQqvxjH+nR0CAsHfCxO7REFqojJipu0joFUmHm01v90g8UAIDhh5izQL/bd3IINR8HTVXQ6mmY7xqIJglVmG6bALbJTFxvY4ee2BWuoOhhcF696yc62AnITAwNWZu1JGUsVFv230qAIFx8/vuuw+3/+J2GXdXvv1KdHR07HNZCg//43P/IQVD3vPe94hRirfZAAiHYhC+//3vC+L/xje+gTvuuAPXXHMNLr30UvzqV7/CnXfeKWPt0UcfxRlnnCFtpCFcunSpGEKyDpwwTjjhBDHSDzzwgLAPp5xyiuQ6P/XUU6CAk4abqU00sn/3d38n5yMVefHFF4shf/zxx/drWA8FENieX/ziF1J05XOf+5yAm7e+9a0CeF7xilfg3HPPBYuRscAUf/7zP/9TPhOkrFixQtpI0EIPiADokUcekYnvgx/8IIaHh8UrOvnkk/G2t70N+Xxe7pvH0Dvi5HjaaafhnHPOwatf/WrccMMNAlJOP/10ZLNZbNiwQe55NoDVER/w8xeY74Ep9sDChQvxrne9S95xvjsE0Hfffbe8e3wX+H6RkSRA4Hvdus05gMDGxWwCUwr5kpe9JLYMhIh1igQFjEfTe2Q8mmDhWKjzp/h8ZDc+GP4YDEPYNmI6tBUYUdjo+gQJumgWavXDZxVmgjXI0nTPEkAY9/OYcDPT6arD2pdjg3oKhk1Segm2oYDCVACCMAibt+CZdc8I4yPprLouRotGg9kI9ND5MlHYmE6nceGFFx4Wg9BnAX/f0wQz9RC4MW0gcckoNENxQb6rY8NdGexZZ8u7QebgmWeeEfbge9/7nhhwto+GkHFFGju+9KTnqQd4+umn8eEPf1h+J0NCI3nvvffiec97nvyN90MvnAwEgcf73/9+ARo0wjwnDfBjjz0mYIHe/uc//3nRGOyPRZgqQGB72VaCZxp+Aoa3v/3t+NKXvgRWbUsmk5JlwvNxDnjyySfleRBcMH5KANfZ2SnPhKCAoOaf//mfsXbtWixZskTu/a/+6q/k/HyuFKTynLw3MhLsn3//938X1uHMM88Uz4nP9LOf/azc6/w23wN/KD1Ah4HvOoE4HZ5PfOIT4gjwHXnHO94h78Btt90mc0m93u5YzUmAED8YXdNlcoCRwrpdNJ4HfmSOXgFz5+lBKnX+LKsAZ3m0MAzhODYs2xGPb39FdIo1XTIhRstK0n44wsbpAIWUWUbHLJVsHnC7UfcPX6A40+5nLQimd9bGd+EnP/g6WEmRhpUG5WBZDPS0r//69WI4Pvq3HxUDfPvtt+OB+x8QDcDV77t6v02aLoOAXB9GX/7Rxrl0v47zn70W15z9MMxIg1D3dHzz1ynct96UMfD1r39dmIOVK1fKcfS06SmTJuTvZAdoAMkw0CPgRPBP//RPcr/00tevXy8TAj1tet4ECaQdyQz8zd/8jXgX3/rWt4SGJ5Cll/HlL39ZPPS//uu/BkMcvNb+tqkABKaAMu7JYitkMchoEKTweu9+97uF+eA9fPrTn8Yb3/hG8XR4Pd43t3e+85144oknZB++NwQI/CFAIABim+kNEVAQBFx99dUCKAjoCGp4LwQjDJVcdtllsj+BBSfKL3zhC8IszG/zPfCH0gN8R+jkcMyTwfsf/+N/CFvG38ksECATHNx8880Cplu3OQ0Q2FB6NslkFmt3ALUpFNgjkxBX5GMogosCHY10vsMZTAQIIm60Lei6Eje2bizENFFV4QfX0yQTYiZgYaogocMaRcqYjUWFNOypL4Qfzqy9h9Onk4+tTuzGvbd9Fn90wdlTAgixdz42OoZ3vPMdAhBI1T+19inxXPnd/rbpAgStaxkefdf1jVMlvDre/Mhf4QuX3ggrAgjVuoNP/KAfP3koDbJMNJRf+cpXhAkgVU6j/Sd/8ifieRMgMDxAb5mAhp43QyAf/ehH8alPfQovfelL5V5++MMfyvEXXXQRrr/+ejmenjwZBBptGkmqnelVkyW57rrrxMvn5PKxj31MmIX9UfFTAQg//elP8Zvf/EYmIxp6MgIEONQ4vPjFL5bvKIrkPRIgkCJlCOLBBx8UxuB1r3sdfvvb30rpV4IAvj+XXHKJ7M9QCO+RLAK9JbIt9JzYN/xMMPDd735XwAiBEI/jBMr+IFAhi0J2ZH6b74E/lB4gECcQiCvHkrkjE0cHg+825woC9H/5l3+R9+c5BRCI+rPZHNbv0TExTd2cEjWq0r383dRnV6E/2wOIwEC0ClEWRJw2GV+HxqHi6pioGioLwtekxPN0wMJUdAnd9pCArMPdCHbgdKHiapK5wSJSTPE8Flt5fAD3/fDTeP4UAQI9TcbqSLnRYGnQ0LewT1C3YztYcfyKYwYQ6OUzdk5mgN79jTfeiJe97GXiHVMfQUNH400jS6BDIR4NL/cj4KZgiQwJtQc0tGQbGE4gW8LQw5VXXtmI9ZOpeNGLXgQadTIIrMvO8zEEMZMQAxnBL37xi/jxj3+Mb3/722KwKUQkQOA5CXjIFnDSIgNCY899qJU4//zzRSPCKpgEQQQvXFODqVo8jkwDN94HQcCb3/xm6QuCg6997WvCklDBzb7hhEiW5PjjjxehaSzOoifFdsxv8z3wh9IDtKEE2nGolHNYvBF4U5vEjJ5//Md/lPljygDhZa98U7hsxYnHtJ84OeTzBeyZMLGLAssZRA6oVyBAkFQ+zZUfsgtzdaMJFbBgWaAOw7SYBWG0hSHqnoYqMyHqai0IlngmgJjKdqgshz5n96xoOsiIENzFtSAIEghwGDph+4/mNl2A0Nq2T/7TJ6Xv6W2ec+45B2320WAQmK5EA882kXmiQSWFTsPHl51jh9/R8+b7Q6+bhplGkEadDAjBAT+TFeBnAgfS/pwoOIHwO/6N+/AzjTHBEkEJz08txmQ6kh1zKAaBAJhiKR5PFoLnInNBkELak6wG74PXYntkURhNk3vgfmQ3eF0yBLw3ft60aZO0kd+xP3heHkvAwPsksKH+guelIJHAm6AhLpJFcEQgQfaE5zrSC3kdzXE/f635HmAPEIBzkSW+O6961avkXeJ7QSYhriY7mT3gcQcNMbznA38/RZNz5B4CUwULhU6UXBsbWlKhpa7PDDap9695AhIIGOgpz+UQBLUKrKnASc2yGIpQlRvjTQkbNanWuH3EmjJI4PH7YxMo8Ftg756VPqHGIplMtYn4yCAwvZMgoVjVBdwcjW26AIEGlp5kqVjCaacro0WDwoWYsrmsxPL3t00XICDbg+EX/UXjVEbg4awt38I7T30URlQoiRqEW36fxsOblQZhLm+HAghzue3zbZvvgf8XeuCVr3xlo1ASdQcE1Afa5jxAoPfQ2dkFzXDw6H5qtMwUKNA80hhSo8CUOC6VzDz6uby1FmOi99SaMskiTE/vdqYFEOJ7bQUKLJzUa++ZFYCg2qvJuhVsL2tDtAIbAQuuhtGqgbGKDt7DkdqmCxCOmkhR0xEmWrI8QsDyy0hbTYaLz4dM0RwtJtr2yMhUkKWgNz6/zffAfA/MvR5g+I6MWVz/4GAVT+c8QGD3Fgp5JJNpPLxVw/6qt84cJLQ/PDIJTJnMmFzUaO7Xkjd1HXYiIcZX0y08tcuacQ2FGCRQr9FtDwpwmu2NgIZUMkVzk7M2yIKMlA2MVVW4ZLa3qQIEMgX8IUD41g3fEor9bz7yN/Id4/EPPvCg0Nl/8f8pr3+yoHTaDMJs3+j8+eZ7YL4H5ntglnrgOQEQKLLI5fJYt1vD+EGqqM4WUGAuPQWNSb0M2ziyaxXMxnNkbYVkOo9nB1MzYhBa2+AYVXRYw0e0AJVpGJKxwRRPGti2KpOsWVDVBSxU6zq8QDvse+L9hdUB3PWDT+PC8w+cxXAsCiXNxvOfP8d8D8z3wHwPHIkeeE4ABHqcDDMMTBjYOnToIOxsAQXxECVtkuWH6zBlrQIubDT36iykMgVsGlJpcIezpc0SsubYEQUIcfuorxAhZiTGlLUrIn2FCBuZsVHTpcIkMyCY7jmTTdOAHAbwo5s+jfPPPThAYJGc++69T3QGTP2jeG/yRnaBGQGFfAGvf8Prpf3xNs8gzOQJzR8z3wPzPTAXe+A5ARAo0Ovu7kG5buDpA+sp9unf2QQKPDnDDlyngJoFlTrpzZl1IdKZTmwcSh42QMhLDQTGjw8TaUxztDP8oISYKnODwsx4Y/iBGRAqC4K/k1WYOlhwLCAb7MIPvvVZnH/eOQesg8AwAhXsDCuwPUyLm1wam21i7I6CRf6NOcat4ZJ5gDDNBz+/+3wPzPfAnO2B5wRAYO8RIGi6g0e2Tt9wzTZQ0MBMCB8U9Nl6VRgGpk0ey3Uh0rlubByYmUixdXR22oNSO+JYbfHaFQQLZI5aq0zGGRtkFJj9wCqTU2FMOtMAiptwy03X4nnnnzulQkkzvf95gDDTnps/br4H5ntgrvXAcwYgMM87kUzjye2knqffjbMNEuIWqNr/gQAER6shYVSPusCRVH0y042Ng/aUDOaBeo/1IjqtQUn/PNZbvHaFFQEFijHjjeEHVmdkVcmSq2GoZMpiV/vbdA1YmA9QG30W37/xuimXWp7p/c8DhJn23Pxx8z0w3wNzrQeeMwCBqRmsh7BxQMNwcfosQsOgz/zQKT07GlnWVkjpZVDwdzQ2AgQr2Y2tI4cLEAJ0WkNzAiBM7jfmNRAkMAuC7ELrRhaBdRUobOS/rdUaTQPoTVVRGdmEW777tWMGEDjsWI0xBj6ybiYX8JJ/48W8eJcK6FA3Ee/DNUkkoqKp7A4dupwn1HS1d7QQWONYajmi88pV5WQaeB45QJ0cmpyPf1dt4y8Eu9TdmFqgdmtpI49n3/Mn1ExUXAN+qNqizsdzRRkomtHWtrgN8fWkIYELfWgztOJQ2/P0WCgpek91hHD6ToSRzMLY+Tg0pjGF6ha4S4W146VzNdj9a2B2LmVqSdTXBkVEjftvtEF1OcaH12N87zpYqW4sWHYBAr+KenkITnoBLCet+jd6Dvt/bu3Ps9HnUZ/J9dqeTby/eorqGUbPmS3WNUjv8TmQj4yPl0cv5dMaY0LtqZ4dx0X8DNUh8diKn0VzrDX/pr5TD4njQo2RZh9pgFeFNrwDpQe+BwzvRNbidXTV/wgRJjMwXvUxwK0j5H4b7sPExvuR10OkDQOcl0L1cKAtPRO46M+hOam266j2qD6Ix05zPKnxKvc6+TnE47IxblX71cdmP6mv2p9D45nye46P6O/xM2m+k6pfGse3vWvtYyN+h9U52EVRX+7zrjXfFXXuSffWaFNzjEweV0fDpsTXOGtpGZedbsgqp1zvhM+GxcsktDoXCiXFDWVsurunF7tHgO3tS1ZPu7+OFJswuSEMQ8SrTXLS5eR7JMIQzGKA042do9MrlLSPEdZ8UINABkFWzDzKOoSpPkiWopbwA0tS0xhELyGPZ12FIQKFqiGrf6YcDZ32OEb2bMUPb/5GAyBwoR8u7sNyyixHPFvb+Ni4lEH+9d2/Fg0DS5eyCmDT6kdGIp7MWoGCGIHWv8cTdrsxjyd0mTiiYxqGPp7oI7Fn0zCrc8QghcZnMghpfI4MD+uEtIOE1smNibAEAZFxaTOK0YQf/W2yUWpMuH4dGNoErTgshkSMcAjUwxBuoFZsFWBoq2Jbep0pTDL1xhgHVd+PJmPAdtIwTUeMRKibCHN9MAuLoNkJaCz7rdBRY7xUirswtO1hGE4afcsvxMTwFozufQpdi05HvnslNJ4jBm+Bj0YOcWw0WN3UtCNhbWScaA8DhhtbDBNbrZsI4EPXTRhmQhl/BRPkd3k2GpAxq8g69QhstRgJ4qnQwN5KTgGXMECyWoQZuqBmWjNDZMyaDAc9lQCSSXWOyADGz6B1nLAf2ZsjtSxKPhm6FuAYBvDW3w1j7S9QLo1L22j0ucU+lukksegVb8Lu+34F7NqCUuCj6PnIGgYSsi/PrgCPefzzoP3ROwArFbVJ9Y8CSS3PpdUgx8a11cA3gAEEwGBiGLpbaQAI6TE+k45+wE6pZ83S2rUJaOODMEK/CZ5jA73gBIDHyMHKaDfmlH3a0xw/CvzFYLzZd62gvfGco/Mo0BmxnZOBZAxU5PsY6CmQF7/Hk9PDZ2veOtB5BCCcps99gMCO4YQ7WtKxYe/sdMvRAgpx2iSXIKbAUekXZm9dCNZDcM1u7JmwDrvSnsraqDXEmGznXK00KetWsBS1rapLtoIFFl0areowdMAKJrBn1078qAUgcEnkN7z+DbLa4eT644czuljKdHRkFI8/+biUOm4DCC1eRTw5NoBDY7KJjCtnelonmbDUBKEYgxaPp2Xyij2dVqOvJq92hqHdWDeNmPxGUEHvMDIqYhwjI89pShmy9sm81ets9Zgb5i/yZhueWOQpy3XCAOH4bgQTexF6NQQ0whE7QO9T3k8NMCOoSmYh3qIpVqp1xLyLSUMkLAhDUIBLxiPbC2vRKhipjoY3z2PrtQkBA5XxnXDSPViw7HwUR7ZibGA9OhedhmzXcmhkQdj+IIA2vBXa6PYGQGE7AisF9K6QayACIJpbhrbtMWhuKWI2FDCrOmmMoo5UYTHyPSfKuevVcbkzO9XZ8PrzdhmFRLXBJIiRF8PFuzSws9QJL9Rh+C66h9YhXR9F6HoI2caILTEW9kHv6wUM1f7mM2thF6KxE4Q6Bqt5THgKUMRMQlAaQeWB78PY+SRqXiDGn31Ntk6xAoCl6VjR2YmgWkbgBwg1gXnYW6uj4pOB0sCU5mTPEnSd81rYy85CqFvCLLQxK9GYir+PaIA2z721bQRg/sBmVDc/AH393cjVJ6ROiWobYOQXwLj0gwh7VsAvDsHb+yzKT/8S1tZHUdBZ5yS6B/aB5UD7s+uATFcEOiOWpMGINftk8thX71aTrWtjKtqYh8lsTSt4bGUaWhmpJkDYlw08nBlqesc+ZwACb4vUhhs6kskwaVXK6d31pL3lQR/h0ENjYtOCRplnpVvg8tQHWcd6CnfGl7Cqd2GwePgAofVyav0KlbVBVoGf5+ImE1G0IqasXcGKjRFKZ5UwLkgyPDjQBhBouEmTMWth8hroh3WPNEyui2KpKLXPDwYQmrRkc8Js0p0R9R9R9rGnpeBBi9ceMQFttGiDMt0XTOx/kmsNd0QQJPLsJp+3Qc+2GJNWSrjVGDUnz/0Bi4gVoeGpFeFVxuBXivDKo3AQIEkPlDN5RBF7AY1U0NTYRMw022dpzDDiv5qACbHpXJdCoR3YS8+A1XWcIAmCEFO3UBrfgZFdT8BzS3CyPehccAoqE3sxMbwZXf2nC0BQIRkdWuABNPq7n0IY0kwqgp8Q380vhLP8HBi5XuVNVsaBJ38GrTzWoNcNXUMxDFEpdKDz+DOQ61ohjEZxdJuApGzncgFn7DuCc4YoW4Fd/LthmCgFebiBBt33kNy1AXZphLXWBUDoBtOENWi9PUBvNzSDlUvjcRSPsSZlH4+1OjKow2nQ3fy+PjaIwXtuQ7B7Iyq+j7IfglwNZ6oYJCQ0DSuSCel79jcNPH/fVq0Jk8DPhb7FOO6Fr0R2yWqMeQXUAkeRXi3ecoM12yfMEYWtYj5GQHOIytrbUXnkp3AHNyKNEHnLaDhGvL5RWIjgpR9Gza2j/NhPUN78IILSKDKGgS4zYoVCBSxDJwXt3d8AMj1tAKkVSLexLy1hCfUuRGGQlnBBG1CIGCKB6oKtWxiBSQxC/Kzi9yYGIPuGSQ5rhprWwWctKePS5wKDwLtiGVfTzuDZAQ2l6uxb9KPFKMRPiMCgYI4etlaBRnE86MJY5cjU6hcRpuapNSx0F0m9ctigZlqjdIo780VmuIV0dFxfgcWPuK7C2MhwAyDEoGGKp53RbmwLy5lykaBGiCEOH7R54RFjsE889EDehJqUeH5d56TcHrOOPUY1qXEBL5HRTqLX1WQlBlAu3wQocey0GXeNPZzmpL4/ZkKdJqJP2+LG6rt2inRfY8UZniyCO7QFxsSAeKekECKIAy8MUPIVQOCbL8Yoaroh96I+iz+n7IgYM7JKzrIzYXQsQXliJ1y3gkxuIeq1cQEIbq0k959M98CwE6iVhtDVfwaynQQUDKGQjnChbXsE+u5nxIuOwwduEKACHcmV58PuXy0hCQIEbe3PgdJoFH1nGzSU/QDOwsXoP/tCGKYt1wwDsnNcayWqLCoN9+HWoiyiOLwRGRfeSyKZVQ3wfHhbtyIcH4dGbz0MFQPEAdHdjbCH5elVSCBmFhqgoxFKUMDaSSSitOJI46JpqIwMYcuv/xsT2zfL3uzPehjI/ZOdqYUBbE3DsoQjoIAevIxJAEOui5ofggLjhaeciZWXvRIMR2wt9qDoJdR4kHtqGtd9mKg2ti16BQX5eRi55WOobXkU1Kcw7JGj0Chy8ixShrkFCC/5AMZ3PoWxe74Fv1rxzWaeAAAgAElEQVQU8JM2NfSwimt0Oh6v20mE774BYbanqUVoGO5WY95k49rYutaQwX4YwrbwSVuooF2706YBaVx/EqBoCY/NaFKawUHPKYBAoWI214ltw8DgxAzudoqHHE2gwKqFCeMg5SGn0GYChFG/C+OV5loHUzhsRrvIYlfwpcJkHDJp1SrQW+LmTyX/cEYtmNpByoDqinoMAoyPjjQAwv5qG0ztrNPf68knn2wDCDG1quy6Eh/G4YbYiDYmy1ZDG4ULGkyC0Ok0PmpibsCMKO7cvvonp0IFFEgpq8hwqzhMxVIlohHHxCfFfbluVCjiv8gqT9JKqNO1elMxNdsOEOL9GtqGWFAWGV5/ZKvQ+WQCIkgihjYIAxEkMnsl9lbtCN8I+S7niSVxMSFI46uj84TTEaa7sWn9fQg8F4lsN0coKhMD8AMfcm9svcmCV4EAhEL3CajXSmLMLcMGtj0Mffe6tgFQD0KUwxDJnuVIdPYj7FwqRktf+9/QyqOKAInQShUhrFwneladgkQnwQg96biPFMCJWS8yULxf9kDseXJO0j0fXABNxrUfwN29B36xJC599NrJNfWuThgd+YY2Ih4fcg1dQ5hUegPFvBFM02g2gSB/r44NY8vdd2BixxbRE/A9cgniyCKwiFmgFCiLWRGVRjna+GzGPQKJUBid7pNPxZIXvwKak8Wuah8qQbLBIMQhq6YOoxnHbxjhwENty8PQtjwAm2cNA4xvfAg1MichkDR05EUQqSJyIo01bQSdS1GsFDE2tB2eR+ZTR9LUscix1BiPAA1BoP6OryLsXt4MacjgjAWScb80RYn7AIToXWq8vy3MwL4A4VAahDhs0RpiaH/npj8LTe+IyOeQxeLOXVrEC1ZbR0eDYJACE/A7szr/UjCppw+7RiE/R3I7WmGH2QAIjMPvqXah6h15gNDa50pb4SJpVJE2FGKTSUgm9NlneA7neR9rgKCE9s0JUOxBwyNoqtGVoWju20q/xh66WjeDuQx0wpS5j5mEVgaBIEFi+S2CRf7dC3TU/chwt1C97e2J46Ytk3YEDlo9wCYVHkEUzYiwR5Od2IdBiOPqcv+RUjwypOHIVmBoqxpHMomrSZ/GiQBBGISQ407pDeJ7Z2/QKMm4i0IMNGSOaWLh6lNhFzrw2OP3wq+7AiZo6OquLwaH84o4p5GrbCZS6O0/G2ODG+AkCujuOwXazicFIPAanMXIWtBLLvo+kvTsTQMVJ4fUCRfC2HSfAIQYyLCVpOlpwBw7gcxJpyK9aIkKK0RAscFAR2OEDTJcD4nhMRi+J2EEgoJYawDTQqVWg+/T+IUCEgzbknMamoG048AyDQQ8zuN9hsJkIJNGbVm/Ykficdbw6Jux8fr4KLb+7m5Udm5FStPlebjCIKhYP58F/fZ+24bBzoizTjRg3PPgBSFsQ0dh+Sp0vOAKTCRWoBZmItYgFve1s19qeMXZDBr88d0o/uZ6eJsfQiqkNkoXVqjoq/NzhKV0HTnLVONf2qBELGR3in6g2hJlXaRNA4u5bg2vE4FCipS0K7+MsHdlC4PAfoj0J/F722hXPM6b2oHJGoHJbFn83qsOPxBAaAXfcT9E+08C84czDx7oWE4RthmgK+WiO+0il/CQdXwUkj6W9OWOPEDgAMtnEjK4xooz85jZ0X29faJS3zwQS2WORHepcx4NJmE2AIJj29hd7jjqAKG950MBClmzKGGIuQwQmLXA7AWu8THbm3hapFhrNSxevLipQVC8eNMgiFgvoqtbKP5mzL+pH1AGWYUEJN2tRQClSPiG86mc0NhzbdDLSsAZizhDGKgHFCQqFfv+QgCxd9cKatQEvm8MVb5vgJD47wQK4pfvI0hr3GMDIMSeNhCObIE2HGV9RPM9e4mmiR475w8aKREk6jKNK6AkwsSwEQJwdQ0lA0gkk0jkcjBsG0MDO2G4URydEIHqf0nFC2DoLMzlIPR9JFI2fCMDl+K/EOjtPx326B4EZBACF6HkJrIVKh7PcAh1EEzN1BJZGIGP0C1FT0bdBMEKHx3peGfBYnStPh1GIhkxMu39GoMuo+4iMTAMg+CCTlUYwrAYQ+eS6S6qLrON2M3KKIaeEgYS8KQtByb3dX2VPkkvm55+Konqoj4RMPJgBehb2IMYoDDVtFjE9l//N7ShARH7sn95HxSLEiDw/m1JzVQgks+Bv9sca5piEJzlZ8B+/tvgJ7oBgsdYE9FCxzfi8qpBjX6rPHQLxn9zvZw9y+ejaxFA8MHu8DWOCfUGx/4I552ErqPPsQRQEChw2T0+5aofYpjaCMuBncwi0bkQnWe9Cs7JFwN2uilibYC0ZtaP0gWogdYEAK0hgP1rC+Q9igNlMc0ziX1T4cCW59AWrovngSYwmcmcpcijUIAtmQH+pGxfAEE+4SOT8JEwWc9HjbMgUIvWZRLA0kWFIw8QiGZ7OrKoux6Gx0vSgOlu7MiOjg7UgiQ2DQLuUVpw8UgChdkACAkngV2lAqpee32A6fbv4e7PQShrORhHmN6ZQUNbGQQCBOpZ3vnOdyoDMYtsBwWPjz/2OL5907exYMGCBkBo0M3RBKO89ZjpbxppNQnFdGarJ9GM8Qsr0PITU9PRFKJQR7TRoMfAQi5HD1M3QAK75lMIuG8cmJNaU1TVBCTNGgft4KUJHNp1EwrIxLqE5sR6oBiumN2BZ+GP7oLPNLtAmWEFgWLBWhQsEUGi6icVYtAigKDmlRqFgU6IkFEDJSMQA50IWbtBsZiKbKBBpQG1kM72wK+XkO5YItcfG9yMIPDgpAoodCyDXiqhsmcDgnpZjCMNUYcVBUMiUEYDNeR6Eq+PTZ0AA2hIURujAXZPH3pOOQsmAUIMDluMTwMgVGtI7B2S2g8ECNKbugqxlOs11HwPhmlAi4QZQYtmI2UnYDs2gprbAA2yZkgqidrSRSrDocFq7at3Ybv8eg1b7vgx/IFdSpQpRIUCadQgiGhR3h1lPPkepQxd+oUAzjIsJE6+CNa5rwOcTFsISgGFSbUEGjSKBAFQepAA4RtybRp7nlPVvvDF2LMNHCM0A2wHgRJBI3UJixO2iBL5HEW4qOkYcz3sNDPIrbkY+dUXI73oZOisy9Di1TcYrThsQJ4k1oLEL2yLFqDx/FoMfKzfaQXyjb5uAwItGQwtwCN+n5rgPJ4o4ndoehOgZYToSHrIJz1kHBcZJ0DS8uGYBMkBAo6vgKArADVbdddFvVaTfxd0pXHayccdeYBApX1HIQ96L3tGKvC9Oiym+snCR1PfstkcdDuLLYNA6ShXBD4SQGE2AIKTSGF3KS+LGx3LjQg1a00gpR9BgcgMb3AyQDj55JPxuc99TgSM9PZna5uYmMAtP7gFX77uy+jp6TlAFkO7kryZqx7Z9igzoaFqnhSKaO4fFciJmIUGaGhBCLGgT4GISOUepe/Vg0kAoUUcZTIw35jMaElUuEIqecQ6hhawo+bTmC1o8Xbi67amfTVCLTGF2qRAwtIQ/IkhMdR+rSwaAREfigVSKYyiNRAmoZ09kcBLJJSrm0AxydRQ0vLUtikXnqaHwEKOJy3f0C7QoLF2Rohkrhep7AKM7nkKrluHYSXQ3X868p3HobLuHnhDWwRk0KNlzn+MxxSvAAy7noREVMqlEk+K5xZnnOQK6D31LKRyHcpIhgHKEyMyDhP5fpiJnHxv1cvIDu6Czhi6NDik+yftLtar0jbLMGWSF+2Bqd5//p6yHZgMObiBgAqDWT40mOkc3GXLZeE5n6GLtucCmCZDBspzJkDYcOdPMLZrh9IeBD48t65i/wyrRNqEKBsVVc2ApxvSp2QxUovXIHfKJbD7ThQA1ipEVJ54BBDicdYW7gLKD/4AY7/5hvSvGHm2Ka6twFRV0aQogFBmGIW6B65sGzEIBAgENHKsDlR9oMzn+PIPwepcLExMu/5h37BBK8BtMi2TAXIE9vfR5bTs1wCATaahCcTbWcHmM2nX9TT7b3qzVWfKxZq+IvIJVxiyuudLaMrzfGE73XoNvufC8335jvoXJfLVsWxhN84+ddmRBwikN5l77iQy2LQnQKXuidiNyyrbek1S/6aSb59IJJHOdWLrEDBaml5HzdbeswkUZgMg2Ik09pRyxxwgmLqPgjUGS5tZCGm2ns/+zjMZIKxatQqf+cxnZNElGvXZ2g5UarnhZ7V4Iw2qslHNrRkDbsY19xeGUK1t0PrxxBTlwcdx3Fj4pirakW5tVpgjq9DwcSNDFntKBHqOwWivKrQTT+ast8FaDAQIPJaCRyUajIFKBEIi/WOjAJDyVRvUbIOmjY1E7K2J7gCi7g/dKvxaSbx1bXwvNK/WyArgvTOrIV5TlZR/HGbgEuJmJofx6jCqdqCoUoYSonCL7wdRpoO6lhHSeCgRHhlwFmpkeqBtp1GrjAkwMi0H3f0qPdHbcC+8vRvFY2VYgaxAvLGXabBGPU/+JcUuK5YKOFAAh6mXXsJGYmk/0qxEaKk0wbGhnRgvFZFdeDoK/edIRkSyPoaugXUwmGZJz51ZHCIADiSFj/oJi8JK1kCInpWEPQJSxQZ0y4Au96dLPQKTzy7bAWvNKXBrI+ItNkWzKjQhGQ1RyiW9ytEd2+FWKmJ8JwZ2Y/vDvwezgCgMpOiPmEWFvwAsPQtYejo0w4Jbn8CIuwVGJo9kql/6syOZQneCWSOUQET1AxSWlP/U9D5UrOMj0AKUH/gBRu+5AW7og9HA7i4DpqmJtoIX5uKuvFf2ydCoh4EBZnNookvosU1hEDikzFSIXDdBkoZ613I4Z7wCRroDIXUMJlmGBCasNfD0QgujE2mBJoXI2vQFreGGFgZoXyDR8l43QnTtAuVWoNYKBJROpV1QPN25Km376MtUYWp1AQQEAQSHfBcUGFCsXMzV8V8vtODBxsmLdbzw1MyRBwi8qXQqLdTupgEdI8VYcazWMmDKH/PtmUJ3sLUAWEWvo7MH20c07B2fblfN7v6zARRmAyAw9WlXMStVBI/lZhseup1hhMHcq5dwrAGCsuixx9tK2zfDCBIOkCWvmQLXzE5QhzbiEY00sYbITKjnljLKDBvIpMJJSBkpieOHpEubhloPPRjemKq+x90jV1AmfJEoGOhbvBSr1pyK+x94CLV6XYxpI0NCxH5kFEjvR2Ah0GF7o7jgvFPR1dWDu2//GcrFCdUc2Reoaw5CJw/YOcAkza7qDcT32aBWxRv24W17HGFFpQ3GKIGGXwr3SOU8Cwbz2TUdjm3BtTyM1yZQ8dxIZ6AMUqgHCOrNTAedoQUaUD+qKxEV0Ymm86iKIktLWygsWIWO7pMQPnsfvOGtAhAIDeitxhs9dWbvjIkXFqr4vIR4QlhRsSfWQyiZGsyMg1wyIZkhIsJ066hRL2Cn0H3CJUh0HIdUbQJdw8/AJKyoe3DrrmIQIrDj8L5NE5poJRSrovouRNlzoZm6AkChBs6bzHbSMhnoJxyPUjXyrloU9zEwaGhS+LeYHiC1Pz6KPWsfw9iWZ2EWxwUgRJpQVYfi9MthnvZyaKaFPTvvw7rHvw3DcmEYDhbnLKzssHDC4qheAx+kz6qGiqhi6e5h+yLsdl4bFR8CvMHNqG+7G+bEfcgm92DxIhvZNKtXGgjJ+sXshw5s3ljHw/fWEdY0JA0N3SkT+S4NZmcIPQ8sXWojl7VAcadmJpuCRt1A3ViALclrUDJOUI1pMFzqPdpfGCH+vqkZahfltgLi1jBSeznpGHy3zgfqXW0UJWudM1pCG9OZ55X+QGkLJJ34kAfHdXQ1nLGkjEtOPUqllhOOg3y+gNGKhW1DpKz2bak0TQukWEhSL8M2lBAn3piilsl1YteYheFjxCBMbvXhAIXZAAhOMovdcwAgOEYdndbAIYffsdhhTgCEhiAwEqVFjgEnEIrp3vXOd+LDH/6wgOgNGzbgiiteiaHh4cg7VF5WU1QWC6ZU/LejsxPvePuVeHLtWtxxx52R+E559HzN+vuX4H/9/d/h0pe8qJFNsXnTRrz2ZS9EuViMVN1UujM8beKKV70eH/77fxB2ZVH/Yrzm8svwzDPrYVgOdCspaXpS/lgK9KjwgwjlQh1XvvUNeM973oOnHnsIf3vVuzCwZ2eUi6/i1GUy5jLxGYCVARIdQLIHMBMNENUAMhTLbX0EYbmpa4kFicI20DAV+pBZsgqW7mFkYD3KpRFUdQ8+0+0YWpBwhPLiY+2TTNqsUA4DjqaK56g8f2VopRJbqCFb6IZbLSE0LHT1nYLUns0Ix/cIABDvNEoNFewSTb6s16AEfMwoUEDPIogCMKqHqCVMJPhjKM9eykVHdAgFgJnuE9Cx8iVw/BoKe5+CXisLW+Cx0FPNE6o/mUggl0hCZ4iBYizS6JYhBZi471BxAoHnCcPA7w2fVLsBs5BDeNxSydiItQ5KBNsS35ZHGQv0muEfgp3SaAlb770T2PUsUgIW1dssaZhnXAHrtJdjcOhxPPnIV+D7FWSSwKqCjr60AS67vnyhWstDYExAAaUuQIZjYa91KXbab1YAwS/C2ftfMMd+DfglWDbQ16kjlyGINhDUXWF8OPbY1k3rXNx/VxVhDehboaN7qa6Gk0TRDCzqNtCTJ5VD9kEZSxa/JFtU0xZhg/NRlMxVagzvByA0jbwa5+2Fj5ohhoa+pqVsugKccXZSvL5D7DC0fN+mbYgB/+EzCDOab6nXMVyc1l/GRWuco8Mg0Ljnc3mEWgLP7JZaH4fcWJY4oVck554pdYyP6XYOe4pJ1I6SSPGQjYx2mAlQmA2AkEx3YNdECpVjvAhj0qyiYLYvvDPVvjvS+x0MIIyOjkq1xcPZWKOD60McKMQgKXut6yM0PHvl9V100UW4/vrr8ctf/lIWRfnTP/1T3HHHHRgeHoZpWnjgwQdw/IoVUv1x3bp1uOuuX+NVr34Vujo78cQTT2LJkiV4//vfh1/ffTe+8pWv4OyzzkJ3Tw8eeOBBfP+/vi9UIi3iNR94H66+6iq89W3vxqaNG3DVu98Ky7awe8d2dHR1IpvL49EH78ez69bhklf8CY4/8UQ8/wUvwhuuuAzP+6MX4LjlK7Bly2b85Ge/wM6BUcmhf+1rXoUzzzgd4xNFPP74E3jbW9+Ms846E9f+n3/CV//9X1Gvq8qAvE9SwhUCBJn/VGhArXdgwFx0hsSYJ0Y3wPOiMJU4PcwKgGQgWD7DAlGgXVwhDVa+C1ZXN6qlAdSqZRGm1XRXUahk532GTGgpNNShvHtutmXACU3RCnCj4l2U+pIDpxJJDVOHZdpS3th2kuiu1GBWS3IOKRgUBHAJKpTj3gBfTKZzhD1QpaJVEcAQowZQTVpIOhZsQ/UAmQeXk6FauQmepqOw6GSkuk6Bt3sd/KFtojNgaEFdBOhMZbEo1wXLMhG4XPuBLJIBzdDkvjcN70aFIsbI6PBvtOYdy1Yit3hJVESJ4QcK+BhXiQxWpLRXsffofqRSYoCh8QGMTQC1xx6ENfQsUnazgiG7zDj5JbBPvwKDw0/hmSduAnM0FuSAZdlxpC0yLiGWLeQaKprEwlWhSyW8JCjYFpyFgeyfw7Qy0GtbkdjyCaA2EqWialjYbaAjbzLGIiEGyaiNGLFNGzzcd08NtWqIUy6wkM2bMtZij3lBl4n+HlOxFZ7XqFxJFqka9mJ9+v9HyV7TTLuN9RDSLbGYMk5R3I9WYX/ZPW3po7Heon3tmLh2B9foaBdLRmG5WQgxtM5rKhykHAE649Rm2GaIhOkj63hgOII/KYfvXBVp28OJyxfsHyD8+Qf+pyRCzdbGh5nL5ZFKpbF2B1CdpkFj+hy91BAmSq4jzVI54XNji/RT02rMbACEREoBhJksgz2txh5kZ957xi4ho8+9DAY2+2AAYePGjfj8f3z+sLrilX/ySpxxxhkYGx3DDd+6AXfddde+izXFSvxWxbMUOzJw+RWX4+tf+xo++tGP4tvfvknO1d3TLd/deccdkpJ5wYUXCmDIZDK48847cf7558vv3D75z5/Ex/7Xx3Dvvfdi7969uPzyyxv3c/Y550Yrsen44AeuwdVXX4Ur3/4OTIyP4dZbb8W9d9+FSqWM8y58PtLpDMqlIr76+c/iXVddg9GRESxc1I8Pve+9+Oy1X5XY5Z5du/C//8+/47af/QpnnXkGvnPjddi5c7eo5teufQZ9vT1YteoE/N3V78LPb/svUUnHxoYGuNTITYtCG5xIdQ2ZJafAg4/Boc2ou9WoDoLyznwvhO9TqU7KPIQRaDBZYVjyDE0ESRoE5a2LCEsP4fK6QbSWA22rSeOrBFgCEDQDdmiIkZTYPqiKD8W7JgjhfgQIEr6huNFOw65XoRcr0gYCBNp0j4y1Q4+4JYzkAmYlhE19BEMZ8RoRLAucsoU5oGEkaDCgI2dnYOksYKTSy1jhz0h3i24kmBiA5tVVvD0q8JPPZNBX6BJdASspyhaVW2Yfb967C3XPlftgGIKskGdnkC70wXJSUkGRqn+HqaAULCYTcAtdbZqEZjgKGBzZiPue/BkSWhr5cQ++PgQzrUJGMR1hFU5E13Evx/jYVlTHN2JBJo9CYhx2eS0czYVlaVi6yJK2sLMkPZPFH0XbomFjsRtPe5ejq2sNUijD2vRJhLUh+Ztt6li8wBKAQFGnmvwDATrsx2d2uLjziSrqdR9nLzGRT1LMGbEfFC12GVjaZ6nogYRjaCQZzgOq6MYz5jWoJM+LwEAc7mr5dx+RbTtIUBizJWTQJliM2T4CZA+l8e1w3SJq1Qn4XknEpF29ZyKRZLnuONwQtb2VyZlqiCFih8hexSmNlh7CNFibIlBAwAlgmz4SBtMbWTScoIuaHTXGfM9DuVxBR87CmpOW7h8gvOXq/x2yvC49d5banQ2wkElnRKy4bVjHwCxpCGKAMGeAwjQacrgAgePSSnZgT/EYAwQtRHdiDGY4R+I+k8z9XAAIk9OWZC4QcZmOl770pfjGN67Htddei9tvvx0vfvFLZPK6+qqr8cUvfgHLl6/Aq1/9atxz7z3o7uqSEs6rV68REMJqePzbbbfdhrvvvhvVahUXX/xibHz2WfH83vSmN2L3ngGZmD/4wQ/ifVdfjT+78u0ojo/g5h/cghu++iVMjI/jre/6c6QJOELgm1/5It505bsaAOGa974T7//QR1Do7MTunTvw2c99Gb/63aN44+teg0/+w0fwq1/fi0JHHvVqDZlMCievWomXn7cae3btUGsGRl46X41iLVINNvVpMjFn+lfDC30Mj25RAKHBbtMrpkgvmoMjL5rWmVpKWzfAWiCxs8D4e51rJ9JC+DSABlz4YFYnmxGQbmdcXlMFdgI6b76mFNzRRWka2HeSIhovOpRJo1otwa+4oCafdkrEpylAJ0CgvaPRJ2ioh9DLIdKuBjPtCAAi+ynJCCzyJBkHiqqm6r8v3YdCMg+fJZRdF75Q3UzlU+1gqiP/5VoSBEK5ZAq9mUKDrm+UWo6KlG0bHUTd8wT8ULAoQkwnjZRQx7oSMfoUOXJ1SRPlzsWY6FstdHyjImZkkHjdhx76PPYOPi0FoRK+DiehwSGekUiMqukR+jZCaxFKo4PoALBwyUr0dlnA2CNIkEHQQxy30IoEitFqsXEBosDD1pKBm56xcMKKV2PFglNgbvoUwtqwdKxl6ViywEBnrrWWQrQkeQis3+vjzmfqqNZDnNVnIu+odFA+C2pk+nsMLOtTDEKsY1GZMSEqfgq/q16KcupidHesFs1ErBeKNQlxCCauaxAEBGw+6u4EXK+IVHoBErbKSlFDSBn6wKtFIEZGDEaGnsFj938eo4PrMD6yG3Yqib5lZ+DUM69CrnA83Nq4lN62rASS6QUNPYZquAIl7Ed6/bYeqEyUaJOQl6kjYQGOESBpEgQEcKxARMdcV0f0YWTkmNJIoSILSTHrxvcQ+J4wWRShSuojdacLO3HGKcfvHyC88r1fCqW0LkGCAAUPtqYW7ZlKxsH+XDKWCs3nO1CsmXh2z2E5bfscPNeAggyUQ4CFwwUIEvu1CxgopVA/hiEXjocFiQHyd7P7UGfpbAcDCKT0WRL5cLZly5ahq6tLVnI8EIPQChAaQrDoosuXL5flp1evXo1KpSIhg+uuuw5XXXWVZFtwcnn/+6/BuvXrJK782GOP4nWve71ad8I0cfnlL8ctt9yKp59+Ghs2PIuXvOQlGBwcEObgda97DSrVOmwrgWs+cA2uef/78Na3XYlycRQ333wLbrz+q8LqveZNb45oWeCW792Il13xaoyMDGNR/xL85VV/jvd/6G/Qt3ChtPjjn/hX3PzD2yXsccPX/0NEcEyT+t7NP8IpJ5+IP7rwHPzxuauxdzcBQqT74mQdhBivqYI+kc8VqdoNZBafAi9wMTS8Ga5PBiGeaAHPbdYtUBMwvUB1Dsb607oj53QRoBjUUZeqg8pTtClq00N4HuPOmgAEVdDHEFZBYIGrvidDEQsqVQHmqJ2GhnQuiVqtDp/5coxY0DiyYmAKEiNne2KNm+sy/qAhp1lwUpZ49yI8FXZcFayhyyWvr2GiN9GDvJOH7yqNAcWLBAh1pp6xIqInS0+plEauS2MnsSDNLAhLzTG+D52sAOsXBAE2jo5I9UYFQwLYiYywFpnQQ8qyBRyYBhc2YwElA6XCEkwsPJ2KzzYhq4SFQh+71n0XpYkx1AbXweX8nwyQSNDpjO6ZlHXVxEjJRb0OLE5kkczn0JUzULB3I2ErOvu4PkMyBySsIMySBk2AU4gdYxp+tKkfJ65+C7oyHcCGTwiDwI62yT70megig8DF2BhWEW2rMprbhz389IkqSlXg9AUGsnbEbgjTACwmQFhEcKIenAJUirkarwb4r3Ua/I7LseaE16FSHUO5VoVXn0A1GEdvx0pkUktleXM7UcCOLXdhYPAJVMojqJSHALuO4467DEuXXArPK6JY3I5qbQQVpq4GE3ByOWXIoHgAACAASURBVJy8/E2olPZi4zO34enHbkKtPCTrgiRSDpLZXnT2roGupRD4daTzGfQvOg2nnfJGWb6coIPvedI2kLBo9EM4Jhf981Aq0yGLiqdrOlJJGw4L6oZMR+U7oLIVXFb9rFmouAbcSFDMPtBBEMnzsXx+ID9McVajPkRPIYGTVhwgxECA0DppqvXZuUoXRYS1aaUnxuchrdPZ2QXdcPDolmm42tOcvadXXWGaJ5/m7gcDCYcLEJjC5BkFDJaTU9J0TLPpU97dNAL0WrsbS8FO+cCjtOOxFinGtd/jFMTIPqqYKGlgQ5fKiyedtAoJx8buPXuwadMmnLByJXbs2CFFS1auXCmFwgb27sHw8AiOW75cJnjWciDAOe3U0+AkE9i+dRt6F/TKYlFDg0N49LFHZJKgXmDJkmVY3N+P9Rs2IKyVsXrlMgzs2S2T0MoTTxSAUCyOY3hoGMlsTrwLpr49u34dVq48EV3dXRgZGcHmHQOYcGlgbKxefaIUhSqXa1j37CZ0mmV0pzWsffRheHVVY0KxJWqhnwmGGCKeP9YmUFyXXXY6fL8udLbrUbeg3D0x/BFAaIAKseJq/nCYEqjZoh8ogTUIPPGyA1cZAcPRxfjTQFMPwEwDJnSwqI5kfvKzrzx5Mgvcr+FBxglgNCYEEzT8UbEgKveZHWEnWf4/mnGiugr1WgjN05G2GE6gx66LYDIuhi5qAnrGpgFLN9FhdSGXyAs48OuepCiyz6hxsPoWwkynUaXRotHXTRSgIVerCdCQQkkEH1Gdh0A3sKdjGep2AtVagLHdD2PpspOgDe+FPjSAZMKBGYEkEfnpOsazvaguOx/QFQ3fWjCIQCWojaC4ey0Gn/4xJsIyAsdFIqnAQUiQYFAjkkJQpaesI+GRxjaRSnjo7arCtlnSWsNx1CBQlKhqHSt2SRbD0LBrVMfPH0+jc9EZ6Ft5GYyNnwLqA/Lsko6O4/otdBfUCpWMo0uCRRRy2VsMcNvDVRRrPk7p0pGxmGETCTGhwMXy/mihprjCJ5jyCozVA9y4toRdfh/6cyehUh/D7l07pX2eU0EhswC6lpUU3xVLLsPG9b/A4OiT8CtVWedBy+noLByHZKYHMAKUxwbhV2sIx+sw0hbSi/pwfN8VmBjchp1b78bYyFbyWxFw0yV8plODE1K5YkDPaujp7cd5Z12Bk5ZfIOwZK3jm8xnkM3lkU53i5TNN1a0z5K50Kcy2oQ4qWvRS5oy4B9zQxriXBzRms4RI2gQFTIohS0axLYtxUbAjoh0Zh2QUevImTlree2AG4UDzdxxuIFiw9BpSRllAw1S2zkIHEskU1u4EKlM7ZCqn3e8+cx0ozAZAcI0Cho4xQLAMF93W3hk/pyN94MEAwp49e/DQQw8dVhNovGkkD8YgKIowFrJJ0l/8/jZiogR8cS67xK2jBac4CajPLP6iRnUjfZF18WXSjQvlqLx4ORe9pUgcE0+m8lGoZw06U+ciSjReR0Op8UO4NDoiIlRiQjlM8h9DGIkszGQ2EnuxOqPyVaUqZWkQhlturMbYSOOOrLsI8uLc+eg7GqlE9xKwLFLZraFSLaHuslCSMvbKaKv0S6UIj5Z1FCbAhK078AJTiQapjo/p8SCQAkIsDEOJYpKsgQgRqUlgvrcPy3DgVjMilNQClREu/xcRHeMGZYRGBZoRimNmMHKhR+JDLnaUCmDbylONkyhd1l2u60hx5UYWVTKo3tfhu6z9osGydVT5u2YgwQyJZDccI63CGrIwFmSC5zMwc3nAslAsjqDO4kiJNJJBCIdlg2noLXr9ETtBg2uYCDpYLdGGF2iol7ajUOiCPzYGFCeQdBLSLhWDF5koBhhqOfES2MnOiEHgc48EdWQ0Qh+j2+7H0OY7MVEfg2ZXBCDEK26yr8wwBzvsgFeZgF+roCeVQi4ToqOjBNMkHc9Kh5FYVYpTKFZFZeAzjEAP2YTtJJAsrIBW2wBIqIkV/oChYR2lqhKVShYGQy6Swy/rMyHXHYLkQj5hwKLwMnqOjDQVKyFKNZbUVimvfCmYMVINNYx4AR7cW8VALYAV2nDLLvSSWtfDz/DhadAIMH0+86SMpdDg+hgqY8TIcNxT7MJ0UgPORALZchaFoICclsOy1HL0JhZCCwzUmRHDMeozw8TAOMbw+/Be7LUHofs6Qi9EkPKQyNhIp7IC6nU9g3p1AguXno0TTngNFi9+obxnnl9E6Jdw4pJF6M6qrBBV44Cl7hW4Zl8qvYvKcCE4Zj5NwHAaQwwsHe7zGKYNk9FRa1BwXDC8trCgY9XyzukDhP3NpkSFTE9MaBXYBsMQKs91soyQng1TubYPG9g7duRYhLiNc0nIKPNhyy3nzHGkzZkX6uHDL4UFjFYTSpRzjDauw1Cwjm0GgxtYqIcJyRsnaOV4jIHs3NMgqPeCL2NUSr8Zp4+860bBmsZnFYdUBl096EZsn0abGT6yxLOos8TLckI3opkjb7zlGC7aRHV+TPYrnZXar/ltFPeP6HNFo6sBHNPvjXZEdrt5ngb+idqrwdJ9Kfcqi0zFRjgCTjQEFVL9jI87Keh2CvVQw+D4XhUXjZmIiI5Q12H1PBNmmEHVLZBMb4jQVN+ou2PKHWd4jcyn48Gw6zATqiphWGVhn37JiePkrVzPyDumkfArCPUKoBdhoookUxMp7qLA0UkCNu+npsBRlFkhfSiVJxW0EpwhACdaSTAamZqnIY8ccmYWjpFUaXZS+Aiy3kKccRH3afTYUfddKbesxk/zeUgNjTBAIZmBbVjR2hTNUAnbYls2Mmy3T4PJ+hDAYL2IcNk5yC87p2EkaLhHB9diaPvt0M0a/MoE3HpZQg6MlUhxxDgtlCLOIAOtZMEKuNxzgGy+C0mTfTOMalBrWeFVPTPL1ODwiXFtAAMo5AycemJKGXCps81jaawMVKsanlwL7GJYWtPFEApojoBgoQC84EIglY44GnrPotZX2QPbhwLcs66CqhugXAdGKwEmuGAXSzVrPjyuQRA9eqn+xPM6vDYZjjjrNYRG5n6CucBMe+ElNGSTGSw3lyMXZpGrd8CpJ6GHCjSTGehxutCd6JS2UGPC50vdB432aDiMn7s/whZzs9xPrRzCyTJ1OCp/LVUwKZDVEbgO0qlOhKGLykQVha40Fi5aij9747XIsPCTGHpqVKTeqQLJREwiPvRFbyAVEqPCSBF/g6rvSGEkzUhIGwTsCHgIcHyPh/NXpWcHILTaJqbOxBUSWQBJaRkIGIgUWeyoG0/v0lGbZibD4di/uaZR4AQ5GwChGCiAEKuzD6ePZnps3hxDyjy8VMGZXjs+ruRlMOHl5NWQjBe9BkevyLgrjQ02lnvmWgytlRQ3b96MG755w2Fd/iWXvARr1qw5CIMQTdINBqEplooNrBg0GaSMlRvo7u4WCnFsfKxh6MTARN50m6YhyvyTgkAirovi26Erc1kMShsMBmPgfhMgRHxGgylQufHNrR0MTIYHcQihFbwooBHvGQsyTcNDxmaJ9ejc4qWr+ZYAoCyhhLg1ylCT4xiOQjFCLUu6ZJRCIBoEE0aYRsVlKXe7aTBjQQDJXK8U1SkgKAuRSFVhJasSNghqDqrFhYqBiWoZqHLWatVH32UdAnpXAZL2KEzT5TKCMD3G0y2EFpUP1UZxK0XkKCMjwkXeayOfMypoJGmJoXihXd4CGKGq5igYP1LZc5XWGEDGq3zGBlHWROA4ISMSpz9GVA290xTrVUghK3XpJlhidofXWGlS6lhETEFoJWCddgnS+V5oZkZSTTc8/GXUKhtgtcT0ecmI34fGLAsZr4BWM5GopxS9QoNrp2CGLsarRQzXK6LzMA0NjqMjnXCQTmroTdaE3mYX5dIaTlmpKjnSQAmw4loTGiUHGh5fG2LbDtWnksIoBYBUKmk+Dzz/vACZnCmrV0qmQwQuaOR3jQT47pMVbB2tqWWrifcyIVhtXC9rCO1QaijIfTEDk2MyoRYJ00y+c2xNAIwYCE2yNBo0WUhTw4J0Ny4qvhiGZipqnqxVSwGtLqsT3U6XCEYVe0YmhdoPEyPhEG73f4otxuZoOVH2ZwArrdJfDZsDn4xHgNqES8ykxmUAdPV0oLevH6991SeRy3P8supnBrpmNxyHOKWxBapLUTMyS65voFgzRJdAtkjGCe87+mG/ruot4byVByiUNFmDMNMZlC8WSymzQiIFjizJm8p0YOvQ0V2eOG7/XGIU8sbhMwijbgETdUqKj92WNCrCHhEMxkDwaLaGBXrGvRzKfvsKjaroVh218V2449ZrceHzzsVkgDA0NIQtW7YcVnN7e3uRy+UODBCimVr5tHGVmuYl+/v7cdlll0k6o9D7dQ9nnHE6nnrqKVx33Zcl3tgopxstkxB7jyoHnt5wIJ5HQ9yHEAkyCDHbEMGMZCqFV7/+TRgYHMGPfvjjdiAQV26LIUnj2Pi8yuS3SAAUCIgyMuLfm9HfmO1QJ7IM5lnXFUCQ1RTVj3jbVJR7sQGNoAWNA0vpKiZcxbyjDII45Y/ZCCYyAhB8rs4UI+W4aqQU7VPFhhRrAyStKiyHVoIZBzbcYLEy6DH4ikrscib2PR7L3HkNidQobNuVsEVIMFZjrqXL0L0qWSvKOXWNyNbHAnRV9199Kzcit+Tp6HJ7oQcqdNRa547rLKgy2VFvStlmFUqSjAbmsWuGeu4CQhTv4/ouEnEIoe3pqjZ6sjAPtWTUXUTFruRB6BjvLWDh8ufBLqyE55Wx/qHrUKs8C4tZASQOojCPtEkyF9TzEOq+aiLhJuHqKTgUmTL1OeVgrFpHpVqDX6fnrEol67aGTFJDR7IMw1BpsPmMgVNPYGVNQQCq5XI9HX6g4fGnQmzdqmppNB6xVKvUkM+FeP75GjLMcuDaFfEwjcJ0O0Y8fPexKrYNUTeg9CFIhAgIDFSOq9TLkNeU0YLAlHuuG8rrVixCCK1iIdAjkSMfPTT0prtw3ugLJFzksvCG4u8Ue8FaEIluLGBGgoxDtfQ2NSkECBMYxa/wC2wztiPrFNDT3YvNgxswUSk2QokssS1jk+A5emck3GGb6OjrxMrjz0Ohq1+EqMeteA06O0+R6xJIZxLUG8QDiA9MAXGpaOoBo2X17nWk1TNkKqQ8y+i9XJQuY/WSIwwQWmfeOCuCtcbrfEjHaJsrbAIZhIw5oWK9M4i2ME2JAGG8pupCHMtN9CgEgASDBhfjciUD5mhsbmhh3C2gHvBt2Hcrjg/gvh9+Gs+/4Ox9AMLRWIsh9iibXn97Gy9+0cW48cYbJY2RqYqcSD7+8X+UlMe//duP4MQTT4LjOFi7dq1kOEhp3lpNMhj4PTMbCCbOPuccoRO536KFfVjU3SmX3rFtC5YsOw4TE2OSpvjD2+/G0089jcsvvbStIcrRbWoOYke/oeaPZu02diGeyRtAITpllIWgjKU6QwMgRLsIYIp0BTR4VZex3yaDQKNMXeAwSxbGlpKTXFStkKexNWu/AKHhNRN8+CVJCVPahBCOXYFj1+Sz69tw/UWRrx3Z70gLwot6blEYBHpjqew4WFJcWGhS0NUQoelBt2O3IwpNNKM1CkxFalQxqnFwRqy5js56DzQyCJKhEBkpWWVSyhxJT6ly2NGy3RK6UHoH1lAg5a9Ap6LTWf9AyjDTCEWckDqrAl8ihOQ6BFIkSXmqqsc11JcuRKZzGZJdJ8t11z3yn6gTILC4UcPoqkehR3UMhPGhcalaMCoWKuhDOhFA9yaQSDiyboRfraLmeuJ5G5YOO2EgmdBQsEtSAZNbPqvjlJXJSFvDEBTrHKhFnTw/xBNPAZuJ46PQlDBtESgq5DVceH6ATEZpTIRBiGLpfN47R4DvPV7E9r01uLVQgIqRVtUzKbAkIRHoFLYC5riBnJdA1rFR1tTaBfT4PTNEpuskFEfWST8HbgAz1NHX2YuVe86EwdWFRK+hwktK6EqWpAsLU32K0ZHMmgBcM4QrdNbNKn6f/S22OVvQk1yE004+Bw9s+zUGBoYwOM6qtCHcii+ZM7IuCt8pdYvCCtoJE1bShp1IwEqkcNLqt2DV6rcin18O2wAcm4WQmq+4aEVYHCnSzETrfyFhKxAam6D4/T7qAOFoGIvpXuNYMgoECNkWDcJ0QYJl2Rit5zFe279hnG5fzM7+9Gzo1TC+SJo/XoxrCqUzZ9iAip/EmNvRstZb+4kOBhC2bduGW2+5dYZXVoddeOGFWHnCygMyCPFSKDF70EzzU7naL774Jbjppm/jjtvvwB133oGtW7fippu+g8cefwyPPvIoXvCC54MLlTGDgAuuFAp5lEplZNJpmCJgK8rfli5dAi45fc8992LN6pOl8uKd//0znPu8C5DN5kXA9LUvfQEf+Z//iGeefhovvfjipuYgMuRt+u94UUe5yziE0IQHDea8VZEgM02kVZB6/nEpWgIEVmsjq6Hq/DewRSTw4zK+CiDEREUIygtHaaAarjQZaHpTSvRAgGCEWVQYXpL1neO2NhE3dQQBWYDofhJOBQmbbJeGmmuhFgGEluCGOg1LHAv7QC83RDY9Do1FfxIMz4RANYTmeNAkdV6FR+Tq8Q20zLixJEKuEQlP6MkWqt3QuEJmFN5QjI8SmcbCVln0ibR0xIpI4oIsmaV4CXVu5bHW/Docw5Q4f7zJHCfZF2p5Xyk93QgvKPjGfQbTAboXnwrdKcC2E9i64cdw3R0qxNDCRijWRy3GHZsWx00gKPdjLFiMbGIHjJAlki2gPC51IyZqdZjdBoySEvNpaR+ddgm23AdDDAQILOEdVR2Mshz4R6a5PvmMjs1bI9c2CsPEYTkJMUQAQdUgUChCujIMsHkwxPW/L6FUppAvhM1CSqJR0KBZikmomwEMz0BqPItCWUdXNomi66NSqcOxDHiOheTCFagHQ/Brw/D31JG3HfTm+pDatiwKSbUaY1l5DF2JLixJ90taqWKpVAhCnpVRwRN9v8dmZwMspNDd0Y2hYA/qWh0V1pTRQpRHXNQnmN3CyqAB3LLqL8OKshcsU+YAJ2Fj2ZJzcPbZf4aTV79Salzsh6xUK4s21xg74LzH8dB/tBmEw5qFj/DBx0LjNxkgyHieBpPAl5gAYax6bMI1h3oksVLfgIeEUZOS2QxDNLHqoc5w6L9zGih7aZXGc4DtYADhaFRSjAVVKs2+aTBVjFrDxS++GDfddBMeeuhh3H//77Ft23apizA+Pi6UKlmFRYsW4qKLXogf/OBmvPa1r4sobSVmuvXWW/Cyl/2x6HtoCLZu3YLOzk4BDm+84mX4yje/g2XLl+Oeu+/Cl//j3/Clb34b655Zjz8mQIgofplTGyChaWabIYvou1Z9QuR2xIAnDme0hhhi14T7CECwIvFZi/gyDpeUa0GjDTG57mloAoQ4TMw1FsSV1MQYGmEO5Tr1J+o9iNNKhXZnupo7IZ4bU/bYxnSiCsOoQQ9YIMlENVwsMVzlZauy2EwnZOU7dawCCKnkuLBiLDYkZpbCtgQXWQqjdR5UiKFeC+DVNNhRjj/DyGqRq4Y6QSR2tm6jw8s26i80YZhiHWJ9AP+lep/sDsMMMYMg51R3HOknwohBsGUpaG7xin1SOIj/E/pDUffxWIxDH9swAD2fR2dqEdKhh8Gx/8vee8DbdZVX4uv0c/t9vRf1bsuSbdkG94YhYEIJBmNMcIBQkpBkSCCZmTCZmUxhwn+SQAoBAuSfEEjAJiGAwRgM7nKRZPX+pNfLfbeffs78vm+f896T4iIs2bHBJxGW3rv33NPu3muvb31rHYXlCKaFY77j0oZmAHqGrSxjcaYEOUzDbW5FOipB9k8gl03BlVRO4vQ8HzaJKodkGLO0HwnI++gxHOjEzigSChkZ64d1kSnB5RcPCgEMso/2JezeE+DYCK2AFXbLpNdQmy9dJ2qjvOqyALmszO8Jyd6b7qFGYkAJB0/a+It7a+yHQV4U9DNiJVSD2mApEkSBltGAhgxD1qA5MvLQ0KxGKFkW0hR8pUsIsqJl1a25KAQ6CqYBHTmkZ5aJa8mhaEJ8rHLdCWhNtWBZYYjNqsgEi36fmFe5mo2d3Q/ieOsBaCUdSiWA3RshMMjaK4JEkaFU3qCuGOpAtOn+a4AVoVpuoFKp8znli2msH3oVLj7/LRg+7wakcu3PPXByMmicIr6kdEQ/Y6YpkNBfqGPzkHruRYpndHQv0Re9mEDh6QDCAuo/A6CgMUAoomqfASR8iVxv0qIYisNhXKLT5QxO9FmOPYgUlL0WuOEzl1meDSCQ38AXPv+Fs7o6r3nNa7Bx08ZntlqOV79i/l1cgScrzWuuuZotlj/5fz6Jz3z60zDJe+DIUTY6IuOkudlZNikaHh7Gr/zKHfjc5z7PJQYa5Om1N9/8enzlK19lz4T77vshiBW59dbbkM/l8IuvuQYf+0//Bes3nYflK1fhL/7v/+HJau++A/j6V78an/eSVTsf6789xsUVf0J8L16yBVEjlyfE/Vx6rsneNDVEWiM3t0X9gbAbFqtqi1iBeCIT7VZgN8EqCcVozzECCSiVMQZX5IOAiNJMc0y6i0u8xCiHBkK3JhwJ49W2oTkwVJcPkhiEUCUNQty7sdAZwE3+CAISOFKJAcikKNiKMmEW20gD1YFM0dIxI1JQMuhTeqGRIx5ZHDseUSeUUS3cFEnFrpB5k8RtbJHjieONvQzo9zONCqqOqOMnrAHda2I8mF2IW15JDU/8OL2HJks6B9t3xPWl1XEsfBRpj+QuSTVmGUUzg4GWDhF2JFAEHw+VrmhSUkMCXrpwPdRVRLbQXdAKloyNvMDFI87jqEd0bUSmg+rpcKyLkcYcPOcY0qYRlwiABmkQIh+FrAY5IHdsGZoWojXrQCbP7AhIGRKGelPQFMGIUCokgQR67ui4Dx2RcXJMrKASe2ZiQ2gzDAmvIg1CVjx3whCJWhOFvmGkFOKfnqixZoIeF/KkIE8LmvTVNOkRFCg5IQqVQxlRU0Y6NBC4OUSknQhoNR/CoQCgkK6/ikxugBSukGtNDDQ3QJO0hTbXBChQWao9Z2JZd5GPh1sO6ZmguG629Q5wyBvBMXccdjOAEcko5HTRXUNnYgClgTIzf0pFg2aSaVYIqtx6hQhu2oFnkzeGhGxkotNuRW/beWynzdel0Im2DTdCzvVDUjNCvyJ8teDZTS5HykaOxbYJG5N0xRCTt7aricvXvogahLMahV/EN79YGoVnAwhnAhQoQIYZBOvlAxCS81poi5UtdulUuQ/3p4dnBAxKbtszlhfo8/79NQgL8/ASBkEsv+mLecEFW/CJT3wCf/+Vv8ddd97JzoRf/drXOIjpyJHDuOWWt7MJygMP3M8A4s8+/RkcPnyILYaHhofx3l+5A+9//wdw3fXXM+Nwzz3fx7p1a0ElqI/+5kfwif/637B6zRpmFD77F5/BHe99P0ZHjuH3f/s3YhX8Up0zzWUU3ywmj9PhQIIdljIhybuJFDdUj8VO/LpFq4e4Ph6yipxLE0tAE10Dimx2PYsnNfY7iNkWTwHqJMLUWhAZRRr9WYNA0znnJvCqjWhp4VhIB30KC0feBnN14dJEGzMEopuB/6lrkDtaFsK0uFsxBh+CpxCpgzQIE29AQzcLBKmjxLYBrwJVqkMJ6pDlEEW1gJWpZdBoBUlzL8U402RNk20c7yy6JMREFhKAYNMlktSLn4/Nz2JsfhouezrETgF8UmS5DPTmWrG6cwC6YYiWwARU8bUIsWPiKOaa1bgNMAleEl0aeSONZW29GOjoFGp7AhgeuUPGuRNxXZ8nS3YqlBFScA6df3yM1Alxf/1+VLwGA0ICcoGjwbW2wZSaMKVDUHQdaUWGafgwJAuZtI+1w2SLLZgUbjtN7oeioFwO8NguWmUnIFHoLBJ3S1GVEboJqvWLLYae9BwQO8TJkBQGJbocxCNGGUABrruSXEep3ULkDrDBlEIMUogfHnJw34gH3ZSQrqRgBjqyeQOSQaOSDHVeQsbPQwlM1kCqkYaUloYWpmFGaQyl+xkQCs2KODYGuBS8tfwABl99v+hIiMEcxYzTcUSBhqldW1HatxWKpHF5MAHTBOJ92cWDK7+DmewE1BkFUlECtBCoSJAcmc8hMim2nACVArkSotUhRk1mB1Hd9KGnAgTpVcj0XAlNz8OmLhcyWJsf44aBwtBFSPdvZSv2iFptNRJ6C5ZzXZeFy9a8AhCeEXq80EDhTADCswEFTU+j7BVQtf79BJ/nAreJ1M7FLghqUxRSrOfeGkEWVe+ZywsvCYAQW7suHdQWJtrFvyzQxaJFTYAH+kPeIbQRmxCXrxftiuOZmAYjilTnVbFDfflJdwCtLlVk0mm4LlnhOlA1FYZvC6HZArQSqYO0A26DCuOBPBmKT6uvJwNZwhQwmCAaXhMAIUkwFD8XnQ/klW8HooaaWBNziUM1kOpdh9mZPbyqiQ8jFiLQ6lZBYHYgigNtEpqcjX7EB8TeBTFzwCq6OFCH5oPxOsU1iv0lUnAaBOn9aQ1qL5k+iVU8zRtsBSxqL2KwjAViXH6I38c0rGcjdJo82WXsg5AlD0W5gCFtgAEC15vjQjDHYnPdX1DRxCYQxyuYAwEe+HMkYGJ+llkEtnNm7YD4w3AlCtFdaMXKjl4GgGTDzKCK2iLjbpY9Y8cw36yzSJG7FdgPQOybWg0Hil3oK7Yxk0H2znTSNLlySYNZDlG/V8imOgj5NXz8rA+QYHsuHrIeQS2qC70JdYM4bfCsDdAxi2x0EqmMyS2NHcUacobL2G2oR+M0R4ZBdJ/jLgXyOpgvB3j0MTKIEgCB+vD5uJO61ZLunUSkKgBMXLJbAJzCblqACfFcZNIhbrpBhD5xN0vc8UPXi6pV5JHw7QM2lxy0ho4iTJgpMiky4UkyjJKBPmc10nKGSzj8eDHYk2EoGnpTvSxSpM+kjiOa3AVboCDdcwRDV39f0VsL4QAAIABJREFUMCUEbHgsEKWPKFIx8+QFmN61BTIDBBr36B6JgC1KFbkvcxecljnIjgSrEEKi7I+yBNUSOgq/hUBuBMWVoZK+w2WbUGQLaQSOD903UKu6SOs6ivk8alVq/RblhUzKRDrfDqM4yN9HV22B0jKMVKED6Y4V2Dgg46rzWl4pMTzXNPRCCRl/GoDwdEBBN7Ixg/BcZ/Dy+L2IIKXMD+qAIC8Dlz0NnkmzQKu4aacdbvDsIs2XCoOQTJZLWfxFtf2SVXwMGhYm1yWLpQRkxHNWPNDEKxbWqi0tDyyuxji2lkGHGCQzEQ1GiY+7+IAEqwShDI/8iJNBeYlwMF4eCW+FhY5NsfIVAMEFs90xRRCP0fw2x4vgJCv5BJjQQJ7Kwexei+mpnSLemZF5HPLEbYMKAqMdYapTCL3iOm/cArHAcyQTJCvIl7Q5hhMN6v9b4pEgBID8uowOpTsj8hJ45Rk7WPK5kXhAABDGFWJpuMA2BE4MEBAh6+6HFPnIy3kMG4NQJVUAhPii0oRBgz7/m9TkhoaIA1TEKjlhGOgjJstzqDsWmg4ZDImIaiFsFIChK9+CZR090IhNieOLE2dEeu2+8RFUrIYAIsx+JEBBQS6VRjGVEWmQmvANEOYCERR2ZRQCUtpk0rTQqjYxcIp1EE7o4eHGw6iF9YXXe94gouYgNH83dENG1tAhqSF6C2XkMwFP1oM9KnSNmIw4sjk2MqLVb7kU4JEnJM5yYJ+DGJgx0xKzQglQYzOg2BJa+E6IayqyNoQuIrn/NBFnUiFuup7EkSIDgt+R0FSyjB3HHHxnT4AwTd4DMrRIgWzJSDsquwxqdg799jqYUppDjhY7ShTWhAymBxkIkvMnnRoBLwZmigazYwTLb7wbskp1ASonJQ6WdA4pzOw4H7O7L2KdBYEPapckIEaaBTd08bD+LZjpOmbtJuqUxFjUoFsypGYE0ue4LREDBNmXoDkK6xWCNipBhBRViVTNgO4osHUPOuWCuBJU8n6YD4QNuKLCcgOYmoxpcnrUdKRbu6B1rcINV7wK737Tm14BCGcyfb4QbMLzAQhLgcLPGkBYeh8YLEg++yoYis0MA2fXL9naCmlUvAxqjoKaJfqln257aQCEmPBMJv9k0Ivb4BKhX3L8vIpdEli0dNBLXrMgDkwc+hb2Ha/SBIcblwnEtREKdCAV0MAvfpfsO8EW5LLIDEL8QUmZIZkgT8ErvCIW+6Gaa4oYBHb/jZ0FWRgo9uT4SwFCDHWIHs52wOhcDcuaR+BZ8HwXnlND6FqQNCocC4AgGATBrrAXTmybG8MbMUEstMEl1tCCQaC6szimOGuBj0mGlNag9GSZYueJmFsARY0jub40mTCBQuUKMqIiAaAcIXAchHaT2a60fQBy5KGg5DGg9fNATx/FRlUkMqTkRGorpFV4AjS4XS2+PzQp0MJakjBVmUfDttBwbZ7wuPtgSRtHV6GIZR29IDMlbo/kCVMW/gwRsG9MAITErjsxWKLzyqczKBpp9HC8sxD8L4QXkSaBtZ9xqytTPZR2KSZdCpGiY7FDD9ud7WiENUQUaEErZ68XsAaQCw9yeFWgqDAkB0NdDjKm8JHo71JgGiJVUYpX08wCEINQCfHIY8IUKWFNmMVImvIXGATh+SFsxOM2zdhHgwSE/F4WYsZdCswgRLjpOgmaQedHToEUiCWEo7TtGY9w324Z+Y42VJ0KquMWdCjIk+FUBBhOAV32Ws5LIB8JBiOsCRET+YDZB1032MKYWpRpI/0Jgb505yiGr/8O20FzgBL/XjA2CHXM7NiC0t6LEJEXhk8OhuL5I0AZSiEe1b6L2fAEpht1ZnQGi1lokspdIS6BaS0pZ8TlM02GX4zgpHwotoRCXUdbJoOyaWFGr/G1Ls5oyE5rqFkOcqaBpkvtnCE8HahSBDZ1jkgSfulNt+G3f/V3XgEIZwIQlr7mzMjv597r2QAEgfBzmHfznGL2s7yxRE0KOVU0rTRY5EgLkc62PBw2mRGq27qroNSUYTmnllxOBwgUk/yhD34Ijz/+OKanz12GBNGLo6OjeOTRR9DT04PZ2VkWDJ4CfOLJUpjgLEYhn0KVJhNIYkAUrxwFvb2EIYi5FUFXJtR4TOknroCnCA4FKqFuB4Pq/UuUG4n7In20RzbMCUBIQEpSKlis/C4AjmSCpto+2etqrG5fzE4Q2jpJAASqmcf7SA5NzXVC71ob/1QAC6syCqc+DRvk5kIAoQOR2SHIJOqP5xJA7KAUQ6Bkz0LgGJcJqGxADIIbO/0IBd+CtkLKGZCJQYjhkKDihXQ20TnwAUeCWeDVdPyxoesgSABCcz+XGApqAf3aAJsQidUvhUAJrURC2zOTQPcsCR5i4iJOOJRlTDeraFgW6rYNn/Iologq6HWd+SKG27qEV0JcSqJVOGOYKML+8ROoNBpCN7GETaHVbiaTRYueQk9Lm2At6Mx5PhVAhSYpAjEEgui/vJYngyXy7+cQnwBOGOAJ/wnUQ8oDIGBCv+9FYK9BFk8h8MRk1ppR0VO0kUmRB4KMvk4FafKPYBaFDpxuLaVgBajUFDyyPYzddZNOC3Gfk7bQhJVikMbnltz/GMgQwOJ7JcABW4+HIfJ5GTdeRyLB2L+BbnGsCaFMgj1zJu7Zb8B0Qlh+E5U5C2lFRT5PwmcJaauIztpq6KHJJR5iZZghImdgWUN/qpfLOUmOB7NFFDMe+Cj2z2Dgmn+JxZii9MafzXHQwNyeLZh5ciuiUOdrSz+n0lGiK9mbuxcjyjHRVmoHMEIFlYaLiuMiZ2oo5nS4xMpR04omcVS4okQIrIBjzPmZM1VmFaw2VwCTUgh9VALqATKSymWdlKFgwrXg6wocRYLtenjLG2/DR3/9914BCM93cj1boHC2AEHScij/HACE0+8PdT/05h3kaWWixArcJS9yfQmzDQUNR2ZDLgIID/3zolGSbdu4YPMFGJ8Y5zTEc7XR6pN0ApNTk+xBkACEBUp8ST0+Xs8vTLILq9V4/hcTrBCWCevWOAoobn9b6rpHv6PJglZOyWo9EcLFbP0CZc+CO0QwSIGdrMriCyCOgcJkNLZk5YmDO/dOBSWCJY/Dp+J6SVJiIAaBwJtgJxbb+ugjiFEnkWLyi3j4h5rvhNG1VtCv3EUQoj59GI5dgS1ZCMnGNtUHGCIgavF6LnYr8Pti2lm0KsYAgVaU43VI5Lgklu7xQcV3IK1D6sksUs4MrGKfhtiUiNX+XJqJJy6FhHCkhncEyxEGyDhCg5CTsuiRephephWt5IdsZKVqcWhOPBkTCKH+dZqQuf+A6Hye3EJM1ypoODYajsUJjuKaLJag2jN5DLZ0sM8AXw9KeYyBDQGEw9PjqNrUJRQDgPi8aWLLpTIopNLoyhTi6GUFoeezNoF0DMRgMGNAWhGaZHUNniWYDKptU9AVhUbtCp9cIlKkyS4H11sOI1KgegeQLigIUx6WGT4KKcHM9HcAZkpoJYQjNdkWi9JOpQo8/LhgEJKShsCCxM8IQEF4IDlPwZrEr41LMAsBZ7xr8V2g65bLhLjpaoq9JoRAzzVndUOibpIgwr6ShHv3aFBrEvwclddCaBZnZCHUgGxQRNfUWphhmv0nSOOQLEFIe9CjdTODIMpHgsHgTpUwQrZ7HMuu/VeoZlz+Y4EktXJQl0aE2b3rMfXEJZAj6jIQGgbWT1DoVujjocz3MZM5ibSpwCtR0FLIk7cTRdTkAI4fyZPLJ7WEkrg4YtdFqUEx5hTgKEPOKCySpGfDJ6Ft7E3izwcwXQl92RRqjoPRmguXgDy7eoa45db34aPve4VBOOv54fkChbMBCIxAlRzmnBxYCJ3UQM76bF76O6Dv4fJ2H3ZtiqlbGmjpD6+ollDDVHJouhImp0v4ztf+BJdt28qAgNoBX8iNJnSyX56YmDiFQWA8H3u9nPr5YqWXcPrJxJoABEF3J+p6UT9l69dkXzGYSHqwxa7iZMJYUJUMmMKWORAahLgtMRE0cnohTeQBDU7xEMg09JI2yIX1vzgDwQKI46NVTgIQ4uWsuB+xltDyIjYYYmCwoLYEtFwnzK41QqjHc2SIyuxROI0SbMlBJGsI0z2AkRcrL24Di9vZEu1EfDFYpE6HxHV3gVCCCRIpxiWPpSUGek/GgEoMQnwefF2ZoaBasXi/LNMkTYE3Ih2S7wfVnF0bpEOgKSzVPMLnnyGAQG2OssbeBbSS5LAmUsPTypHU5vF5irsU6yzpv7G13WyjhrrVYAaB6fRF/0UGbK0tWfS0tTETRNoKWnkSABFtbBGOT06hUad2x0VdCX0KfX7GSKElTe8ng6bkSYuPIQZANHHyxaN5lGjzSKRk0n2hEgN16e/196AaVcRkpklMyac9E5qkw1J92OkIGgL06x6yKsVoSejr0JA2RVcFA5AkbwEhyjUFjz8RgjSTNMn6NMkyGBZAbqG7JBZi0rPOIsb4IWS3ySQtkh0NhRkUbZkscN3VNCfTMpsmTlpY0Epe5dcdmpTxk11A5AFhispJEhplomUj6F0KUlEB/SfWIeVnGSDQM0JeBrzal1T0pqncIzxIKCKd7irV9unYUm01DF//LSgpatkMENHvycmRykORhNL+9ZjZcREQpIRPQugzOKDnhpiqB4y7UcYIuvQMapYNhxJIdQVhWkGTAr1SIlHSIN3DNBllhZTqDIUqGTWyhRY20T4bHFBYl0wZ6XDTEmabPlzymeA0R6G/oWfcdwRIeecb3oWP/8bvv8IgnIvJ4vloFM4WIARKDiU7B2rPTbafB6BA/ikDhTqadQoyEhu7zVGdV1V54EzEWfTQl+dm8Xdf/DTWr1vDIOLF2o4cOQKKk07mQoEP4pUrD3yx0i+eaE/XISyUHRbUAKIkkZjcJGUFErIRrUmbEHAJij1ZdSZlCfaBJ2V6eKpIUUzxyf+SYp44BjGrC/+DCEpIGo+EFYh4kIvN/hbOid6lq0T/im9DXAhYEJlSdAGxocmkKF4TQcl3INW9Ll4pR/BdC/XZ4/DDOiy4XDcN1QIiLbWASph2p551+omagqSlF7sZYlo6Vn0gqrli8k38ERbAtMR9/nKLuQDQaNBOmALeud9AyixB12pxABK5EQrQIyY50fgY1BsgfwY90lBQ89BBAIGeRx0Kix9FdwB1Lxi+BlnRuQVSMTT2/xeTZsQe+5RdYHs2HErgWwBTsZYw5QK9TRhporFpQI8ToRLNB6UU1oHUVBuHKREQS54ywgOmbiCnm0gZBoMgel4otIgEk7Sap0nZkwM0nLpozZNCSCla7foI5BBu4CJQQ0z5U3BgQzGBdF6BritQeX8RXLr/pBGByAKgadmYjVBIU9S16I4hMJMlil48tPzMNWrKKYoZMmeS5VYEQRn1hoJSmcCQECgSQ0P22VTzp+d9qD+M0xzpyY1dLeNodAYwvRHowwhABpbKq2tKbaaXlOoKRsdJaxDC1yLM9MhwCBgRI+dGyNk5dFYHIAUqoEWclEksF+kRyLGy1enjqGi+v/T9ihkN+ncqE2H1BRMw2I1SOKeyGDZOXZ2tGZiopEGRX/SFUlwNYdNjbQGxF8c69qOhl5AdNzBXsuGFLootKehZDV4QoNWL0GFGqHkWamMeKlYIuTMHVVf42SBgYLsB6pbLY2J7xmSr6SYiULxeg/0ZZNjk9aETKxYidAkMR7jt5nfjYx95BoDwrt/888jyZXi+EP68sp3ZFfhpgEJWrYOSEJ/PRhOiK+cxZ2fBIWGnbT/LQKE1GyGDWfj+08eBJiIfBguqinq1gr//0mdYRHf6JPx8rv2ZvqfZbHLL4QJzsDATLwrgFtT6iRY/nj0TIJG03CWTllBIi9WLqMXK8SApRFfsGMjdIFSTFqs18usXMdAUWy/MjCjIiYEE/zQRUAoAQH3a9EeigZt+q1GAjQSyQpbJ8IeoXkOGFpKxDOURAJEaixVj0aWgApamWIKzFhggxNhIlCUAJd0Ks3UZr2J834HVKHGKItIBTwQeLASUqBN3FXhOgIgGdwYy5GZI3HWX8BUQ+rT4PieMTXy9OZdBDNIJ08TPQ9ISmQQ2yRLSno+0VUMjrEArzEMzRciUEMAJRLVQzpEiWNUQniMCicws3SPqUxe98KLeHMGn3ysSUmEKhpuFapsMGGityR0H3OlAzXN0rag1UKjMkyx3+mQvbaHSNY5IF10Z4nDick/MKBluGj1TKzgEin0SYqGf7Tl8vQpmhj0kKH7Y9z0QDBEBUCGCrIWaWUHNqYPEE6mCwu1/LMpksCEcKevzHocuGhkJ2TYFmi5W6+L6iKeKUx7jYwurOvyQ4sc1nkSp9t9acWB44pnLpmSsWUatkUJIGIZpeMEahBiEF56A52awb99hnsB0PYNcrhe16gTmSsf4fl99RYj2dmFnjIDGhUX9BbkLfLdqw4qBy/wJHWFJRw8xAJaH0JfQ4QTor7qoBcDjK03kFdGSO2vJSPk6Az4v7yAqOoKZiASTRWLU4p5N0JwUH0eil2AgTy2Sso71bathaAYDc9JyCICkMFM10bsbI6segW864tAPZhFMUNw04BNBlA/R37sSHc4AYCnwK5PQauNwIxdRoQXG9CgubgIjc+PI1yXskVUc6MxiA4djAdN5E1My6X/ExM8JpcQC5WQ4aeosAih23Kek1DiPgs4rtH2865fuwO9+6ONPzyB89A/+NPLIijQgv3Kg4cloulTnPNPh8ef7dfE49awXIa000aLNP68LRYOHFRFAyMRtYU+/m5ciUKDvlyJHDD5/2o2+XIOtFGAys6AYfqZ9JKttGoymJkZ5nFRUjak8i0xuXoSt2ajjJ/f+68Iqeiklz0O7JKNQKMROeIuDvfgdDTKCGeD+7bjUIFoWF+lhXpmwVmFJ5wFH4YowHx7U4z56lUrJbG6TLFsXS/OJeZBCE5svAAhNpo4ZdzpQii+1cbHAjoMM2UuBJkUSHlBf9lLAwwBhSemE7G2TLsdEDsAnp6egGUUW5AW+y39ostcN6kVXYaHC56IpJgJ48Gm1G6pQaRUZ+nCIzNao/CA6EcSEmYCweMJKqOoF34HTnj0hrBBzvyQh7zRQrJbQ0AI0qWVMFQKzRDAoBvmYYqF0PIsGf3qdCzVP2cHxvhh8kE9ABM8OoRgiQSFdLyBfa2HWi1b5BAuo7ZCZoAioOzb/XfgliOtK18RNWZjvHENAbXNsl5uwSgmBIkG3UxiYXY2IJl/WZAo2qOmSP0aIFjMrnBOJFSCWgiYm+hN5mC9OoV6c5zHFawbItKrQTdHZkDAndB3mxzz4XgQzKyHTonCZgZgqoquTDgLhU0CzpopLWm/BqLMTLdIK9Hcsw1zzBCb2/QhueY6X9ZmUgjWDOjJpOn/qzFARyStgucOo+TXYCDB5bB7ZTC+KmW5mCQ4fehC12gRPetdeHqK9TbSgMo3P3RGifdQNQnzHcWCx1wUweVCHP6fjnXMuKrUGDg2qmDYCrJ0IUEIGUjrAeZMeiqGGypotCFduRSj72FW7DyV1HBf0X4P2lk5MlUexd/xB5B5eC72RiRkZwWhw6YVsm6FgbWE1NFVEkVM5SPg7UKlJwuTAXpzYfB/8DImGQ0RH2uAfk9H0fAYIckFFa28nVrZuRhHt6DiwGy0PP4YZzcb85tV4tDgJZcZGfzVCd0nGrsiBqdh49WEHbZEGb7ANP1pj4KBH35wATcVF/aQLs0+D1EKLi0hYOGckNGY8RC4BRwmuJeHWm2/Hxz78DCLFj//hnyzwBqJNVjAJTUfmtrKGK8DDK9uzX4FnAwpnCxCaoQAIZ7K9lICCoQHDbQ5ITFi2ZHaCDJ+hRfH0c6PxszfXROhW4n7pMzn7xRVjktVOYqAXY6tW5vGPf/uZhZXnoj5ADOipdAZvevcHcP3b7wDNs6dup+Y2xHPc0x72QhnjDE5K1P+f44VLWMMlGsUlpYi4MLyku+G5PvoZiUg+liWK9GRyTSZ1oaVfAEVJ6SD5PJ60RUP889z+7cWQiZ2JAVIix3jWnUfA3t278O2/+yPUcVCUZ+IaDT1zrh3CbYbQyPlOBjL1VhSa7TGjI9gD9uin/IAwEj4GibESrcq4RVJBkHFQ6RqDr1C9WnSL0EQoQJtwodSsNPpnV0Min2oSAcbqfsuxmZVozxVZh0I20MQ3MYQk0x0EKGXHUC3OMUhx6iFyHRR9LIx1mF2iz1IkzI15nIyYyknItxMrAGYyuf2QrJfj1EEGOJGC13X9R4yU92F8rIqbLrgZejZCtT6C7Y98FlZzhoHB6mGTxXgs4pMITF2LarULkTSCWjCN/U0XUVaFfggYKG5G05rDxMQu2FYVV10pobNd5lIIC3tJK0JAWNUYCN3tucxDkbj06KMRrJqJdWGAum6jW6MOGQeeVcV8oKG+vIHhvRkMzbhYf/WtWHnlL7OA89HR7+KefXfj0v5fwJWbrmZwdLJ6EHf/1bfgjpEtN13JxfZaQyXlhYwNbWuZaXA9EUVNTqlc7tM1THbvwfHN9yLIkKdEhJmxFPySCnskQLqoQ2qTmaF7x+oPwasqKE89gR3H/wXNFhPLN12AeWUcODwFzdFRqLdh0nRxeGAfNt7dhs65GrJKgEO9LZhcnkKkU+nEQ1imkAgg6xpwsj5clezPJQRjEXwDsCYoJC3C2266Hb/7a89QYvjof/xkRA8rZ5w/zUbPrONLqFIPuk0BGgKBv1KNePph5OmIl7MFCI0wj9IZAoTkqF4KQKGzEKIzu1geoLoviQmn6wqajlhBPdNzVMxEyEglhP6LwwA8zxln4W0EEL72t59ZcKcTBfiE2gfSmQze+eHfxYZf+jUcr744oOVsz+mV9z/9FXjya59BafedaEqHFgysaDKljcoPTiOAlhZ1/kyjiJZmhwAGNI3wXK5wSYwAT9mqi1KRSqE/ESQv5CCjMOOg3DWJgDItZOoOEOp0hlgxW6FbKQyUVjMLRL35onwQwfJcrp9TmyQDgzBC4LocPEULf8pLmClOoFacY0Br10Lk2hSoKSppLeZf0ERWGRcMgp5WkGunbAVuMYjr74JpIdBCTJUCA6/r+T3sOLoXj478GFu7LsO25Vcgk9LxwBP/FfX6GLLEIAwLBoFxYUDiyB7U7WtgmGl47jR2TD0FWU9Dn9PQtmoFWoIunDj2EE6c3IVrr4jQ1kLdIHF+M9lx035iBuHbrsuCPMIeJx6PUJ1VYKgB5BUO3rC3FRfN2GhIDrZ3p3BPn41sI4RVVHHB0NV47cA7UW7M4fGxh3Fk/iCqVh2X9l+Na9e+DplMCt/4m7+AOyHEiQS8EtUH/Zs0CsvyQ8hqWb5HVNaJKAOBRIwSMDN4ECMX/Ah+VhhbzU2k4DYlOJOkdYkgpYBUTsOG4iW4qv9mzNRO4IHm3fBNFesbHq6/5wiMMRtzcoADWzegcf42/OX4X6F3VEIzL6FSdNDayKCnjWzKgXLFhtGtiWejJEFpkdiQizRFVEpypiM0JoFAlvC2a27D73zwGUoM7//If45YpblE+CWMKWLbztO+I9RORm1ldYfqHUT1Eep8Rb9w+lCyFCicDUAgpWszKmC2af5U4zUPV//OKG55O0VAO6Lr4LTnifwMqg6xCqR/IcMeqmsmwj6gpxBAC0vsW/5y2BYBQkzpLyj/xdFTX/orAOHlcCef+xgJIMzvvhOWcjgmNNjpQGgdnQhOg7zxyc4YyDVa0WZ1xj31JDgU5jiJ0+Jco8YuitRRkKj5yZjHT9uY7xxHqPmxLUAc+8tlBIGsTS+N3qlVLOKkVS0J+2hfpGsgkWJvoZX1BNSul5gw0d+90MNMfhyVwjSL1OxaxPoCMxt3l7C4gyoAEsoTHgcemRkZ6VYlNgKKvT3Yg0B0FYiWUwWZ0sVo2gH8wMNUdZKzRTIS0BFOIi3b3N2wdtjgUoNgX0iMqKERXoVZr4qoYeFwZQZlowajISPjF2BUdDQaM/B8B1dd5qGdQgyp/MYshqjzkzOnF0n4rmPDkojiB+ZGNdTGqYzmorjMQW7EwHBDQQU2jg6T8K8TeT+FE9kGqr4F02pHPtOHq86/Ej25Aewe2Y2fHL0HVmBBlxysPrkGuWq7KDnF+he6j3RtKbFzIN2LtJZe8HQQAmqF78nc4CEc2/xDOOkKzcqozaV5sQQ3glxKITB0GPUIcm+Ija0XYio6jFn/IHTkYYw3cWEpRGrKx2itgX1rVMytN7Ft9HLALuNIegwThTJSMyRi1iDlTTgKGX1RGSaE4iiQsqSNCVhDpFAbawNw5mWQzudtN7wbH7n9d59eg0AAYelXIqnnclsZm2iIh/r0AZ7eQ6UHy5NheaRfoPQvap0iK8rn4jWf+0v4s/CK5MISQCg+Tw0CibeaKGK28ew2w890vf69mARiHAdzc3AcitxVuOOAnim2F2VUvdjW5MVggYyP6O8UnNJiNKEGFR7cXg4bA4Qv/3mcJrig31pg+NPZLG57hUF4OdzK5zxGAghlYhDkQ4tdJDEBywChHkDPCBCQbbSi3WpfcFgk9Qi574kVcITpWpmtd4lVoHGWQAKNu37GQaljDJFGrWh0SFy5TogpBg2Gk0LP9AoBEKh1TsQ8wSXhpaqhv9jOmgP+Of+eVCrUCepjKjOGcn5GAIpqgFy7yiCA5Ymi0sET3fy4ECnqKSDbqoKyihK2hNttl8hfib6ePJrDL1/2Qeh+Ht/a/Q0cnt+PjBQgjQirzEasQdCQSZNPAin9RQx0GGXRkAMcLQPHXAlyJg/p0XmYyKOQ70Qu14lGfQprlh9CZ3sAiR0K6fPjdlWi9sMAd9summQ2FAGNcgrt4xL6qjKGJ6p4oM3BRH8KPlHtFLCk5hG6QEUPUHMtKLUcbtx4C95w4ZsxNV7CiakTuHPv/49Jaxyq7GDD2EYUG1QuIpHsokhY+FDI6DW7kNEyfP9oYcP3UtV4sT3ddQAjm34Ip1imvktkj6WVqtyMAAAgAElEQVTQnAV3GXjpXoSZTgRKHSmziYzfQGe9hl4rQDRRww6lifF+HZGbghJZqBYyON+4AFuyV8JrjmJ341HsyZ+EU2kgF6ShdaUQOGA7aZ/2EUdf061iaSw7KEZQPQJZMt5w6bvw3tf/9pkBhNO/HWw1GatuF9S3LLw4tSSRlCKcQIZDgMGnOgj5Tr8CFlJnDRBaMNsQqXHPd3uxGYW0HqGoTCy2ksU1bB4EGXxS6ppoV1wKFuiZIYc/eA24zrkzN3q+1+1M35cABBYZnsYesAYh8wpAONNr+VJ/HTMIu+5ENTjIqzFeUMYBUIlgUyEqHkC6UUCr0y6YgyQrgVwXua1DwnilBMsnlk0EO9FkqVALZtqD3V5BRPS4CGMUtfbYA4Df7hhIT7WzNTSzBMwgiI6HgpbGQFun8IfgCGiqndNrAgRSiNnMNKo5IRwMSAlPC3rqUKH9xnpJ2k+j5LNo0Yy7GKjmTw5+rIBn18m4nZWVnTKCqRV46wXvRXm2ju8d+SaOlw9jIBugUw/RrlELXoS+fgMGmRmR/iOgjps2ICAIMYHRiowDHlDI9sE+MoPO3uXoaVkONHzMzhxCS9tRtLSTbgTQuc1WiErZuEiWsD8MYVGXDPcZmlg15eO8PUCzXMeutgD3DwEWnXNRgU3W2B6Vg1RQMw2qGchOF84f3gan4WC0MoKJ+hgC+GjvqmNgajlS5Tbx/aauU49irallEzClFAbVYaRU6nIQglKOWWbjLQn1wjiO9P0EtY4aIkVBz6wMdzpAU5NQL5rsy0AXf2v7teirAut2PozOo8dQn6tgnx7gnq0pbB9owoxk+CkTA9llkPwATnkKXruCeSrFVn0UNBNyMc35DNQhwR0pPqB4MoyUBo8cO8lgSRMJl7S96dJfxvte+9HnBxCWflnZzjMJBaEkq7i9jONBl2z0YFFSHDEMpGBvevSHxBs/n6WIswcIrZhtUGvP2W8vFqPQlfcgu89sbyzUv0KQReUt9jQgc38eByM0mk2QE+LLZRMA4TMxg7BohsSDCanZMxnc9muvaBBeLvfz2Y6TAMLczjtRcQ5C4fRpMa6JWjigkZtdANg1H5KjIWMaPPmz2j7uiqBWXHpDed6CSz4JhP/jyV8l6t6QoBdJhBe7BcbW20mYEx9fKMGdEwp1Vqlz273QEKRNHW2dabZ+JjMiqnPzH18kRjZDG0h7SOdFtgOpE6n7RKaW0tglkASLnh2xK6akRMi1qFAJRMhAgdOrJdhKBI/cGbnqIaM62olWcwCOa/HkSi2Pl/X4WN9GtXugEUY4qUVw+A0SMpUI3coW5HObMO8+Abthwzbr8NM+ZNVBv5pCi9yCyKrDas7ikO2jklIhVzz0yuR0mAiZhO3yQJ+OVFbkY9AsrkQhUtNU8gAOawG+17QxW6EsBWpvjNAeqsjlFMi+DNvOo2rp3NpLW0bLIm2mIKWqyHTOQqoAYZ0cXeOwUI+EpgozMxQD3Z7PI50iEwa6B8IdlQAbHaIb+Jh3G4RqRLMxdWFwiqewdCYA15Hpw+rWLfBRRX7sBORDOzHmzOGYGiB9yYXYL42jhDnYs7aw7y77bC5WaEvBNTzIXoQuI49AUsV9lELImmjDJOaAmFvqDFJtwUYHMuk/Arzx8tvxvtf/h7MHCKd/aZI2D2ITaIDXNV0Y1Jwmwyb0G0QS08fELtQcGY2fo1ZKKc4XMGQHBBYoa+BMNzJgsdCKmfq5Nf55IYEC3f5lLQ1YzfIZnebS58jQBCXXtKyXTXmBTvL0Lgaury50KErIkEjxBQIIvmPDrpWRaes6Z/4PVrWEytQoWnqGYWTz/+Y+BtRKF4ZQzZTo+3YdKHTvSOb+U2zUmkoXKgnUWfrWyuRJlEYOYfDCK3hwE9gxwtSBHSgdP4BIkqGnMjwQu1YdMvnlb76Er8PM4d3w7Ca6123B8e0/4s9YcekN5+T6LAAE9yCvvMWynmq+YvKk/1LdvjFHPs0RzBzpEWKnSTpXbhUUE1plxkcQ+yokAIFaCdnkUKOWSBGOReLCpCmFRIG09vO9EIEjwAEBkgXNEZUfMjKyHSSLFIZP3J3AIVUCRNj1gPef66Dynwh/8l1hPMQghP6fxY0RplwfCjnvEfCxgUwLcPM+FUojwv5lGo5QnHAE2KRPc0XpQGgYgO4ccEm3j/44qb0WRdjedFAnxiME2qsqho3zYJpFlMIq/FQIT50DlAzOb2tH2u1B5HZD08Yg4RHcO1HCMRJNOj6Gmi6zLYWWbvheg4O/NqwwkcsIxwnSJdB0LAzEZIz4Hr5+vIqxSZ87Q7L9En7teAErjnis4bi3O4ufdGXgywpWdqzBLZfdisHePozPHcf9J7+GPRM/hmfFLb1JGSYWp1KCZLZdQypnwAvou0Egger9wtDMd3VY8yYiX+FuE7LlXtmzCX7oohFWUfMr6DOXY1vmBsw1ZnDY2omnnJ+g6pcxUN8E01mOeb2EZlBG+9QxHGibw4wV4MZqBzb45MXRhOlrKBVy2L7CQJNqDBzlTR4mCgIpYMCgOzpUV2cDKXK28kwXN19+G973hnPAIJzJ954Gd2rvIP9wldo/nqFnq2prOFk6t5PemRzfS+E1quzDkC1OLtTlZxfhyaqBJtowV39hSjUvBFAgp9MOfQYRFfh+Djaii32nis9/9k+ZVkxMY8SzL7TODBA+/LGz7mKgybg8dhzjex+DVZrG5IEnMb7nCSy/7Dpc8aufEBPm2W5RhJHH78OOu76Abe/8TXSv2XwK6KdzfPCL/xulo/vxuk98DqWRg3joC/8TG157K5ZfdiOqU6O4+398GG6jvrBW4FWTomDLWz+AVa++CXu+8xWUx4+jNjuJXGcPrvzVT4ijJmX/xHGUjh/C3u//I8onj2L9Tbcw+BjaeiXy3QP4wZ98DBNPPYp0awdq05PQzBRShRZUJkdx+Xt/D0MXXsXHLms6Nt50C+7+n7+BloEVWHX5axkwkJjubDYCCM2dd8K1DqEmR/AJH7CSnxwURW4xTd71OZqcgVRWYtBAGwEF+ngqKfBKfj5AR6YX+XQBs41JNLxyXEYQgzuXKqimHkpQJB1tynJ4UgN1TMB1fO6aIKEhgwe+yILN0FMSMm3CR4NYAxEuKF4X0UKtGbCQkrwNKIFQlB+EMJGfW253jDA8C6wbA7bnAjTkCLlGhO5AwlN9Aa6YUnC0T8XxnAyrYcAmd0COclCxrHs5hjoHINcPoEcbgSp7bJxUCwI85QeosQeChG63iMsG7kC1No+58n5o6RDV4izSagFSYKIrOh95o4HA34vQO4CH6gGOEvkRBNicHsCGzdehd2AN5qZH0KzPIZy5F/BmRd0j7tkUSZISjtQ8fLdsw23IUGoR/NXApkMBhuYlpKdkHO5PY08xDceU0WN047Wb34K+1BAePPEDbD9+PyRtCopqCXZiScdtNpPDL159B3K5DIa6V+Dk3FGMl0bw8P5vwgst0YUSadDDTngeCVLJIEbBG7e9C9vWXEW9Jfjqw3+Jxw8/gBwKsOoVHFdKQLWA63veikudW1FoLoOaimCbM5ge+R7+uvz/Yf7Cw3jPg3lcc7wPrTe8Ac3xk7BWLMPXO47h6PRhSGzTGKLhltGI6oAjIzRD+M2QXS9VeibyMt542bvx/jeeoUjxbL44T8cwEKNASlYRiymc4TjhTDax59QAvHP50S+bfWmyyyCB2AWKPSZjEPJ6X9gUE/WwDRXrhT2lcwkUsmaILKbJxf6FPeiXyN6JEqZ2zL/+808KC+QkNyA+PloxnKsuBjaDOrALY089jMr4CK+mb/pPf4lcRw+vwmVqlwMplm0OCOJJicqBhimMdM5kY4DwY+z4xuew9W0fRN+mbae8lwDCw1/8JGaO78cv/Oe/RunEITz0hf+Fja99B5ZdegN/vlur8KqsNj3Gk9bYU4/gwL134YaPfgqFnkE89a0voz4zifrcFHJd/Xj1r/xejA9CTO7fwb8/9vAPsOKyG9E2vBrZzj50r70AmZZO/PBPP4aZY/vRNrQG0wd3McPR0r8cY3sex7Z3/Raas5N44hufZeFf9/oLMXf8AM57/buw5+6v4vL3/j6fz+ks55lcluQ1O772Gcg77oLaPISjcsCxuQQKaNLn8CqJwogAa15kBZD4T6aoR2KV2DuAFlGCYp8vhegrLMPm4W3YdfJhjFaOifwKhUKeJKhkg8wGWQq6lbXYpP8iQsnGfucHGLV3sgqdSwesiE4WEVHsfKjxJO9TWSEGCDSxEWBwbEDRhIOiZkgIKT8jYSFiF0yCtjlPxnUHI8y7IepqhBpCzBdZ7YZXjUk42CPj8ICCyNLgNHWQn6iSzuL2S96Pob5BzJdOYuTEP8NzD4B0Sc3Qxy7LQz22wixUJfQo/ejp3gYpr8Jxa5gxR9GqKciXq0irWUgSmQXXEYZ1bG8CJ2ygIKVw04brsf685ZCxF4qSg2FeixO778LMiZ8gdElUEF9ziiJXVJyouAjcVbhu0y8gTezL6iF87q8/jrWuh82TJp5UfXy/3UQpy25S3IVC/zU0F6mMDSUiwyn2ll5gc1JmBm+86na8/oq3wqnfBc89Bs3YCEm7HH/23Y9jfO4gwpBcHDXI5Ikh92LA3IpB/zIUU+1YtnoYJ5TH8ODRf8Jh6ylc0nI1Bk6OIn94P/TUbSiuuwVqawdHWKMYwDqmwC4HOIHHcLT0KTzuH0FfYQjvuOg9GOpcA9Wy8ZMT/4zdD3wF5aaHXNnCsqqDel7DnrUFNDrEAmLYa+IG2cG0qWLo4vdg22t/6+lLDL8adzG80B1xwmJU5KWn0mmYqTT2jCKO/fxpvp4/u69VJPL8dhgsUBlCkUKEko55v0WEm/w7bM8HOPTkHUheSbgC/hxsBHg928Lf/NUfM62ZWBsnxkP07xRpED509hoEt1nHiSd+gsB3MH3wKZx47D6cd/Pt0DN55Dr60LNuC1P+J3c8gPrsBALfQ2DbWHbZDSj2DiH0PZ6sPat5qokSzUmajv4LXsV0PgGER778KXSsWM8r8o5VG5Ht6F0QXzFAOLYPv/AHn8PcyAE8/DefxKZfuA3Ltl27MPk25qbw0Bc/CadZ530Ob7sGa675RXhWHU9+4/PwPQf1qTEGN5e+53fRnJ+FlkrDrdeYoaCJvWf9VmRaO5Fp60amrRPda7fg/s/+ISYP7ISZK0Ihdx9W3vuoToziVe/5OFqHVuHBL/wP2NV5eORUqBno33wZpg7sRNea83HRrb8OzYjzHp7H80kMgrPzLtj2YZTJmphAYUyrJyJCYhCa86LHnVbqbEfMTAPQX+hAe+hAM3N4bHoSupFBV7oPs/Y4arWq8PAnGppsrk2a9KnWruFi4z3oyPVz+WLU2o3d9e+g1qzxJBaTB6LPgd5rSsi0kroRAkDEtXBa4VMWhGcDKr2mKLM7IrMQRIsTgxBrIcgVUJUNBKUKQjsgyT1mzYitjAM5AoUfU3iUEurIWAq6KwHInfNIexo9a7ZiOLsGR2efwnT1ALpSFpZlA7gIsd/2UOHMjAj5hoQhbQWKhWVo+rNw8h6cjI3lWIvIcZHXu7iDwfX2oGnvx+P1Msb8EIYLXJBbiQsu3IbWdg+hSjqAzZg68ENMjdzPUdRJySUR1I83fPh2Ny685A1oX7EBhpPF6Oh+SJNjaK2r+P6Of8b2lI8albM0SmOk5Es3znygbIZGbO4UPzRSxPqpNcPn4/bXfxiGuh8ZYk6VLijaJbjzoS9h97EHULfmYEbtGPauxaWdb0NnZECpyFDblsEwZ1GuNXBsroEnhx5FLe1g4NBPsPWQiZK6DM6ai+Gv2MwMR6nYxPk1nQHH3um7sa/0JEY3vQb13vOw7fB9WNUC9O58CPbUEbi1SUzO+hhxPfR4QFZWUW83sevyTnhShC7bw9awiQ3pEP2vfh963vAMGoQPnAYQXmigQJfWNE20trbhxCwwU30e39Cf4bck15/YBE0WIS52wIGfL4uNmNTuTBXwCfWf2dMU+7+8LM7vmQ6yXi3jH75MRklicE8qa9wCJUvspHjrBz961iUGt1nD6M6HmCE4vv2HmDu+H5vf+MtQjQyyHT1cDiBgRrS/XaugOj2GPd/+Cl51x8fQu/EikHZg/w++AbtK7VZLzoYybswU1r/mFqi6wQDh8a9+Bu3LN8BrVBHJCtbd+Fb0rb+Q7+rIEz8GAYB1176Zyx2PfeXPcOEvfZAn4mQrjx7FA5//I2Q7+rDm6pvRuWoTMxyN0jSDj3zPIOZPHEamvRvnvf427PzmF7H8shvQnJvB0Ye+xxeRwAcBhg2vfQf6z78ErQOr8OPPfoJfE3guSKdA++xYvg7liRPY+pb3w8gV8eDn/giKYTKrQuWH1sFVXPpoW7YO5998O1TyFX6eGxslPXUXKsFREcpje7Ehdhw9zG2FIZoVUcvv6e5BpTGHIPR4Vbpt/RUY1FOYlyLct+9HULIqO/+RILFJQT010blAEzhN9CJSW0KfsgWrC6/m152oP4n9pYdhNV3+DBLKsYtBfE/pfemiEBwSTudsChIrkmcNAQQKnDIkpAskUoxjreMvIjEcPe3d6G0fhK4WsOfETszUZlHxXdYu0LHS853r0NFtybhwNEKuBMx6IYphhLEOA48O5pGVNOQVGy2GixYjRE4N4YbAQTdAOQxRyLah6Ckouhn0dl2IMNLhaxbK2jgU1YVuaejWB9ExUICtVKFJMg5UJvDUzAFI9SbaZwO0FnrRtX49apSiOFWDUdoPBLVY/7MYekYj6YQi4bBPYC6Lwd5VaKsN4pLhK9DZ0oXdR+/Dv+75B5xskMW3Dol0fCTa1Dzoqg/NDEikAa+RtJ2KOgN9tynhce2KLejsasX6DZsxV59DdW4Oj+37PjyfmAwggz5sxu24tPeNaG9+Fbr7MPS+yxGUD6JRWYey/E5M5A38MPcjTJf+GIa2GZN9rwXkNKqj96ClUkL7ygKGp0ZRyw5iVApxZGYChVUXQ0sVIO3/NtpSB9FemocR6gj7JaiHqhhtNkApXfmgBW4qDXN1Gu2ZQcyPT6MxPYWhfBM3XH4Hrn7dM2gQEoCw9LvybLbBz/M7dcrbCNF1dXVjvi7h2My52OPP3j6SqfXMptiXzvkbWoQWtQQleoE7EF5ibp6nOCnGHu1CsS7a4KiL4e0f+A9nDRCSO12ZGMHDf/spFLoHcdHbPxyvpP/tc3Diyfux8xtfwFUf/kOm8s9oi0sMu+76Ai669TeQbunA7PH9KPYuQ+vgSt4F5zdEZApUxSNf+hRcu4lLb/9t5Dp6+fc0ee/61peZrdh260fQsXw9zyr0nvHdj2L7Vz7N+oDj2++DTKE+nBfg4bJ3f5Sp8rE9j2Lvd/4BPesvROnkIVz7kf8NM1fgvvl7P/1x2OUSt+zVZyeh6AZ61l2IiQNPYMsb70D7yg14+Et/jKn9T0JLZRi0rLvuLXjgb/4Xhi+6GptvfvdZlRhYpEgAIToiJl/LFw6a8UTO1yeQkdM70dnajcG+YYzPnEC1OY/Z2gTWL9+KFT3rcGxsL3Yc3w41J1rJqbe+MeHAa3J0FusItFScpkmWvbKBXmUIHR5wMprFqDUHl+obtBgXxqSiSwIS8vkcNm+6AMcn9kOWNEzOjHFpge8NpW26xFAAZl7snzsxwojLwYPdA+hsHUJ3ez8sDkpTMNc8jMdH9qAybyEka2cZKLaYSDkSNo776JvysC8rY8PKK3DAr8Jqy8Oy5zAzf4zp+DY1wmDG5/CoIyFQCYGL116OjX0bMT9+HO0dyzAxcgyzc8fhFALMGxMYMrqxqut87qKQs3mk9BxsMmCyTkCu17DjgR+xPbHWU+RkRG2qhp68CtM4NZyMQLolhziWl9EwNXgS6SQUzB31cdHQFgy1LMO+8nZMVsdQq1LZXkHgiVAyPROw0JAYIK/pwSlZsVtqPDJT+YLKRnkFLV0FtHa1o1ouoVkqizKFLECEIpvIpPtxXte1WFs9hDXzY8ilbQ7R8oyr0Oj4HXxJHsFs9f9Cl6fRXvagW3k8mZJhemX0VOqQVm3CXtVDo+etUFo2wXnqX5A3j6Ko7EF9ZhT5Fg0Gx0vLiLQI9WoD5aCJ/o4evGH4KmhRN9RMDss7CxifLOPxvXuxv/Ywbtz8Ntxx3XMwCE83cLyQQKG9vR1+ZODAxEKI2RmNXT+PL3oh78O5vp55M0BWLkF6CQoUOTP9XJ9wvL8FHwRyhqMWpLgtLWlrS6czePs5YBBogp0lK9u/+xPo6RwuvOXDaOkbXpjwosDHkQfuxsjjP+LBpzI2gsbsBIYvvgbrb3wbOlef99xKfgIIj92HHd/8PLa987dikSKd6CLlQFqIvd/7Gvbe/Y8o9Axgy1t/Fe3Da1mrQMLDB/76v6FZnsOWN78PA1teLayEKb2wXsX3P/kRFPuWY8tb3o/7P/ffMbbjAay4/HW44E3vRa5TlDEmD+7EDz71O1wyIf1E4Dno3Xgxll96I+77yz+AU6swC9K5aiMzGW3Da3DskR9g85vex2K4Xf/yZdYlzB0/CCObw8DmV2H/D+7CmmveeE4Agn/oLmjpgxibiVCrkeBOaA9o5qRJwVBSuGTT9chnTKhyFSFymJ6vYP/0DlaP92SHcHL6MHzdhayL/Am74aE567P7He2PJnAmOlhwF6G/BKiWjD4rQjUH7MkDdfIiYP8E4WPAd0mW0J5vw5uveTdmKxM4enIfdh3azoZHXGIgJoEc/HSy9yUzH9GJQQAhY2YxPLgSHe1tCAINg52DOFnZi67UBE7MT8LyfM4SKTckTFY0zmkwghCGHaJRkPC+834fAQeISdg3ugP37vs2smqANj2CKQXwVQmTUNnt8IKV2/CarW/mBETHs/DYg1/H1JFHYeUVODkZPWoXomIRjeYcUpl2rOg/H5pu4ZGDO5GXW3Hg6JPw1QBmiwal7kGuu2iVZaRicwb6T8oRXgsEEI53qAgLJswMJS5GmByvoKujCEPXYTkWVFOB14gdKbm5Js5I4awOodMIyI2QPCUccY84Mpniu4mN6TJhZjXYs3X4kQ/ZD9mDgG6gUTSR6c4jdDTojRADgYpLnBpm0+2Y67oKhcKr8GA4gwtPAGvCS6E1mpCaIaYyDehqHb0nv4cR+Sl89vwbMavkIUU2Gvv/DinMY/kKBUZWh6YqsaMmQBk0V2/cAiei4LMCevVuEVdOrAhs5FJ5+D4Ht2N97zpsXXX102sQno5BOH0MfSEmKFJ1p7JFHJ+WULNebuvkF2iWeZbdvhD34IU4i86sDTMqP2cC4wvx2S/EPs8UVCQAgWnHJQE+gkGIuMTwjg/+zjlhEKzyLGrT4yj2L4eeFt7vC1tE9WWLJ9RoQZQoKGrdTMcixue+UlQGoA6CtmVrYOZb/s0bCKjMjRzkZSvV/Jcap7GQ8tAudAyvg2omM5zYBTEPNLFTOUPRTVi1eRaQGencacAlgt2sY/Kp7Qx0Ct39KPYt4/LHk9/8Iny7yaxEx6pNmDm4C+WxY1w+WXvj21AeO8r+Gl2rzmNholuvonV4DUZ3PYS+jRdhxaU3njWD4Oy7E5AOYqIUwXLi1rdEvCZLaM104JLzroUu70fgHIee3ghFW4uTlSM4OLsD9XpTuCGmaFAX9twuTU60Oo/bOSX6eQxpMz5w5aEAuyIgE0VIZ2QcGtDQTAvhKT9n1NIWd1N05Nrx+otvY2fFR/f/GPvGdvCERmCDwAHpJiLXh0Zt+yq7KQlQSyyIrGD18s2wlTp830JXWx9WtDdRUA9BNV3MzEaYtjU8cUxjp0bXFZ07QQr4wODH0JJtR+SHeHL2Qfxo4ltCdEllDLZVplIKiXqBrpYebBrYivOHX43jU/vQPP4oeqf24QkpQi/VySHh20YGK1dtRVvBwLHpEYxXptBj5HDVeVtxcu4A7tl5CNmCiqrvw6sHkCIFlKjcO+XDkoBCOcAley3uItm3Usf2i0xEaSCdN+FR+6ZK7fkqXMuHmdd41R2RBXJApRdqWZXZWIgjnwnI0a+424M8KkR3hG+HDB7o79lOE03bglcLoekqIkpLJc1EXkWmXef7bM278Jo+53Wkw3YUpE5cXng3ztNugjWuwK0qHIpFrJDZChQHItSP7cbYkV24e8OleNT7ewTlL8OvV+DbEbJ5HYV2E5liCh6FVVkOcmjFe2/4dQZ8P9z/A9x78B5c1H0ZVnWej+vPfzOq7igmyk/hB/u/iwuHrsEtl33o+QOEpaPDuVqBkVixrb0LY6VXdAjPPVwvvuJcXf+f5jPP9LXUvdOiV2FK9VMcFM/0/S/n11XLIqyJBpKkrMCtb7GD5LkuMbycr9XL/dipxFDdcydq3iHYriJc+4Q5P5+aaZjYMHgBhttXwHMeQhSUYKQ3wgo68dTUo9zO6Ng+NDLNIa8Bh9oHhKAwaVWkXYq/i11nggg37vVwXPExLwOVDh2VdgUReSrQ/8WtfAwW4o6KDQMXIavl8NTYdtTdKoMAbnekfZMgcaHpIQYHZNBE9IAPrO47DxuGzsOT4z9GuTGDjX0OChkXY7MO7KqMloKKx09qCBUZjuLCjlz4YYieaAhv6HkrRpqHMemcxJR0DKErnBypZVOKJKgw0BWtRU+4CZoiY1nPauwrPQzJ3YVNzaMoChdlPv9vFtIoDGxGV74Xdb+Eg9O70GpUsWnAQm97gMl5Bct6PBwbDaCrEupjKsx/itA24WMPee4QCPM9rIgkpHQJE8s0PLBZh9tJwJU6FRTusPMp14G8HCwHZFMjRWosEBWOg+xGqBMIiFEgXUQqLcgar8YDomfUEJpq4Mr1r8NQ6yp8f+c3sH9yJxtC+LKPUPXR2llAYEcMEiI1whbn7bjC+jC6h3PId2qojlL3i4xcN5BuB6oTEgKLQB1Qm4wwld6Pg/lvY146iEPRA/A9ly2VaQtl0odQl4zCoIS0fjQWqYqOwZgCTwQAACAASURBVK6VkCMPftCErrajtZgDojr2jO3Hlavegndf9ZFzAxCSL/fZrmiJvuns7MJ8U8WJWdGf+8p25lfgbK//mX/Smb+S9AdFrQI1fHlYJNO62g/J6jnijhFhP/P8NmIQvsoiRbGaTESKIspXhplOnROR4vM7ulfedS6vAAGEiZ1fx7RzCCmF/F6U2BhHuCMSvW5oKVy8/EqkdXCbnBemMVkrYf/Uk3BYuCbKAuRlIJz82dKHWyXZqCie6IVtX8S0fve0h5PZAJYOpCWDPRWo3ZAK+/QOtnegQ6CVLTk8+pRkmIbl16AYlA0RwfOEmyIDV+FRjIwRIaMDTfJ1CmWktBAWKd/NHjiwYDlNpuA93UPFd6BHOoqUSEnHQCZ5pgJfi1Cq1nnFvdpcAStqwpJqfB6k0wi8AIaaghkVsUK/EJ3uBhSbK6GEBp+iWSR7/icQVr+OTnkGAaqohsD38yqmNKHRIH2E73loybrYusJHd9ajnk1Okhw7EaHimMjUFWz6po/8fIhdCFCOIhxEhBVOCDUlY3aFiWPrDHj/j733gJPkqs7Fv0qde7p74uZd7Uq72l3lLJIIlkUWSRgMJsMjmmAEBmzgj98fHg+ebWyCwfDzw+9hY8A2mByUkJAEQjmstNLmPHmmp1PF9/vOreqZnZ3Q09uzO7vq+1Nrdqarbt0691ad757znXMKcVisXkkLiqZL9cVKuQrNVc8rcxUIgCOocqifGObDLJk63FpUkC3A6t4z8OqnvguVWhGlKonZPi7YcDlWdK7Fb7b9Crdt+6Uobi+wUfJGMeLul3LQVRa08j1sqD4Ll1Reg9XxzcjHehBL6YilgXgOiHUA43s1DO9QPBOZX3IeYgEGjO34Zuy1KDtFAZbM/qizICjHKhQWBfYIAunO+qMr34XefAq2sw9f+/U/yzrtzvZgz9AOPGfTdXjTs2YJc2zExTDbwzVVpy9Uv/Mlms/n4Wop7BkAaqqEdrstUAJLCShk4y4KsTF4jKE6BZrtxzDu5uShi2kOYvXwUppMF7aiBSB888sqtHNKpuWoyBkBQivCHE8BsZ72QyRA6L//PzHi7AArL0ZoUEBhmByLmfKoJJjkdm3fBuwd2oGx8jCGS4MSVsjGPBECJmmnDxeNrDumZZbqiMrCEO2eqM8dg7tZF4WqBTuuweaunJvautQDaCYTJZmwybgniS9mSapkyY5oMw0xwyKZo0EBheX5AFtWskZDgIqtoyvjYbQE7ByyMDRhigtkvFZBxbBhux5imom0Hkc2nhQzPMduJFSVSTNGtqRSqqYoWFa49CSMco12PtYFl2N9z9mI1Qoo92uIpZl1UkNupSa1V0YP9kN3f4RR87d4PB7gkKWjSnlIDgkgcANYVoCezgCB7qBqlFApeUi4SfQkDOieCWu3gTN3O9hvEN74eNyooQ8p+J0JjKyMCQ9CqAEkH5o6YglTUjxrPhNTM/uhkpG6pgJRAqpCMifvJR5PCOBZ1rkS17/w88pNUduHwK9A1w5D1yrwtTNRsZldOAEjlsZEbR/uP/xxDI4dwM8fjiMRj8HSE8hoBZwffy42dzwV6eFVSAyvgRufgGtWkdTTch226gizQQxiv/YAjniP487E11DzK+LiII+FibUYPSPZMlMr4XRcAEOrIOYG6E32IB43kbZ3o7+8HcQ4QUDLxxhecM4r8MZnvbe1FoTpb4FmWPepVAqZbB5jEx4mapDKkEzXKWawdmtYAs3IvuHOGzyQD1MuXkWH0Rz/YNztkF08lbSlLT5a5Ktx3MmhJEVilCuAeShULgqVvIqggeGmjbSZAYJCCuxb8iC0qzk2IsolfwwBwuCDP8Cos6OeMIc7soiQKko93KFTwfR09mBwdFDKE8fjPmwJn7Pk92ScaXgDlBmNEIXHik5S2RdV4i2Vj9NxCWJ1dIzaOOugjvGcgX0rCRRUqmR10QAOHKTScdQqLkwqwLglERK27WJd51lY17MR9+y8DWWnJGPesMzD+Wt8pC0fVSZMcjzsG9KxZzyOwSKVsyYgoaLXUHYcZLQ4UvG42rmaKsSSPIZEOiaAgArXrjGkU+186U5husnN9vNwoftyyfBoxOi71xDPMARTh1NUv9O44iYfRzmxG3ckf4pxDKrrU0GHUSK1moMxpmRK+yhpFdjFAAnTQpzOC89AVyKDjkqAsuGhrDnYmxzFCqMLGS2hil5Fil/4BKwmqTgFtCTQlWCyFkNouakDBE9ltmRjxc51yzfgqq3Px7LcamxdfTF0rYqJ0e/C8w7Crm6H6x5BOnstEolV0IxeaMYW1PwJ3HnkExgY3Y4bHtKRysThuC6qlSoyQRdy2S6sKz4N5w69GiOFx9DffTfOcC/FWd6zJWkWa3zswwO4yfoydo09jIo7BnuM8bGh1ZKgk5EqgQa78FSMrvsYdDI0ufu2aamqoLD7vUgYJVSTl6CYeyk0zcVrzlyFt19+8eIChKlPdaO7WpqM8vmCMC6jeg0sFV1lcSebeb1V+d+2+6Hxd2ajsm+8x8aOJNDOxUpIaY3VX5jaqx/oGLB7hf/PTJKm5iFu1BDXapKidaG7+UZGTNcCE1DRijC98XrMZilhTrqDhFGRsRyV4XLaSQogfClMrBzy/UMfryRKSqXw2nd9CJte+CY83k7+0cgULdljtv382xh++McYdXaGhXfCnaZyS8tuU/S1ZPADYvEYPMdFLh5g44oAAyUfHWkDCUPVb9gzqOHgMLfHKl1zlKyonhFaSjt7yB+sIj+moewHWFMOkLQ0PLwxgf4+U0zJJP7xfDtwECdBTjCHjjVdG3Bm3xYMjw2iK9uNDcu34paHfoJA9zE4cQhxaxgXnuGiJ+/ioSd8eFUfmbiJfZUEDowxR0JEwhS7g1SiZNI7GScBAtM0ax4SyZgovEQiDp9IgU47LxCwwPT7neVN2OhfhdWJzehI5RFPA7WShnS3hpHHuTFU2SOFG2AG+EX2UxiN7RWQwSJDtM5xxy9prJ0qhpnX0fThFQMkNdZgSCBtxqQuEEkMvutLQaL9qQEss7uQCugSUSiMYCPK40awwpoTfN7JC1WWD0XoZL0Kqa3BqAXeu9wvkM90Yf2ys7GysB4vvPBVsAwH5eJ34dQegmPvRuCNIp29Co6zE/HEJnQtux6ansVA6R6xJP3ogRvx0KG7xE3jVMgNoMvBQcrqwOquDcjk48iwOFaxAP9IHo5no6/Qh4o1gm3Ordg/tFPkwIqSYhmSOZJFpzKZJjfjYOajcFjoSsgmBky/glVH3gQLI6hmn4XxVX8Bz+rFW9bYeMd5iRMHEI56+c/xmJP5zBS0MqHTWgQKao6OCdtAsaahXGswVexivVoYP2uELNaFWaAXa0Sz9nuigULMDNCTLAL0iS2w1bwEht0CCBSmNj6wcd1G0qgiFoKFBXY96+FFNwt+lJF17qYAQ4CEUUVKL4uVY3qb5CCoLYpsQMLKfWJBCAHCWc9/PbYfHpnvku3vl7AEtt/wPYxs+ylG3V1qh0+FwxoLknKb+SEUA93zPSSTMcUPCHysKXjYsJz+eCCV0TAy4khhoAf3mfJuIweGQWisvTCZFlu9aC7YUUNfv4uBQMMeACuDAMs1YKTbxL3nJlUNhlCpMVrA1wOkMjE4FQ9nLTsPzzj7udBYKth1wNoBE2UWt9IwVDqC2x79GapOP8qxCgZrNixXR7eVlFo6tqcLAJDoCOax8HxlGeCj6gVCPPRp8CPjPhVH1atIcqpEMi7XqoxXYZqsgKie7VysB8/s/SMsd89F9VAMTklDdgUJgDpYX8ip6hgvD8Gt6Lit+69RKxwS60elVBWuBWxAjzFvho+a6WI4KKI25qA3kUcumxT//pA/IRwCWjpYzOlganASIMjjrnbZZpLcEZa7VoWV6IZRcwiYSS2sS6EAEC0LnFOOkxwE+veJNbpzy/Cxa7+ImG7AMA5ARz+KYz9ErfIAMtlnIZk5H5qeRiL5dHiI4YF9d4DF+x7YdS9uefS/8IJNr8Y16/9IwMFXfv9XeGzoHqxZsR5XrHkOUqkEhitDuP/w7TgyelDWU4zALwgkJJbRFZ6tansQ+JCYGBgxsUzplglP74BtW/BSabhmEkGQQta9E4FbRk3fjGLnm+HHN+DNG/J416XrZgYIr33P5wKadPkhquIObjHaXL2y3CVBgslPGC8dVfg7Cmz4kCqQE1INkmYvkszmf8G36n5SMR/L80yBHIiFY7yqi89OuQmXXinrEwkSkpaL5alR1GrHKs/55D/q5lF2lal/tkYlTdN/Uq+KdYFFVvmgNWNdcAMTY04OVb+5bHp0QySMGhJ6RZ4bWhaKY8Oq3HOYY14K3hxlQUjjte+6Hm2AMN9qWPrfC0B45KcYtncoMCimdMU9IUFRGPjU8wz9813E0zG4VQf5NLB1JZBgiWTXx+ioLy/8IxUTB8dVJEKUT0GeXRLTuKP2gUu221g96OBIEOARP0A2ADpoco8beOTKtNoVk/0fhiu68IQPUMh0YV1hEy4+4+lIxBIoV4Zh6ocQoAOmWYBpZfD9u/4V2wYeRC3mwK55xCeSSCinJ5FOxcJ7UlYEVeyJilTVbjBZTCosM8mKgQzti6ficB1XfWxPKhdKtscoNNDXscG5CluqL0J2dSB7iq7eDlhIoDKq4R7z27jP+Qlc3UY2kxYQVpwowfRZ6dUIc4wo4MQIA8rSsgwhi3IeKpqD0WACKTMmcf8jRhHdXodYPWqxmpRCzpkZGCUS+wjsFMdBgT0CmdB6EOaX8Gxl6XFsX2RKS4LIwNSRTxbw3uf/FQrZblQrFfl7Z85CKl5D1R6E5xVgmgQIq1Gyy/jAv7wVTxx5CKvzBZh+DNdueh1esvFNck/ffuTL2F68H4VED16x+a1Yl98sVqh/3f03+HX/91GrOhKZwPUwemQcTtUVsCRrhpGqNnC468/hWavF5ZFNlqEHVbgj/w6v+htAc5AxTeHN0OszXAYcD3jrZe/CB17wsZkBwrXv+KpImi+5ODs1iwsqR7yQx7kRXzkXIRmrzHHNUEjG5FJ4ZJZOLbDCh9BxdewdidG9ckJaIeWir8MBy61Gja4RcifoDqk6ujw0dIuwvPXJdI0YrLcuLyhFYFpsg0fastFpDclDtpDmBQaGnc4ZTf2zggXmQNdcUdDkClBhH1Pkao5BVL2EuBemWywWMu7oWFbmZFXO2vgh/OBbf4OA9scwhCHKh8AXCvN+vPrtH8Ta57wSTxwaauZS7XOWiAT23PkLDD3yE4zYO0RxcH7Ffy3gMKxlQF0VLoVY2kRg17C+jztODYfHXfSPeshoGlJJE7uHuDVVTEPuDiWnBH+VgkGKH3PFEw7WDXkoBR4eM2mOBmpZE6VOC6MrWJQp3EWqQAoEOu0IOp655blY37MZyRgVrYvA3Y7yxE1IJjdDt9bDC3pxy2M/x70H7kFJrwrXwHIMZBNxpBNxIVBK6GNkFQtY+CmAQd6DG+64qfjpchDqI4mRKjsjXS0GWAJcgWUFXtQk5oLl6HG3ILfcQsLpgFXsRnd6OQo9SdxV+iEerd4OI0HTPotNuajWajADUypFUsoS7RGWvBZAkzbEreAyHwFN7IGHKmzUAgflqi2uiEw8jq5kRwhwAMMxpYgWM3lGL2uCNJ/AK1BRJhKG6vjCq6BsBCSJqyFMY80Q1GQaSSuJmJZCV7YHz7/kVTh33SUYHO/HfbvuQMxMIp/pRMyK4Zs3fQE7B7YjlSRjwsLzVr0aL1r9J7IxtjIm/JgPFy5ibgy6w5rfGv5j6Eu4ffQnKE+UkM6mhXQ6sHcY5fFwMyYWK6WThtb8D1Q6rlR1JAzmL9Gh7f8M/CNfgx9U0UWwQr+QzoJiDD8NcN3lb8Hbn/uhuQFC9Ox1mKNIG+WmdmaNPr+NRj9E8b0ECqzMRuAgWcMENDC+U8e+0RiGF27VbnSoRx2Xj5dRSFZgGlxYagxTE8QQENiuhrKjo+bq8m/5nGAeBV8QhbQLEoortoaax/HQ5NnMfrsxUXFHzRTLc/npZ+qJynrMzcMNmivBS6sXyYSWZkvtCu7oBTBoMzNdCQrG3BzKXqqxG2vwqNJYP275t0+ocKjIeDDFJ0gXw7NedB2y68/H8Fi7AEmDYl2Sh1VH+jG653aMeruV8uPumC81KdqkyIWRBUA2o9ylBr48jzZ3w7qNquMhZhiI83s3hkScmXHCzWv4sledqsW0dsTDuiMOivBw5zIfCc9APBFHrcMI/eoq85+sP4IMiz79ACu7VuPs5RfgzGXnCOG2XPwh7NpOmEYKifRFiCUvx56hXdhx5DH8ds/tYuqOIYZcMgnDMuDZnvSlLLr060cgRgEh8ePTchLKgWZwMPGSZBPVQeswG89X1jWV30AiAgwDK5YtR3d8JXYNPIFMLI+klsWIexhFn9EeBqrVmoQgUhdQD6gCsaFcJJQv5HxEFSh57wQ0fBf7HhzGK3AzqXkwoSNtxSVPgAAwfhVaNaIkUlEUisphErpUmFcixkyTnGPKNrT2CJhjSW4NdoXJkpgcycJl5z4Nm9acg8NDB3Drwz9HxanB83T0pjsxUR2DGzjimtF9E8/ufBme3/dqxMwEkrkkYmmGfbL4mwO37Iigvj/wNdw4+u/wXFfmnFaa0UNF2FVPhTIy4kJenxpqhWfC69hE5yxcO4dASyNRvAHx8Zvg+eRRhRYTITSqiIeXXvpGvO25s9RiiCwI0ZMY16votEaOKyZ8IU91I1aFqL/o5kQxGway2SzGajHs6V/IFZs/NmNOIGuOKyELUFFghQuOi5djihqfU1oSHF+D42qokXgZAgdJkLaIzTQCrMg5yLL2N6/PcXAMAl40VBxDTEutbGKBkggEtx6JMD9Y0DDuZjHhZhriAsw3Xl6PBEcDiuQooEFjcZVJgTt+DINOV0usB1PHowDCJ48Jc1RbO+54DBS6+6SAkGqhNpjqVon8o9FuLTyq7qqYfDWGemMK4IvqAKh3ozpF05BJZGHw7aGp2gkVR9UNp19XZeIJXbL19274Eg9HyRSzYVeTCij8Tsq2R1n/RJGFRCnuYsXNqyFpB0jXfIwmgIqyNMvLmR53g/+vh5JFF4wGr5ROlBNgUnuq0srcHERilHoIvvKTC7lMvlLjngxXA1xxSQFGQLOsGofKuD8lL0CYnSjCdrKjDAsdydB5jcCD5xThaGG+D0kPqBSVcOCYh4D9crcdlgfm+8L1XFQ1F67lwS2rks4JGKHSmsK/Cd0FvBdxM4iyCpAr0SQB7M9wTWtIazG1QWHSI1G6UeSDqt4oysvQsGnF+Xja2dcgZniYGP8BHPsA4vG1iCe3IJ7cKgqsbE/g3+/4KjbsL8LRDRzqjaNi6uia8FBOaKhwN00AIpELSkHy0g7j5cBCXwpEiLlbKlxyF173sdWXmuRnCNcNOQU9yzuRy2VxZHAAgemjWqrBskywpHi5WgNxPrMjygYxVIaydCXnQ5hNikBB+qTpXxEZI+stp4ZRCST0RU2ePIqfx4XWCGUdCGtShOhOrT91rMyFH0g4p/w9rI4p8iAnklZs/k3XkO1KSVZDEiv7jwwp7xNzoVjMrKh4DOrx17EisRarrA3ojPXiot6nY0Nus6ylUq2Icq0IHR24efB7+HH/P6uqnqFFSeWWUDU7ZNGJy4MyELQmHBbHNqFZKegB3SrM0UCXigp3ZRiqhG96wEsvfiPe+txZajFMBwi8RLc1AEtf/FCz6S/8herNjo4O6LEstu2fT3W05vuUUUKHOSZIur7Y6oV5lGtE3COWJeVtxQ8dNqJPZlxzvRAs2CRf8qXReg5F3HTRk64ik1Bjqo+BC8On20ETywLJnwQMBA+tckFEEQBU1gmthpjBcEF7xh39Yu3m5UWu0cDqizWBbgiCF36KXgfGnWxrFsSUXggQbv7OJ1Wy+2lKRm0CJxWtYpdPvq4iQmOkBGV9hRpKzguV/9Tz6oxlUcoqxVOkF9W1lNk7ly5Ao1k28OAHLipuGbpmwPWcesRF5IBS6zUECBGHQhh2oS4O17NSuuomQoOJKnccpgGgIonUneX6MD0fNb6kNQ2u7ov52wh0WD5j+PUw2Y8K5ZPbDjNQShKgMPOfKAAx/aqLsI6AsOhDECDXDpW5KFTZ0YayCVMZ+xY5+AFMT5GioxLNVFRUalGoomK3qxcpyW6RT1r8zozJn2L+Vzs49bIWBcMXeCSnqD5DWAip5tmo6R78eAC/xPLEBrKxBHQS5Hjb9OfzauHLPsyMPGn+DoFIxajJnKS1hJjg64m5wsJB7EPWQ7iGtqy5AE856w9UUiHshl19GPHEZpjWCgR6J36342YcGt+LsYEDuPrxCmI+8Givid0FA0874IgefrjPwmGa8QUBAV7VU8RM7tYJgE29XgxKAFII/CKQo6whofnAYMw+XTJAoSeLVDaFof5RIeGRNGjFDHiBh1KlBDOICaCrLzRmbWbNBMqbLhi5VoiK2X34upNlK4pcncroCFmrQhcJXUE02kREYuKsUOnrluIZqEiIcK1L7gjml9BVXQbbDyMdNNT8qsglGUsgHo/JvVlx1UeVOWF8WiAMxNNEEmqdV0ZpGfGVHJjbAQlct+q/4crcNQLq7rZvxgPmbRhMvRb7nW6MlR9EUDkMvTIArTYEzR6GVjsC0+uv32dkRZA5IXiTypO0cKiS3uO9b0Js+DfQxrcJeBVXuQ685KI34K2NWhA4h2lzAjljrOUv0YV02AhYIGEjl+/GvXsmTVcLucZCj00aZQEI8+2MOSm0MlhWTExOisU7qRJktGE1wkpNx3iNURq6KOpWNLLtO5jRkKQhcjksqw5apvav0LGyLIxzHFUDNkudLaDNN08RYKCSThoV8ddHcKTmxzHq0L0g2VYWrUXXk9AmckOm7tpbdNWjAEKoKI+6TAgS6stAohxoembK2yjzYoQcIqmqOg6hTpxcQzx+iiKPvo9upf6+DM2JkU0hemmLqVi0jzIby3KkkhIgEh4dvjjrL9Xwd5VKWu0ep5qYOUqu+WhXJzvmwJdaAFTsVmCIX9fTXXgmX4gECKxgyPdwIPH6ahzK765+Udnjot2gqhUQ+eZF2ygrQLTjnua7rO9U4StukMmse0CCV+c64CXD++FuPrK6cBfKF6oy14fcgmgzTGOMwB+VOEd2h2EyHfnzlDh7kR3nVxjyBOc+ap6LWtyFV/aRNeIS/ieyDO9BAn2FLK5uT/z2TOwTMMwPAiqqBsPCAxiMMNA9if8nqVDmxVTFomh+5tipgFLJJM5efj7OWXUxTE1HOpWWnAi0eFqxBH7xwH9g1+Aj0MsOnvVEBZ1VDeMZA9v7TJx/xEHSB+7ps/BwpxGS+pSCpD2Gu3rBLTFabxRZU/IWOL5KnsT5DatIEjwbTGakM3OhUrA9KzrRkUvjSP8QKsWqAnUmsz17MDVTrUeCxNDPLsmAXK5fVRRNmQCAeJrJjVSEmc8oA0txBMgxUK4SxSWQNNQsiSCoBlJDgePgrl5IpWKBCC0xBBbMRRFGa3BK6O4gQOE9ilWC19NtOA4QT8SQTCYkGoJzyMqj1VEPhgXEshbS3QmYHIvjYmx/Ca7yINQtKiYMxLUUNmS2wE/WUOwcwP7cf0N/6uXwuEh4c1T6DmtOeIgVb0P+wPXQuLg5nvQ5cOJbJN+B4e6HXxqD7ozAsKrQNQcD5/wbMDaB1GMfUmMKjkg46UvOfwPeMhtAuP4TfxeoqAADFUeR2tj6rEMngNo299tZGUFmbzTrM13ztoM0yUweN2WD36LXv+qGpDgqXu5KF9Ii4iXzPhAskE2rSD9TQEPIX6BVYcI2UbX57po0cS3kemLpsMaO4ZHwwaR1g8BFCKCh9SPqe2DCxECRu82FXG3hx0qOA70m96dCDU/9VncxqC3CJJ82muI6LyGadwUMop12ZI2t65jQMiCSiSwQU7BbtGOP0MNU4FG/fp1MO+nOECUrFs7JOPD6TjqcBgUWIib+ZAVM9iLXEWUWmpM5eWECGTWRkztFVwYSuhOYvlYHbO6gmXHP12FR+fIUSRms0tkatCqoG667ShQ/edLdEJUmFldFZOmIBBddXkLxIguDj7IkCSA7X0ecwexhFkHxQZMcEA09tNZI2J0dZsWcMocqV0FknQgFFu1Kxeweyo7KR0LjopMn65NXDRtuJUAiZkktAjaaeqnMxRsUpmsmCFCkRQ1Fp4KybktCIJNyo+JlVkUtQMqPw3C5Y43OVbYY8ZWHeRlWd6/HlZueIwCuJ9+LRw7cK2b87kwf7t1zJw6MPgHT8XHVo2XkK4AVuRBY1EkH7l8Zx+PLY3I/rq3qKojiDMdLk3V9Krh7FquN2sVLoSOLIZahmV5CBFWRo5VrliFXyGL/oYMoF+n+Ums1AopyPsmONMuTMBiCDTNuoFZypR/mMTATugAA5nAg4VNAl3AR1MMoj0Jo3VEZGVVeA02jOV4BMSNOkBMlTYLKM6AzmZNySXE+eZziT4QgObTeccyO44BWIoYnJpIJuQdWh+R3RgLIdCVhxkyZ64mRknLPCalSPeR8XgLDEZBCMmbMSmIo+QYMJV8KzYpDJxcP9NEY0AwTprMPK/a/iohIxlfK/xEmlr0XvplXSNV0oSdq0JwSjOp+1BJnwRjag+z491Dp/SNkD/wvWMN34FpyEK6ZxcXwkU99of5+Jpqnr5ys/HjAHM818SVF5JKT9RqPBjhdkfClsWzZcuwd0TEwdqyaaTVQYPx7zho9riiPCCxQQUfkS5WvP0qjpqRM1wM5CwRvnBNyCfjM0T0wX1NcibktQELyNM2j3CFHinGMVhYfIMw3/rm+bwZMNHPOQsc4SVKczINQtyBEu88pgHAqOAz1oXo31s38kz79iDktPl05JjSNhn7uukk7PF2On7Kc6u6AaLccgg6pOxNp4rpFInQp1M0Wk2ZYOTQimoX3oq6lTP/qlEnymqT3N3EDngAAIABJREFUDQEA1T6Pq5E0RkXtG2BiW8/wpSKghFiHoEHthNXunC9TUTRi/VF2c3nZS1Gh0AoSWRb4riLIqKfmnVTOtFJHrhcJRQzJbqLsxY+sXviKBX80j6AO0qIEO6HvOyLmiUwMkuhUiCN3q+JqEB82iwApmah+QlKjlHMOizXRjE3rvTmZlEdeByH7nzvcUlBD1XDEgmDBQMklKZeA3xB3TcJjSt8wU5NwH6Jqg8pXn0lmYZgmMtkMLl77DNy961YMjB2SHbTwN2KQlLxPe2QCuYoyP8eYlMj1QMPmg6vj2N7LREPKIiJrh64Zzr2lEg1RlAKsXOUrnwIXFXGSViKZxFA2foDVa1aiO9eJHft2YaKoMjsK+JESygqkSWpqycEQut4CZQWIwILs+IUbQiU+JQ8JLRzUpyLMsKZCCFqYDEl88QI+lCuCHRCkObYnP8XHL3wzofCoNcN6DKzhIJwTgoywfwF5BP0BEh0xJLMx4ZyMD5YUF4MW5aSJWJxcNZVoimuVxEa77EkxpmRXHNmehPTJ5EmlwRpG9WejmHo2YGXgBwm4PvNqsIpmDLFgCGcU3wvPZu4JHeXCyzHe9374Zmf9udNStJSpufDtCrzHb0CP+VsUV70PHYf+F6z9/46XXvQ6vO35s0QxfPAvPhco0h/NmZNEGfHf+lWMl23U7IXtmBf6cm30+JmAQnd3N8ZqcewZnL2XVgEFxuETILQyFbAi3yiiI0M6uXCiKI3ojggMmIKaGSbtMDqCbgGChum7fe4M6SIimbLRJnHAuoGBSgG10D/b6LmnwnHNAoSFnCcA4TufqCvQSIlH8lH6VCn4yJTNufLFXRDum8J/qz+EO4vQeqBeq5PgIOpX0kTXAUi4u5+y+44KDaoXaLS9DhV5hGAicmHYfz1MM/o9VGx110VkKRB9pMLbZMh1JUjdPVnghjtQMsgZf12DI1Z4Q/gDikSnyMeaYrdLGNmkjKIdW90nF1YtFBcAjTWuMhtTmYoJWXZ2oQsgBFxqfOE+LdxJRjUOIrdLfW7qAGxSrhHDXSmvKZYMKqbQZqJkO2ldkB28KGxF1lMuGAWiSFOpWxqEN6H4C5wr7rRlNx7epyLjkWDpoeLZqkwzN3Keg4RuIWaaQu5LBwlVQyB09XDM4p6IgEoIDuNpE9lMDkPDg2IJINkzshgxgHDLARvLxlxk7QBJU4ftMOwuwENr4niiV5UrpqIkMU/mgNbtyEXCktVVVhRUCZQksZBYlwhCpnABRIcrENjT3Y3urm7s3bcP42Mk0ikMJQAhpgCTuCj4kzt6IYCGhgGZdwUkhRxZj/5QREouKFH0IWChTLlGVNhlaAET7odKihRFA7CvGJMohfUwnKoPl5wL0Jqgw0zSCqDAAzMsKneTmlyem8jGkMonhAh8aF+/rG+xKAhgVgC20Nch/Bv2WyvV4JR9JHNxpHqysP1u+HYNtfFx+HQnxDOId3bB8RIYL3PDaMHVOsQK2O38F3yHpg0ddvLpGOt9H/z4GkBnJUdOkph4FI/IHkRi7ycRjxko9nwYHf1fQqz/P/HSi183OwfhXR/4pAAEDpbKin4pIdsRzfo1jI1XxIqw1JoSNdCRycC3cth+uPERNgsYTM1FzhoR0ttiNOXbVZXLoo9ER8gLL0TkYXREzdNgS+0KpqZW4EG9zwNkzHHQirCQ5ks+gi44/rFZLRfSz+l07EJWfXmsHzd+5xNhndopyrzu059kJkbEQ+VmmvT5y26EMxgplQgkhEJVvm7V5F9Tfo9erBGKUN9Pm43wdBV5pny00XmTPC9F2DvawjGpXOuAVCIzQoa3+OGnuFVoLg2jJOhO4MfSaR7VUKUvPSTv8RoJgyHMk9yFaJ3LuKbsUkVJh2ZvkUNIQiTBSznBqXSVAo8EVCddKsHKdQTKyCHRPaqsehERMVIyiig6mXI3cq1QG/mycw5BFn+amiQhMhDDRGVc8Uao08RCQF97yPwPsx0qpr8ij0UIX9xNAgqYVpim7ZDbQMATWjQkb7/tCo+B3I5kzEJaiyt2vbgT1L1zFx+x3IXDwTkIAuEjWXFykgzx9zPJEN/zKjpA7aYTPrB22MHmwzZSmo59GeqBAHs7Dezvidf99oqgqKwyAhjqrgZfrDC0pkT5EMRyQGKjcAAin7vamadzSRQKHeg/NIIKC/KE60qhBGXKp6lf5B3yHZRFSfUpLgEqXVoxwiqVsro5Pv4tdH1IwimCszC0UXkeQsVOmYXWH2XpiKpqqnNUOKACmQRGkvMhjObgPdHSQWuCsgARMCugyueoxAyQjPIwDbiaK6CBx/T05UXXOjUP9pgNuxogmYsh0bkMB7xXouIVAHcCsZiPZKKGVGIcmnsE1dFb4VR2qfUjw6MAKCsdNb8Lo8FmeEYXArMLMasH6fgqBGYvXHMZnHgP8gdeIK6lifgrka9uR6x4O15y2Z/gbVd/eP5Uy8oUqRB9xIx1iE6WcIslEujIdWJgzJXshjTLM/fAfC/38B2xoDtjHHHeGp0x1e6COmrg4IgfEOVaYDYyPuD0Q0VNHupAuR7okmBWR4bOWkERcY0lZRtvBAajTgFu0AYIjUtt8khaEG6KwhxFu4V6KtLpU0tAR6aA8LhJ44JyDYj14KiQhWkKOzovMh2EftZJHkJoqQh30Bp92dG/6+NRL3fl41bKrk40D/kP9Z18xAGgGp2i3CNyXmQWVjvocHAqtksUmbyYxVqi0tYKaz80ydNkLrSN8IGNkuqoAfOLKcAqFJRyXYTlbL3QBUoAEEYBKN94mMhG4taVIuY1hIMRDpHMcsb5R0RAlXdFKXP+TawXU6MLwiq/kUWBMf4dyaSQ9foK65FNdGLbod+hZlfD+HoqeeUPp/9duSQmzf9UzlR+/BnhFiH70TpYY8IhbhbUTlf+LomASA5ULgk5z4nAipKhKEYq0hD3cPfNugi+7oPF8SQHgMYCSna4IyfDXVc7Ztb1qTgoTLg476CNQsXHb85Kws1a8C0dE2EVvWgXzgiPKIyT7hICOAI27vQ17v7DsNOI96JcRqo+hQpV1JDKxdFRyGBkYBxOza1HBtQtRFy7IvdJsq6Y+EPLAtMes0+SFEVdElzx2iHPgbt/cVGouFu1y9cgrhm6T6LwH0Y5iIuAbozQ/CdVL6OaDFTIiZD7EYZM0sJR5+REfAsvkDLOga4iZiz6OMLIBUezVTJtXUOeEXiSndFFpVgTgmc8HUe6sBp7Ux/AaHAOfNeBlWC+ijQMzYbmHIJ94LNwhn8oewOuq950Sm0q4Al4HK74SicQruop9MR6YCKNauoKjK94N7S9b0LWexCOm0chlgSCEVx70Zvxtmc3ABCaeTGe7HOoQLt6emA7iuXLHQQTE1UdYLxmCvFyrlDChVgTJCmPXkNCq4oVgYWETlSLdgf8qYiGKjpieqIm+jyrlbJkHltIq3hJKX1MS0K7LVwCBAg3/tsn6yl363v9kFNQ35FH0QtTohAihRXRlUSPTF2YU3kJ4c63bnkIT47MvFNHHm2mRR+GMd5ieQs33QqEhg6CUIEqk/ukdYIs/LpGjXR1SNCSxDFRWuFwF6+2ityFqbNU5mnuqdRuTQAJCYtiYlbm4qiGQLRjFLMxvxDPpvLjR0QzZXoPE/QImU3ttGVHK7s27iTD9KGhFWIyfn4KFyDaQoTnK8uCenmrUMZASHSySw2PEYXAsQmLnpEGOs5ftw49HesQoAdVt4L7990qVoNKtczYiXooYGQW59g0EjFp/ZW49dDEFEVUkLQY8r7qYIY73DiZ8wq0KHlReSnAxh0sQ/MiNwzBEXematesYt3FukJCYyop4YT80ILApDskbtI/zr4qRVsiSrp9DSuGa3isYMLoTkmKYZIIPZZu9piBD0ikLfieJzwGIS1yw1INYCZCoEufPq0ZrpKlHtcl3DDitEXhnIlMArUSiywongJBDRU9ZR1LGLK7FveCpUnCSSNliGmfZaTVBkrt7AWwkFMha5ZyMerrkGCOYILJowi6SEiU+RVgqaw3QkA1WazJkDVE8EigTnDGvmXugwBuxRdyoYAQjlf4EurhIJ+Aa9DKGMJbkGRGXOscn8kESK7cZ0c+I2vaZg4KrpWA6aItZDrWon/tp1HqeIpEOKFK9npowXP7oR38/1Ht/7ZUoST4XpfvQkKzxOok614ZXliNAy4/PqGCDi9zBcrr/hLuYx/BMvuROlcHaQfXXvjXeOdV185vQVj4a3FpnNHRkYMWxvsfZRqVF5QiXU7UNEzUDJBOofyIR0dILAQoRHdt6A7imi2hewQLJFIp2td89ovWyI33SheEio6gK0JB82q1jArDIBbQCA5KbmYBZ7QPnSoBAoR/+uwbJneobfG0JdCWQFsCS10C3HCaJphTaPfu3RgYGBDwTm7fihUroL3jfR8/MdpskQWleBNhZECYpChKl1lncZEdGkYHlGq6AAeS/aZTLJoBC8zWx9LAMa0q2fsMnaQWv142eJFvX7q3eN+mJdYTz2P978auz73QuNP69MMn4p6XyjUIEL735feEIaxLZVTtcbQl0JZAWwKzS0AsIq4r7qfTGiBMFUHktycJRKIDptRNmBqpUXENHBhVCnWm1gxQYD+0ILCIj8kaATprA7ACpEoBPF+SpeNdzC7iGHO7wlhaVaWT1g1JQawp0DC9MaPhuJsH3Qzt1pwE2gChObm1z2pLoC2BkysB5m94UgGE6eKuA4Z6wScVWhjocewbMTGhiKaztmYIjVM7i4oHKSVN0KDAA3+fOxXUwheOEyQxZHceFf5IUEJwwCgM+egEDgQtioDqBBbGnfyCKioufGSn9xltgHB6z2/77toSOF0l0DKAQPILCSqncouiA+iOiCezOFhMYFzVr2moNWtViDqfWquAFQdZUIhZBQkWZqtA2NDA5CDmBU9h2GYmrZnb1OsTIJBsSRZ22U23CYqNC/qYI9sA4TiE1z61LYG2BE6aBFoGEHq7sxgcnjjpmRVbIUlaFdLZHA5PpDCysIhApYpbxNyQyGyJd/fBREyso8DiRgtN56xkoqEWZDBc62hYRBGhcjHqEzQ8iNPgwDZAOA0msX0LbQk8CSXQEoBgmgaW9+VQLFYxOt6ERl1igqclIZPNor+SxUiYU6gZ20irgMJ08RAsSM0Ckh7DcEoV7DIXMtFQ03IYrqSXmLRP/+G0AcLpP8ftO2xLoFEJTI+ma/S86LjJMucLPXPhx7cEIDBKoLe3G47r4UB/GTocIePRv83dbz3ue+Hja8kZTBnKMap8CI1t7wkQxt0O9I+F8drhSJYSUOCQaE0gYKBlgT+jUsbK8jD1XnWU0YmxarwlMm130rgE2gChcVm1j2xL4HSVAC3TDDtnToPjaaOjoyiXy0in00flujmePmc7tyUAgZ0XOjsRSySxqx8Yr/hCeLPgwCDpDqys5cOQnycuF0B00/GYhWQiholSFW6Y8Ws+YZK5WdNzODhKbsWxR0eqtzG4Uc/gOt9lj+t7ggKRu2bLT8o+ipAgShtxe2G77WRHxyXkJk5uA4QmhNY+pS2B00wCBAfx+PFv0LZt24b+/n5s3bq1Jf3NJeaWAQTefGd3D4YngL1Dk+lReXHmAWAYnyitMKQuYs3z74vdYvEYkqksBsc9qXXOJEYW1Fhma/FEAoGVx4ERA84cQ1woUIiut1juh6n3Q2JjFMLIey152UUv17zQuWSSvWzCh2X4UjdCCk2xhN9p1NoA4TSazPattCXQpARaBRB27twpeQkIELiRXczWMoDAQXb39kq+/p0DQG2OZH2RGZwKLKuPL1qBo0hwNOmksnkcGI1hoqrcHkYY3sdcADEJL7SPMsmblgXHKKC/aEnq0PnaUgYKCqSpUqxLrcVMYHnOQdLywrLVGhxXQ8nRUKoRnB1blXKp3cN842kDhPkk1P6+LYHTXwKtAgi7du0CP6ccQEgmk8jmO3FoBOhvsKJwyphAzhhb1NVB/kFHLodDxaRYOKa2yUgBVpWjH9+RegpxCxh18piwY02NrQFMcfQ4GvVVNDWapXtSRzLA8g7Wrgir3YRDZQZLpsKuOUyDzXTYrEo5vQTh0r2vqSNrA4RTY57ao2xLYDEl0EqAQAvCli1bTq4F4a3v/VRAV0CjjSSMnr4+jJZ1cTNIwZZ5GmPtC+YgC8zOd2jT35M1mu3owIidwcA00uFsndK6IWwJFqxvskVlpxd6+olwPyx0TItxPN0LhZSDDnMMds2WvN9mjHXsLclwOZ3tS9dDsaajaOuo1HR4Uqd9MUbW2j7bAKG18mz31pbAqSiBRgCCy6qRUulxdr1D68GSAAivfs9fB3ljtOG5EEWczcJIZLFvCCg2kGRIyiSbI8LCX8yWzmTg6h3YN0wf92Je6di+mwEKTwaQwIq0hWQZlj96THQJrT4xSzF+WRY3SmIVgQaCg4qtYbxmoGqzrLXGQoHwCRpO7PTOe7U2QJhXRO0D2hI47SUwH0AYK9v49q93YXiiijdfvRE9ueSMEYAECHv27MHmzZtPrgXhZe/6StBpDkjq3UZbIpFArlDA4TEdR8aOJivO1Ad942mjiKxebPQSTR2XSCZgJnLYPWjCbvx2mrrWXCctlKtwOgOFZCxAX7qIWmXuuadlihUpTcOUcNUoPTaBA5tUPnVYYIulvHXhLdQ8RXZcChaGNkBo+WPU7rAtgVNOAnMBhLGSje/cths/uXu/VH196uZevPaq9ejNH1sDZ8kAhFe99yuBhTLS2ljDuQyYpjifz6PsxrF/GA0p44ReQc4cnbFYUKtWgaqnXcATAxZqsxRgatW1GulnoVaFOr1wqW2PG7nZWY7JxD10xUdg27WGe5H66azOyVrvIWCga2IqWHB9AgUNNVdHsaqjbDfvJmp4YHMceCoABNacFyvNHE+67dfwxPijyMc6sTy1as5j55Jb0RnH/tJuJIwk1mXPbLgfP/Aw7ozJefzM1ErOBOJGAqZutmLq2n20JdAyCcwFEIbGa/jd4wP49q274Hg+XvGUdbhiUw9WdB4bpbBkXAwf+PjfBUHgwwrKcBwXNdubN9EQXzI05ydSWewe1BpyM7A4Ef3Qca1xRbHQWeOuM1/oxO6ROIrV1qVDXug4ph+/UKAQnX+qWxbIP+jL2tCdwXnX1GwyrtfO0A3oYTIs07TE2sBGouNg0cTAxMlVFicSIFS9CsYdgm29ruojTJkwUkhbmWMU8oRTxK8O/wQrkqtwcdcVcuaIPQz2NbXtKD6GuwZvx7rMejxn+QvgBA6o7KebafLxLuRjBbnOSG0Idw/dgTXp9Vif3SiK+5bDv8CNh3+GtZn1eNma18ixjbSD5b341cEf44req3BWx+Zj7sMNXHzzia/gqr6rcWbH2Y102T6mLYETJoH5XAwcyHu+eicqtofPvfFSFDIzE+SXDED46F99IaBHlzyBaqWKUtmB34DNloLI5fMYqcRwYCSYl6xIN0NGLyJtTEzL/tfauaPrY6yWwoEptIqlpGibAQtLafwLmS1dA1bnJ2BXWhfBEgEGKjjJVmZaGK0kMFxuLhJlIfcz17EnCiDQCvDI6P34j73/opS2mJ3oZvExaA/gkq6n4JXrXoekMbkrKTpj+K9938XB8j780bo3YHVmHWyvhn/f8y3sndh1FFF0T2knqIRfuPLleM6K5+FbO7+BgeoRFGKdISALcLh6COflL8BL1r4KMT2OmlfF3UN34obDP8GFnZfhmhUvxrg9ip8c+E9c0fMMnJE5E6Y+f2Y5x3dww+Gf4l93fQM5Ky8WBD4v79/8MaxIrZbr276Nv7r/ermPcwoXtmr62v20JdASCcwGEPYPlrBt/yg6kjH86627QHfDm68+C+NlB1vX5LGmJ33Uc7hkAMIHPvKZgPkATAOolCuoNmib526dAAFGEtsPo2FSIIGCqmBYQUKyAbbWF8D0yb6RxeP9R+cDWGpKdqFAYamNv5GniRk1V2UG4TiLR051AxMjdhf482S2EwUQonsUHnTAVOfKtUJF/+XHPodXrH0tLum+UkADwcShygH80+NfhKYZeMOGt2Nles2sYvJ8Fx+/7wOi5F++7jVwfQdfevRzuKTrSjyt79khQPDx/b3/hppXxsvWvgaWHsPe0i4BKLQS8Pe0lUXJKcpO/3mrXob12bNkLBzz1EbrQzR+fvfE2KP4vzv/ES9Y9VJc2v003Df8O/zD9r/B/7rkH5GxsnWA8Kn7r8fzVr4YV/Y8E5pGqLiw3B+R7NjhA8O/x5rMBhRoDdEYZxVIuRMCUVpG4nocSStdt4AF8OVe2GhZGbWHceuRG3BB4RJkY3l0WFnU/BruGfodKl5ZRpbUU3jOiucjYaakH57/3T3/LCCH3/Nau4qP43DlIGjpuaDzMvQk+07mcm5fu0kJzAYQfnb3fvzvG5+A5wf4wwtXwtA03PrIIYyUHLz+2WfhhZeuOiqq4ZTNgzBVbslUSnIP7Ow3MF5pznEuJY91B3HUYOo2DKnroCocqrDIhfVLAmUiXcC2Q+rFOVMU5lJStg1EiR6zVJfS+Od+jgIkjQpieg1MViXJs8LKlU0+f8ecVvWSGHFovl6YkmjV9aN+TiRAoBJ7eOQ+3DP0Wzyl95lImRl8ffsXsLVwIV6y5lWoemXsmdiJB4d/jzuHbofj27hmxYvwwtWvmFWZss9tow/gH7b/NT523v9AX2K5nDcfQKBl4Pb+m3DL4V+KS+Caldcia3XgVwd/iHuG78K7z/4QslYONx/+BX7TfxNG7CFU3DJ6k8vx1J5n4hnLrkZMj2GwegRffexvcGHXZfjDFS8CuRBfeOTTYjl43Zlvr4+bFoT/7/4/w7A9jLOzW3BZ91Nxdu5cdMTyMLTGUoyTY/HQyD3Sx56JHdjQsQnrMxtxQecl2D7+CAYqR6TfH+z7joCbQrwTD43ch5I7gQdG78WZ2Y148arr4AQuto89ggdH7sb6jk3ImjmcnduK7kSfKHofXt0NlDTT2F/eg/uH7kLZK+GuoTvx3BUvFp4HrSy07tC9c9uRG/GezR+pA6JWr9N2f4srgdkAwh2P9eO/frtXXAtspq5jTXcaNc/DU87uEy6CQZNr2E4LgEA/cL5QQNmLYcfh1ghepQ5WNR5MnTUHHLEyNBrYxjEVurrx0AGj7vaYCjGm/nupKdqFwqGlNv65VgDnlamgmRODFiT+W2p3aF7Dczu9f+awGLa7Yfsn173AcZ1IgKB2r2P4+YH/EkJh2S9jc+5cvHTNHyNhJMQFcfORX6AvsQLnFi7Erw7+CKvT6/HC1S+fESBwV0srwNe2/y0u6rpM+uHOvhGAQLIg22C1H3tLO7EytVbG9MN938Er1r0utGZMzhz5BQ+P3ot3bf4IzCkKveyWsK+0GxuyG8XFceOhn+K3g7/B+7Z8rO7eYC+Ri+Ha1a/ChDuO3w/diZXJ1XjuymtRiHc1/BIat8dw99DtuGvodrxhwzvRnejFY2MPyxhoreivHMam3FZsyp0jsiCA+vG+f8fq9Bk4r3CRKP/Hx7bhodH7sG3sQeF25KxOnNt5oRz/0Mi9Aoa64z0YsUdwQeelOK9wMX43+Bv5+02Hf4rPXvwPMl4CpodH78MdA78WsNBhdeCM7Fnivmm3U0sCjXAQGrmj0wIg8EbpZqAl4eH9WkPRDI0IZ+oxKsnSUMPRDzTXdff0YNeQNSN5crYQRMFuCzNWLPRWGjp+oSGS7HSpjL2hGwwPigpNscgXgaCq4TF37Yzp/dteDENOz0Iuu2jHnmiAIKDELeJnB36Anx74AT5yzn+XnTAbXQNe4CFuxFFxK/jfT3wJq9JnzAgQym5ZAMUtR36B7ngvXrnu9Uiair9AgPDFR/8nMmZWdsbyiAQB7hq6A33xPlx3xuslmoAPTsktyW78gZF7sLe0G8/oew4u635a3YUQCX42gBB9T7P9b/pvxP0j9+Dq5S/ARV2XHzVnUzkIW/MXYKjWj/7qYSFIRm6IRiZ5qDogQOX2/pvxJ2e+XcDUzontwn2gdePB4buxv7QHmwvnY11mg7gFvvLo5/D2TR8UEiZ5F/cN34Vb+2/AmvQZ4iKgBYGuhLSZwZHKQbE4bMhuEgLnlT1XoSe5TCwtjNT47p7/gy9f8S0ZKkEJ/17xKrig82JwbFvy52NN5oxGbqV9zBKSQBsgTJsMVq7Kd3ZiYFzHgZHWzxQtB11W/4LyNNCqUXRSEoI5W5tLES+FnflsVo/5JLwUxj7fGKd/r8OHrvvQWewrtBqJ5Uif3XLEmhNDdjec4ORbD0RZj/Xje19+D4w5sqMtVC6NHE+Q8K0d34AbOHjbxvcfE/rHnfk/PfFFUaDTXQxDtQH8cP/3xLx/fuEiXNFzlbgDokbS4D9u/1txAVBJCkCge2P0flGoL1v7x0I+5K74joFb0GF2YHlyFbYUzsPa9IY6OBhzRnHT4Z9joHIY+8q7MFgbwPn02ZsdeOaya8TMzp6pkH+077twfRdPX/YHOCd/wTHkRgUQPojr1r1eduTNNgIogpX76QbZ/GFx00iZeI3/KVPvjvFHUfJKOLdwkfz+68O/xJHKIZxTuAAbO7aI1eWWI79EzirA9WoYtIdw1bKrhQDqBy4Gqv04r/NiARN0+fCeCBx+uv8/0JNcjhevfqX0yzli1MeoPYIDlb1YlVqDq5e/EF2J3mZvr33eSZJAGyBME7zs2Ht74QcmHjnYWOrlhc5d1hxDRp9WYGGOTqSGdiyP7Ucav9JS5yqczu6HYwCDpngotCgQMDCHBottsWJo1DzfRL+9dIhcJwsgUB7cdRedIpanVhwbFug7eGTsAbEC0Gw9ldBHxXWosl+sALQekGA4tREMUGnRFTDV3M2dLnNVRGBiuDYoPndyD3idmHG0aZyhkqO1IbgBQ6h9kK5IvgDphcy3ELkpeMzOiccFzNBdMBOngLvvO/pvxsbcOehJND//BAP+F2hvAAAgAElEQVSPF7ehK96Drnj3jBwWWg0IvKJ7Jy+C0Rm0zGSsnJAYaTXpjHdLP7SiUA7LUysxUD2EA6X9wqmgPCpuScibY/aoyHRZcoW4g6I24YxjuDYkrqNlqZXojHUJabLdTi0JnHYA4S3v/auAu7XjaVTImVwe+wY1DE203k4fNyroNOYwB0wbPK0a2UIPHty78LHMpoiXys58oaTGpTLu41lfPJeAIWbUENerSOoVjLs5VLzFLYO6kDGfTICwkHG2j21LoC2BxZPAaQcQXvLOrwYki5E4pj70ByvTLiMJ5Oc8znlaEXqXLcdoWcOewflTLy90ejiOPuvQvOOI+uV4+pYvx0P7WVZ4oVebPH4msLBUFO6TFSg0P5uLe2YbICyufNu9tyVwKkiAuVlcVymd6YXoGh0/rVvbt29HsViUcs/c8C5mcxxH6j2wONTAwICMu7u7GytWrIBGgDD94lTIJhwJPySJjKZeYZzDC8MPj1VPJCtqVho7+7EoaY67rIEFFXvq6e3F/lHrmNLPzQh6Jr7CUgEKzZAam5HBUrnfZsZ+Is5pA4QTIeX2NdoSWNoSoHJ/8MEHRbnTmjAVJPDfwnOZoU39OwFGpVLBxo0bRUkz59BitgUDhJkAgxDIQpY5QYMKW3MlbwFD1YicrHQPdg1q82ZVbOZmE0YFKb0Ek7HFDYTGdeTzGHfSONRi4uR0q8JSqZ9wooBCM3NXt+wcz8kL9xYdz9UWfG4bICxYZO0T2hI47SRARV8ulzE2NgbP44ZaaYipQGEmkDD1bwQEmUxGqiYvNjjg2OYECO/66BcD22XRG1Udz3b1eavj0eUgSW9EWfPfBA8eNDOJ8eriZLRTpDUFDsh6l1wJui0WDvW3ozVIMpmCbRTmjGRodnXOFWFwsnfazUY/NCuLU+m8xZybNkA4lVZCe6xtCbQlEElgToDAWgwseOMHTM2q+AMVRxfAUHZ02I4Gz58/S53wFDSeP/+xrZgaxZEgSFEcCYbEMbkSQQNJlzHLxBh6MVZqxdXm7mMpExsXylVYfGmduleYC2C0AcKpO6/tkbcl8GSWwJwA4fqPfz4wDaNeSneqoETxBUDV0XFozBLQcCq0qN6D7S8uuWMmWUxXyIu5az3euWiDh+OV4OT5AhC+9B6Yc+RB8HxmAmzdNds9KQlYOlPXAjVPVfdst9ZKIG4AzALs+kye1dq+270BMQMwNPVu4DuilY0eDj4bc7EYXMdBOj0LSfEd7/t4QP+IKqVrShldw2BpXZXXnN/FTAsHxkwMTbQ+QqGVwlhKfS31vAqtklWL13OrhrVo/aRiwOqcjRItbDUdZVuXF2dxdADf/eLciZIigMB4emY7bOuy5qdJiiAZKckVMBNAYJ6Gdjs+CURVfacDBIp2oQWyjm8kp+fZkXxnAgitWr+cK0PqGs3eHNdBerYoBgKEmU4lOYKgwTItpNJp2EFcIhRcVWui3RqUwFKOgGjwFhb1sFYoyVb00chNWgZwRneAGCpEzvKh+63qaDgyMIR/+Oz75sykGAGE2wduwLax+1kXsJHLto+ZQQKGpuO6NW+WZE3TAQKtOOnEibcenm4TVarW4Ho+pgOERMxEnKXW261pCTAJWblqi3ynAwRa9NOJ1mSIlcRkHpX27G/Jmm0jmUjMHOY4G0CYeudMhJTOdmDfsN6SsMGmpXoKnzgbefBUrKOwFKfheEHCfOdznnpzQG/WwcT4GAwB0AYM3RCL2+jwED79yT9rCCB8a9c/4KYjP4YXHEeSjqU4CSdwTKZm4jMXfh3d8b5jAELMNJDPLp0kWidQLC291EixDMdlTY+jXQzZVBzJeGsUWEsHfAp1RutBsVRBzfGOAQjkz+UzyZbcje/7EqXAn7O1Wq0GVkGeMQ9CIwBBqjZ2dsINLGw70JJxP6k7mbVg1Hxa6kkttcW9+flEn0kAqzoDOOVRVCplydavESTouoCF8fFR/PVnPiZgYbYWWRDaAOH457INEI5fhvP10AYI80mo+e9PK4BAMURVG584omG8Cixl8l3z03ZyzjyViI0nR0In96qmASzPB0gZJZSKxRnR+NjYCL70159qA4QTNFVtgLD4gm4DhMWT8SkDEK57998HMaZY1m3ENVtyG8zUmAips7sbwxM69oVlEWTXNd/Wa/FkfFr1vJRDJU8rQTdxM/k0sLrgojg+Artmz9hDGyA0IdjjOKUNEI5DeA2e2gYIDQqqicNOGYDw0ncdnWqZSYek1K5mSwU9plxm2CBbPp/DoYkUipVjJcJdcNuq0MRKmeGUpVwDojV3eOr0QuvBikKAeDCO0sTsFUXbAOHEzmkbICy+vNsAYfFkvNQAQjKZxNDQEPbu3SuRi2vWrJFMjtp0gDBdJCqDIQGDK2SKcWdu8k/doNC2LBz36mpHQBy3CI+rA/IMujuAnnQF42NjIRt45i5PdYDAsDWWH7Z0stM1OL6Dml8DyysvxdYKgMB0uORXsVAN0+Ly32zDw8pE2tnZuRRv/YSN6UQABJLnWHeARPgnU2s1QIiIiFPrP3BNj4+Pi9uTHoDZGkmKfAaY7rlUKglA4O+sCTEvQDieSWu7II5Hekefe0wNiDYAa51wZ+kpGWNYo4fyBF0LtTmvdyoCBF0z0B3vxrqODehLrUBPokflFoCGilvGsD2EI+VD2DuxCwdK+8HQrKXSmgUIfAlyl3To0CE8+uij4M5p9erVUhSHH/7t17/+tSisDRs2IJ/P4+yzz5bCO0+2tpgA4eDBg8LloXxZufCiiy56Uom31QCB65mKftWqVXWgOzo6irvuugtr166VNT4fQJhaN4LPiW3biwsQpg6IrxbuyNqgofnnYCnXgGj+rk7smb0dPjwvkLojNUeD482cUIdpDjb0abBQwtjI/BW/TjWAkLWyeM6K5+KCnsuwJrMWXYkemGI9mGxM5jRaG8HB0j48MHwPbjt0E/aV9p7YCZvlas0CBCqlRx55BDt27MC+ffvEcpDL5URBEQg88cQT+Pu//3u85jWvkV0XvyNQmGsHtiQEsgiDaAYgULF885vflF0oLTL8nUrrqU99Kn71q1+JGZvyJCjYs2cPrrvuOtx///141atetQh3sHS7bBYgHDhwAHfeeacUc2JoImW4fv16AVqsIEmQ0N/fLz/PO+883HfffVi+fDnOPPNM9PX1SSEpAgeeKwUWLUssDLQYnFSAMNNUtXkLx7eA21yFhckvZmrYuMyB47hSe8QLNDiuqj3CuiNMKR6FCy/LA30dHoYHB0SJzNdOJYCwJr0Ob9vypzgrfzYyVjaE7nPfYdWt4PGxbfjOjv+Le4d+DyZgOZmtWYBAhUVgQIDAuG8qsfPPP192WQQDfLl+/etfF6XGeSdouPTSS+u7spN5zyf62s0ChNe97nV4y1vegptvvhnPfvazBRj86Z/+KX7+85+LxYZy7+npEQvC5Zdfju9///v48Ic/fKJv76Rer1mA8Pvf/x6//e1vRa4PPPCAyPGee+4RkEAr10MPPYRzzz23/u/u7m4BZAQUy5YtE+vZypUrBUxwfcfjcfmOAGPJAYRohtpWheNfq+1QybllSIvAmX2AiTI815W04sxjwMZ6I1yDvq+qmlZdA90dGsrjw4LEG2mnAkDgC+DK3qfh7Vvfj854z1ElaBu5RyrXgeoR/Mvj38DNB38lPIWT1ZoFCBwvFdRPf/pT7Nq1S4hY73znO4VvQPn88pe/lF3uC17wAlFgfCHzuwsvvPBk3epJu26zAOHd7343/vzP/1xkSTl+/vOfx/vf/35cf/312LRpk1gVNm/eLLLn7//yL/+Cv/iLvzhp93kyLtwsQPjd734nVoOrr74aH/3oR7Fu3TqxCGzcuFGUPEEDrTFU/F/+8pdxwQUXYMuWLWIh4N8IEGgtO3z4sMwD+R/M5UILw5IFCFMnqG1VOL7l2uy+7nTP6FjIAKvyjlgE+GDwYaBpjTtIy4qp2iOayjDPB8bzXIyNjjY8GUsdIOiajku7L8d/2/p+4RvMaNEL/DrPgJLgOTO1klPCFx78NO44cttJIzE2CxCo9L/73e+iq6tLdrN8UW7btg1XXXUVnv70p8uuijyE3t5eDAwMCEB45jOfKazuJ1trFiB88IMfFEBAC8I111yDv/3bvwWtCp/5zGfwohe9SORNwEUy6MUXX4wf/ehH+NCHPvSkEm+zAIHrcf/+/WJ5oZzf+MY34oYbbhDARSD78MMP4xWveIVYEL72ta8JAKN1jACBYILgmGu/Wq0KoOAaZ+NxpwRAOMqqINu7J9W6adnNLkRsCzm2kQEutXBXktM39gWYGO0XZu5MTQEGE6ZlwjJN8dU14lqI+lrKAIHKfl12Pd66+U9xXtdFM1oOGK1wV/8dGLMV36Iz3o2zC+eELohjJbZvYg8+f/+n8MTYY40siZYf0yxA4EDox7399tuFhPXyl79cxjYyMiK+2shqQBcEX6pUZE9GcCAyaTLVMk3g55xzjhBBac6m0uLvDz74IEhOpMLih9wDmr8pe/rLn0ytWYAwODgokQYk1JLH8dhjj4k7jNYYugooSwIBbn74XUdHh7zz6D7jh9EOPIZrm8dH77lCoXBqAYSpi6Xtglj8R6dVIKFV/fCOWwU0enJAZ6KM4uj8ZMNmJb2UAUIulsdrznoTrln9Ypi6CuWb3spOCe++7fU4UjksXxFQvHPrB7C184JZRXL3wB349D1/iapXbVZsTZ93PAAhuqhbqqG4cxRWLo7MmnzTYzldT2wWIETycMarKB8oIt6VRLwnvWCX1ukqV95XswBhqkz8moOxx4dhdcSRXp2bGfg3WIthSZIUm1kA7WiIZqR24s5pFUBoVT/kHjALol4bFvS8WG2pAgRaD87vvAh/dsHH0ZnomvX2S04R7771DeivHpFjVqfX4h1bP4Dzuy+e9Rwv8PDlBz+Hn+3/0WKJddZ+WwEQHv/mPdj3X9vRsbETF378WTCS7QqFUwV+PAAh8AMcunEntn/9bhTO7cXW9z0FZvrJFyo62wJuBUDY/7PHsP3r9yF3dhe2vu9KJLqPzSXRaLGm0wYgzCTwNm/hhL+fT4kLCsjQgII1gSSKxO2LNu6lChDiRhyvOfNNeNmGP5b8BrO1ZgAC+9o5th0fvOMdklTpRLZWAIT7P38Ltn/1PnSdtwxX/Z+Xwki1FVirAAKZv7v+8xHc8/GbsOKZa3HJZ/4QVrZdgjuSbysAwo5v34d7/vIW9FyyEld84blI9GaOeQTbAGGKSNquiBP5ij5512LwwRzVS48ZGLOBMl14XKvB1KtIaLZkBp3ach1JjI9Xmqa8LFWAUIh34m+e8jX0JJfNOWHNAoSSO4Hrf/N27CntPqELolmAUNo/hoM3PAFn3MX4jiHs+/HjyKzJYc2LN0EzNSx/5hnIb+6Fps8Opk7ojZ7EizVjQfA9D4999ffwvQDjjw/j0M270LmlF92Xr4AeM9B90XL0Xrn2JN7V0rh0swChfGgch2/ZjcpAGdVDE9j5vYeRXZvHquefpdbvVetQOGdZff22AcIs8922KiyNB6HVo7CMACvyDmJ6gJKty6fqanA9DUFAKKDCFudrhuZJvZGEXkUmFqA7Z2FgaPy0AwjMefC3T/0G4ubk7o1RHP2VQ7CDSZcLMyd+6vcfxkhNpRlellqBV5/5BmwqbK2L0tIsIS/GjMmdtuPb+PrDX8SP9v3HfCJv6ffNAgQqrLs+/AvUhmfgTejAhR+/CutfeS50a/ay3S29kSXcWTMAoXpkHD982j/NeFcEXatfvB6Xf+6FS/iuT8zQmgUIR27bjXs/dQuKu2aOsNr63ktx9tsvh84iMhK67YtrlT9na1Gq5VMqiqGV09S2LLRSmievL/IJerIBCgmasz1omi7EHAIC19ck0VHF0STxEXMaeAHg+Rr8OQCDZQJn9gZwKqMolcpN39xStSCcnduKzz3lK0eFLDI74ptuehlqC8xjQLLj6ze+DdeseXFdTox++OW+n+DvHvps07Jr5sSWAgQNsDIxmCkLW/70cqx76ZY2QGgyimE2gBDLJWBlLfRcuRyXfvp5zUz5aXVOSwFCuH6NhImz3nAeNr7pUuimClFuA4QFLJs2UFiAsJbgoXELWJa1oTnjsvAZyqMbJnRdk6RHum7Umby2q4GfqqtLOmXXB1xPh+Mr0MBGK/KyAtBhlTE+Oir5EZptSxUgnFM4H5+98ktH3dZwdQhvuOml8BaYDTFlpsWq8LL1r673x4yKtx/+NT5z7180bX1pRuatBAhUXmf9yXnIrMuj46wu5Db1QDPaLoZWWRCMuIGt774C2Y0FBI6Pldec1cyUn1bnHB9AuBnFXWN1ecTyCZzxii3Ib+5GelUHOi9Y0XYxHO9qaUdDHK8ET+z5tB50pgPkrSIq5YmjlDkTG6kPAYP6aYQ/CRyo9wkKbI9VCjW4Ahw0xCwdvVkPYyODc1ZqbOROlyxAyJ+H//GULx1FUFQA4WVgFMJC2kwAwQ983HboRvzP+z55ygIEAoNnfP1apNe2Qx2nrodWAYR4Po6rf/AaJFcwrXe7yc4+CFAsVVBzPKmSTDxqy+YFiFkm8pnkjIKaycXQsaETF//356D7kmMToLUtCC1cb23eQguF2eKuYiawMmfDq47OG65I14NYFTRNgQWTGRNVURJmS4wAQyxmojwxhmqlctyjXaoA4ayOTfj8U756VP6DilvBlx76HGpT8hd4vot7h+6GHUYjsKrj+uyZyMUnlSYLPP3BqudjS+f5dXnxvB/s+i6+8djRVorjFug8HTRlQQiAQ7ccy0Ew0xbWvPAsZNYW0Hn+MnRfvAKaMXMWycW+r6XUf6sAAs3dZ772XOQ2dsN1bJz5x0+uyo0zzenxAYSjLQhmxsKqazagY0M3cmfl0ff0M+rrtw0QFuGJarsiFkGox9ll0gqwKlfCxPikaa3RLqeSb2hpIFhgxkQyrpmL/HhcC9EYlipAWJFaib972j8haabq4mLZZpISp953mdEId7wTA9V+OW5lajXevPldOGdKoiSmXo4ZcRjaJIGPIOPz934Kt/f/utHpaMlxTQEEQFj1M5EUdUsX3sF5H34qzrjunDYHocUcBCNmQI8bWH71Glz+2Re0ZA2cyp0cH0A4lqTItcsohrPffhHOfttlM5IUi844fjNwE57V94eIG5MWiic9SfF4FlLbqnA80mvduQnTRac1DN9T4YkqXuHoRjfEcdAIjmuwSxUgsFrjJy7+n9jSee6c99dsmONYbQTvvPX1GLVV9MOJas0ChMO/3o3ff+xXM0YxkGV//kefhjNe0QYInMfmLAhF/PjZ35xxGVC+q154Bi77zPNP1DJZstdpFiD0/2YP7vv0r1HcPfNGacu7L8amtzKK4ViSYsUt4Vs7/xFd8T48d+WLkTRVYqU2QGjRMmlbFlokyCa70TUfpubIx4ILS3egwQf/rmsBMqkYKhUb3lxhC01ee77TlipAoCK9etXzJSuiMUuaZd5bswDhd4dvw1/d+1GQi3AiW7MAoXK4iKHfH4Bfm2G85LmcvwzpMwrtPAhNAgSv5uLAj7bPvBQ0IL0mh65LVp7IpbIkr9UsQKgcmcDI/YfhFu0Z7yu/tRfZjV2zkhT3l/bgP/f+Ky7rfgou73m6bLXmBgjv/iotju3WoATqomrLrEGJLd5htCKYuiuAIZfw0JHwJFTRbwOEutDJxSeX4L3nfQQbcptmnYxmAELJmcBH73wPnig+vniTPEvPzQKEEz7QU/iCzVgQTuHbPaFDbxYgLHSQUzkIFa+CGw7+GGW3hGcsuxrLkorUOCdAeBkBQtgiZj9/be+W55+KdiTE/DI6EUcwJ8iyXADLG2kJ4bCZMS9VCwLvhemW/2Dl8/Dqs94EZlacqUVcgsOVg/L1mswZeOWZf4K12fUzHu/6Lr7zxD/j2zu+ueBoiGbkO/2cNkBohRTn7qMNEBZPxicDIJTcIm458itc0nkFepPL6zfXMECYKo628mtucbQ5C83J7XjOyqUC9KarqEyMLahE8/Fcc/q5SxkgcKz5WAGvPevNeM6q5wnRcHqjGfHgxL56ZUaSGnuSvbD0Y+sT8Ngb9/8M33j0SxizZ87o1krZztRXGyAstoSb4yAs/qhOjyucDIDA55bWg7R5dM2GpgDCTNMQee1aVYb39Jjqme+ibYE5MbPLZEedGQ9ZvTXhis2OeqkDBN5Xb6IP7z73elzYfdlRmRUXcs98yTw8dB+++sgXsKu4AyfLP9kGCAuZteaObVsQmpNbI2edDIAw27haBhCmWxja3IVGloKqIdgGVY3JaqFHMVw9Fysj7nMne/KIIacCQKBs43oc79j6fjx71fOOCldsRO6u7+B3R36Df3rsKzhYPtDIKYt2TBsgLJpo6x23AcLiyfi0BwjTwYK4JE7e+3nxZrLFPbctC40J1DQCKU5MvqHPIkyzrC2GNsb0GuKowtIc6BprNPBc9dERwLJMOK7XknwHHD17Vol4Jwd1qgAEjpr5DF6w+lo8f+3LxY2QMJNzloKueTUMVftx66Eb8R87/xUT7kRjk7iIR7UBwiIKN+y6DRAWT8ZPKoAwXYxtJTj/wmpHQ8wuI9Zc6M64sAwfNdZUYIpkh/UUJj+zFSczNFciGwy4MOEhE/fRkdQwUarAW0iN6FmG5wUGqj4VKhWtC4MhlvBQHBvEl//mUypb42zn+iqd6rd2/QNuOvJjeMHRJafnXzWtO4IQZ2V6NZ667Cpsym9BT6IP2ViHcA74ne3bYJTCUG0QO8a2487/1953wNlVlnn/T71tep9kMukFSAgQEghIU6oiFkCBoH66uxZWRFHX/fZzvy2u6+63q2DBlbIoINJEFgSkRSRIC6ETQkiA9DJ9br+nfr/nec+ZTJ97Z+7UnMMvzMy973nPe573Pef5v/+nHdyAd7rfnjSTQv87DwBC8dbCUD0FAGH8ZHxYAwRfrL4SpJdpABqGXmyBQ+gh2RAjUBkjp8McXMfyijCJegoMFLx/VN6ZfqfP6B/VWujPMojoBhshN45MeuwZE2meEnY5UrZw8iG2QoEDAiXp+EHc8uPvcA2I6QAQ/DESGKjQK7i8c2WoGiElzCmqs1YWcaML+9P70JFrmzLAwB93ABDGT3n5PQcAYfxkHACEYWQbgIWRF97h6rdANRdmlRtwjbjImkglnWWZd+b0T1WpeqNXgMkVwIAKnPjAIWfJXIgpZ0ooi7qop+iGVBy2NfRunUwGpqtBgQ1FGryAEa3ZjBNlgOC4A0FAsrsF9/zsymkHEEZeiVOzRQAQxn9eAoAwfjIOAEKesg3AwvCCOtxMEaTUG6IpJPrVXOB6CpJn+5ckKKoKTVX5JwEH+p4YBPJXIL8FUvqyJMHKJrjewnBHxo4g7pSz2YDYAF02oCMHlU0IAjAYroa4XQHTGRj2R98HACHPB75IzQKAUCRBDtNNABDGT8bTBiB84srr3aniXHi47przXYYzXT4UsriozkI60T7sjr+/vLhqo+IXYdKYZVBkmfuIx+PDOieST0GL2TDkFBBgoJTO1G4ocKBrLtz0Adzw/74eMAj5LuYxtgsAwhgFmMfpAUDIQ0ijbDJtAMKFV97Am1SH91yTGinWR9SH28650HU2E5mXsigwK5ZCd/fYk++QWYKrFQ5TvcmGjLhViawTLlT8Pe3Jz6G5ykU2vhff/7/fDADCqCVZ2IkBQChMXqNpHQCE0Ugtv3OmHUDofVs9yU+mSNjiTFSG+S2jkVvNFCAly8CyBgfdnS1chnm8D4LDSbuUHQ49aFzwJalgWn05UB4xcWDvTvzwX/9u2kQxFHyzU+yEACCM/4QEAGH8ZDytAUJ/sfiAYapEIwRe/4Mv3HzxnIjhH/nItz/uqaDGA69dXQpU6QkkE/EhB0aK3HB1OK7CvgEUykiVHAcr/TzS3VGoYtwuZ9PBaA5yiagqAWpLTGRTcbQcPIDrfvRPAUAYjTBHcU4AEEYhtAJPCQBCgQIroPmMAgh92QUqEEn6QMCGyfRf6A0UJnssBayNadU0X71fCOgYrM8FNQ5yiYNwh8lVYLo6K3XLVTn3gOyVeubcB/4/DzQMJ2TL1dBtl8NwBtYkyHdyyqMihNLMxpFNZ9DV1YHrfjR98iDke5+FtiM30olIvxwAhEJnpvD2AUAoXGb5njFjAcJQAiAfBjomEzD4Y5vpznz5LsKh2tHud06lIXIIWBIypsw/KWRwso7aaAqSEWdGYLCDciIm7RKkHMpB0H+ctPbcngyKAizYUGFAlwxmG3yWoRimBTKHHNHowsolkUgk2Neh2JkUj6tehZSVxtbuLZwSeW7JfJxUdwru3/lbzmRYrlVwoqWElSjKlJHC/eT8SxBVY/jN9l9yoqThDgICFCViu2K+YmoMR1Ysx/F1J+HO7beg0+gYcVyU0XFVzQl4N74VHbmB7RsiDYiqpXhvkHLSAUAYUbxjbhAAhDGLcMgODjuA0Jdl4DizKXEwWKCRTJHxTAWhhFQX86oMyHJfoVAuAcpcmDQUpAwJhjl00p/xug8JDkJyDrqUZVaA0ieTcqcww267CrarjuLSLkciaFKOsytSLoN8/A4GgyoUabG4HlCdNDo7O3vGUiyAUB2qwd+v+gGqw7UwHBOtmQMo0UqRsdJ48eAzeHD3fbAdGx+bdzHasq14ct9jA3bsC0sXoSJUiVfbXx60FDPVYzh/3ich9wJaITmMY2vXoCPbhl+9/Qs0lc7DkrJlfWTdbXTi6QNPsvKvjzTin4//Dzy+92H8fse90GQNn1vyRaysOR7Xv3UNXmp7ccR5oj6+tuI7eGjH79CSOQAHDnYl34flCh+USxZ8FmEljF9tu2FAXwFAGFG8Y24QAIQxizAACCOJcCpFRwTOjmK2SkMmSuVO9rincMDeuQToewobjGcV7OsePOZ/pDkv9veKbEByJZBpYG0wXGQAACAASURBVDIPYg7mVgMlIQttbW1wezlTFgsgUCnmrx31HXRkW1CmV0CRFU51/ELrs6BiSWkrDcu18NG5F6I124IN+54YABDOnv1hVIaq8Lsdd8N0DMwvXYiPz/sUHtvzEN7qfIOV7nlzPtbnvPlli7Ci+jj8dvtt2NjyDC6YdxFUWcOu5HssckrBTFUg79p+G7Z2v4UyvRyzo004Z85HsbVrMx7e/QA+0HA6p2d+veMVOK6DUL+y0sRK0Od0UMnZTy/8DBaWL0WX0YmIHEZdrBHf2/S/cTCzn9tcNH8dKvUK/GrbjXwfvY8AIIz/kxAAhPGT8WHNIAwlVrFfnRrswkzx/i90CRObUhlKQnfIGbAXg0C5BPyMhbKCbjOKzuzow/8KHddUb08ZlCtiQF3MRCLeCcs0+wy5WAChOTYX5zV/DKvrTuYCSUmTTAgSg7aUGcef9j2BzZ2v46NzL2JFumH/eh4HmSEiapTbn9r4QVA/d793O5sKCBCc3/xJRNQI7ttxt9fnoeGT8v/Kkd/AnuQO/G7HXajQK3HenAuwLb4Vm1qf54bU918s/Qoe3/MHvBt/hwEEMRsvt23Cls7XGQxcsuhzaM0cxCO7fw9dDuEDDaeBmAkyaWXtHF5sfQ4duXY2Y5w5+zwsKFuMe9+/A3uTu3B204cZoFzzxg8YCPkA4aSGU7F+7yMMQvamdiNji6RXAUAY/onhEN9eB60fy7LYidZxHP5JbegffWfbNucP6X0EAGHsbyXDMFiuJOfedVoCgJCHbAc4M02SGeBwioqQJRdVWgdUNzvkDJG9v92uhjVE1sA8pnZGNSEFVxEF6stsZJNdyGYHyq5YAGFubB5Om30WVteuRUv6AIO2NzteRW24Adu6t2DD/j9CkVVcMPciHMjs5b/paIjMwon1J+PBnffhqMoVOLXxQ/jvrT/nXf8LB/+MeaUL2Cxx/457sD3+Ts/8+H4AH27+GH6x+VoczB4YESC8072FazccX3cCqvVa3PXurTi+9kScUPcB3LfjLrwX34aoGsXqupOwvHIlVFnFK22b8GrbJnSbXcxunFx/Oqif7fGtWFCyEFet/D+4cfOP8XrnKz1jIwZhWcUR2J/Zjyq9Gu8ntmH9vkfRmesIAMIwTxgpo507d2LPnj1oampCbW0tUqkUduzYgebmZmzevBmrV6/mz95//30GCLTOFi5ciJqamp6eA4AwUMgk246ODnR1dWH27NkIh8PYvn07y3nLli3QdZ39kpYuXcryffPNN1FeXg7TNLF8+XJUVlayvAOAUKCK8JU0ncZmiUkGCzSOmWiSCKk2yuQOKO7QTmgUJdBm1Q3iDFjgpM6Q5hGd6kPYgJlAOp0eNDNjsQBCpV6JCxdchgvmfwrtmRaQ3f/R3Q+iJlSLbfG38XzLMwgrEQYIxCA8tX89yC/iM4v/ihmCG7f8DDXhGlxx1Ddx69Yb8eWjrsbfv/gNyFDw+WVfxvMHn8bLbS+yeYF24cfWrMa5zRfguQNPMTtB5gtiEM5v/gRasgcZnNBB17xwwaV4YMe9bGKgg150c6LzcEzNKhxVtRJ/3v9HvNDyTI+DI7EaH5p9LrMLD++6v8cfghwcCTTYjoVF5ctw2eIvYHP7qwwu6Pr+QQAhpoRxz447sLT8KNSEa/Fy20auMBkwCEM/XN3d3bj22mvxzjvvYNmyZVi1ahUrrjfeeIN3sWQeW7t2Lerr6/HMM88wgKirq8OcOXOwePHiACAM896itO2vvfYaDhw4gCOPPBIk64ceeghXXXUV1q9fj+OPPx4vv/wyy3zfvn148cUXMWvWLGZoCJTNmzePwVgAEIqkHKZCOKUALVMjQmOsYi3VDUTRCWmYUsMpN4aEVTHWSw17fizkoCpqgYsrmRJy5CA5CU6RI90kZUqcVeki5KY4R0N/6tY/v1gAYVXNGqxb9AXsSu5A3OzC/LLFeGLPI2iKNTG1TwCBHAI/Nu9TaIo148WWZ3BExXIsrjgKP37zB9iX2gNFUvGlI7+G5VXH4rW2jbjx7et4mIvLlrLfAtH89eF6XLzos5gda8b6PQ/jmQN/6qHvK/UqNhfMKZnLlRzpIIVcG2nATVt+hre7NmN13Yk4tnoNllYux474Nqzf8wibJAwnx8CBIi5oHCuqj+HxvtL6Ive/sfU57o98EE5pOB0fajoPz+z/Ex7d82DP9X2Zfmr+OgYmt26/CcR0UH8UuUF+DAFAGHrlvvfee7jzzjtRWlrKqcaXLFnCSuqBBx7AokWLQN8fd9xxvOt9/PHHGRiQYotEIvy9fwQMwkAZk6Jvb29nEEBsCzE1mzZtwre//W3cfffdLD9iaD7ykY/wz2QyyaCMzjvhhBN65BsAhJHevKP8fjLZBX/I0xYsEFWuJxBxRWjeUEerXQfbGT+HQI4EqHMgS4LF6M3UUBQFgQaKpMiYEkxr8kIvWTFSyeiSLFyje9j6EMUCCNWhakiSirNnnQNdjaA2Wo+7tt+K0xvPxM74djx18E8ss9pwHc6YdQ6bDsh34IGdv0OyV8gjKeWFpYs5RJCiIejonaOAIgjOaTqfoxCIifCdB6kdKeUFpYvYeZBYBB8gLC0/gs0HKTuF85ou4M83tT6Htlw7HNfucXqk6IiPz/s0SrUyyBCRMBShYLsmbn/3Friuw6DmjFlnMQPydtdbrPj7H+c2nc++DA/sunfAdwFAGPoFSrvcf/zHf2Q6m5gCAgRnnHEG73oJLNx0001Yt24dWlpacN999zFrQABB07QAIIygl8iP46WXXmLzQVlZGf9OIOt73/se3n33XZx33nl4+umn2VzzwgsvsGmBC80BzCr4DE0AEEYJAPI9baowC9PJDEH+ByVKHBEp5SmMgSBBmBfq852GUbUrC7uojwq63i/hLFEpZ0XpU7GRKzQ6QM6WkfJyNRCAINBAORsmxgrlQpMMhOUs51SgBE2S5AdJ0k8ximIBBF+gtMPWZZ3p+rSVQl2knhV2zs6NSuYz7aQAIAw9o2Qjf+SRR9g5LhaLYe7cuSgpKWGlRjvf008/nVkDAggbNmxgcPDqq6/i5JNPZnODfwQMwkAZE/h67rnn2HywZs0aBlQbN25kc8PDDz/MciYgdvbZZzNgIBaHHBXpvAULFmD+/PkCMLsuEqkMcqYNXSEnY8BwwKXrdU1FRUmkKI8sOaQSSKGfQx25XA7RaLQHyIjKuC6PW/KLNRVlNJPYyVSoHzEdwIIqmT3Jg+h3yjtASo6yEpLiyzgRJOzxMy9wxcZaE8l4+6A1Fwgw9ERTUBln+pvKPPf6RwzD7k4d5iQkdpIkByooEZPJpaEpr4Is2Uh0t+P6a/5vkGp5gt4BAUAYf0EHAGH8ZBwAhPGT7Yg9T4VwyukAFkiQpNwIHJCyo5+Uzng88w3UlADlahfvZvI5fA9rAg30j6o02pKO/YkYrEkACP3HzOBKcpDuPoDbf3J1UM0xn0ktQpsAIBRBiCN0EQCE8ZNxABDGT7YF9ezT0JNZP+JwCqMcbnKo+iFlcEwl2oetuTBcHyTLlFOOlB3LKxtiQYtlDI2T3S24+6dXBgBhDDIs5NQAIBQirdG1DQDC6OSWz1nTBiB88ms3uJMVUpiPIMerzWT7MIjqATMjMiLfOaqMuihVu2Bk0kOeQj4QRNzT/3vXUPBPyLpkAhl9FcZ8x1pouwAgFCqxsbUPAMLY5JfP2QFAyEdKo2szbQDCRV+7oYcNP9wUVu+pnezoiGkbGVHA89FQZkDKDc0eUEmlTrumJ4KCzB9k+iAnQRVk83eRdqLIOtECrjoxTQOAMDFy9q8SAITxl3cAEMZPxtMOIPQXhe/zeLixC2JnP7mJmmYqUCvVslDcDDRQrDytuENRAGTLp0qNxA5MxyMACBM7awFAGH95BwBh/GQ87QFCb9EcrnULhArz7n5iYuoGrMjp4uxY6KNE5gOfHRBOkja6rMppm70xAAiFroCxtQ8Awtjkl8/ZAUDIR0qjazOjAEJ/EfTRlZOkOEc3LWM7azKjIw5nkDa2WZuYs1PdLbgrcFKcGGEHxZomRM4BQBg/Mc9ogDAUYBCRAoeH891kR0f0rl3Rn+0pBLMdbiak8XrkCwEIGw4+gje7X+qTvXC8xjVT+5UlBZfPvwJlWgU0GaAImZxNCWgo+6WMkkhopt76hN1XMpODZVPZbgqHBiwHMB0gomsI6X0rP07YoGbIhSiRbSpnwLIGJkrSVAWxsF6UO6WER7ZtAcNkzs0ZBmJDJUrynRSLMppBOjkcfRnI4ZGOmap8fRCY75rx3A3ybT4t2xUCENJWEjknO0GZIKelOEccNK2pcq0SBBT6AwTyb6HaDcExNglQ9j161vsDBD9x2dh6P9zPdjmbIunt/pkUi7l+KfmdwoXVht42WqaFkpLY4JkUxxsgDLa7namKcyCzIjwYDpf7LeYjXzAIKYQ2KeZAvb4KAQjjcPnDusv+AOGwFsY43Hx/gDAOlzisu+wPEIopDAIbxK4NB5ct00RpacnkA4T+N97DLtAXk/yCL+akDNXXTGcWJkKGxbpGoQBkJEYoH4BQrLEH/QQSCCQQSKBYEqBaDVRDwi8q1acWw0QyCCPd0OHkiDfZ0REjzUXwfWESIIBw50+Gz6RYWI9B60ACgQQCCYy/BKYNQOgvisMOMBwGLMr4L/fJuUIAECZH7sFVAwkEEhibBIYFCBd/7YZh/BvHduFint03amBmR0r4EQqTnQ66mPM30/sKAMJMn+Hg/gIJzEwJjAgQhty5TxN5cJpiGusM34EHgGHqLsgAIEzduQlGFkggkMDQEigYIMwEwED3MJOjB3yHx0IW/kyWRyFyGI+2AUAYD6kGfQYSCCQw3hIYHiBcdb2XIJD34Hkf02Wzfrgkbsp74gps6LMWhZx2OAKRACAUskKCtoEEAglMFQnkBxB6j9admWCBbvFwMUdMlcWX/zhcnptCjqlkVgoAQiEzF7QNJBBIYKpIoHCAMNjIZyBoOFxrSkyVhTl54+gJMi1sCMPQZgFAKEyUQetAAoEEpoYEigMQRrqXAgDEVDVP9I6UoNsNzBMjTXrwvS8BAgh3/PirUJQgxW+wKgIJBBKYPhKYGIAwQ00Uh0IOZ3Zo5fRZzlNzpAFAmJrzEowqkEAggeElMPEAYYwmiqnKMPS+rcOxCFXwoA0tgQAgBKsjkEAggekogWEBwqe+fr07KY57M8Ak4S+GwBQxHR+L4o45AAjFlWfQWyCBQAITI4ERAUL/YUxKiuMZBBgmBXBNzFoKrjKEBAKAECyNQAKBBKajBAoGCAFgKO40TwrgKu4tBL2NIIEAIARLJJBAIIHpKIExA4TBbrq/xz/vmifKeWCasw3960rM9BTR0/GhKXTMAUAoVGJB+0ACgQSmggTGBSAMxTJQ8hrfJk9tAtAw/BI4nIpQTYWHYbzGEACE8ZJs0G8ggUAC4ymBCQEII93AhHv958kyTBTpMZJ8Bvt+wmU2mkEG57AEAoAQLIRAAoEEpqMEpgRA6C+43ml1J4RlyBMw0DinKmjozcz0lueEyG86rvwJHPNEAwTHpXJd4j/6/c3OV9Cea8Ep9WcirESKeufU/43v/BhHlC3HqY1nDeibxrA7tQNt2YNYVr4CUTWGt7vfQHeuC6trT4YsybBdG5ZrQUb/RFI0fhshJcJt9qZ28T3FjW5OjL6ialVR7yXoLJBAIIG+EpiSAKH/JE24WSJPwDBVwUKxFnmh9Q8CYDK45CcSICTNOF5qfx7vJ7fzv01dG3Fi1QdwWv2ZWFV1ImJaSbGWB/dDCvzzz16EcxrPx2UL/mJA3wQgHt33e7zS8QL+YtGVqI804pfbrsPW5Bb8y8proMoaXu94Cb/ecTNyThqmY8BxXSiSjJ3pHWgKz8F1a25Dzsnhzp2/giwp2Jfeg1IlhiuP+N9FvZegs0ACgQSmIUAYbNIm1Ps/T8AwlRmG6bTwxwS8xnTy+EhpogCCv7veFn8LcaMLe9I78dD+/8GPVt2IkByCLodQopXxrt1yTBzM7Ae82mv0fUWoGqqkFiQEARA+iTXVJ+HyBV9CuV5O3kU9ffgA4VUPINQNAhD8xtT25fbn0ZZrQUwtwf177sHFc9bhhLpTkbIS+M37NzMDQkxCmVaOK5Z9u6CxBo0DCQQSKEwCwzIIn/769e4UfN8Oeoe9x+k7Q3LD8b6BADwUtuKmcOuxLJXhapwmulpw5wTUYiAanuj7V9o3QpJkvJd4Bxs7X8DFcy7jHXlTdC5W15zMND8BiMf3PQRJAlpzLazSP9l8GWrC9bBdC692bMLm7td7qfpDE1cfbsQJNR9AuV7JDMLnnvk4StUyLKtYgRUVx2BV9VpW4IJh8BmE5z0GYRb+6+3/wO7Mbnxv5Y+gyIcACYGWm7b/FC93voilJcuwrHw5PtT4EYSVMLqMDty8/WdoiDRhV+p9VGqV+NLSq9FtdIJYk1mxZkiDjnYKL7hgaIEEprgEhgcI37h+wDtzuiCGwQAD104YixbIdzLzBA0TMZR8hxy0Gz8JJLpbcOe141+siRiEzlwbWrMH4ULCXTt+iR2p9/Gdo/6JlWeJVgpS7kTrE5VPDAIV0n7y4OPYmXwXX1r8ddAOn5T6+8lt2Jl6b4BfAF2jQq/C0rKjGGgQQPjCsxfi2MrVmF+6BBvb/8y7/yuWfIsBBLXfldqB1swBHFlxNDMA337py6gJ1eJvV/xLH6WetTP4h1evRnW4DhfNvRyzo3MQksM8MXtSO3HNlu/j1Poz8Xb8TVRp1fj8oitw67u/QFiJ4tPz/xcUSRm/SQx6DiRwGEqgYIAwQEbu+G/Sx2teJiw/QwAYxmsKp0W/EwUQegtjf2Yv/uXNv8N5DRfg/DkXDikncg783a7fIGHGcem8/4WoKnwU2MXRJZjR9/ALlBFDIRgCAgjCB+GieZ9BS/YA6NorKo5DSAn1sAjUH5k2Xm3fiH/e/Lf4zhH/hBNrT+3T+XMtT+GX7/8C3z7iH7C4bFnPd3TuxrY/456dt+GLi76O3+25E7V6LeZE5uLePbfja8v+jsFHwCBMi8chGOQ0ksDYAcIQNztdmIbew5+w0MEAMEyjR2TsQ51IgEDK9L34Vvz8nR+iRC3lXXpEifa5CdMx8ezBJ2C7LizHwnPtT0OVNJxYczLW1p2BqNq3/XASGMlJUZzrYn96D9bv/wPu2n0bLm3+HC6Z/wUGDHSQueOhPffi1p3/jSsXXY3zmi6ERLYP72jNHmDW4dS6s3D5wr/CNW/9Czs9Juwkvnf0j3Bc9Qljn6Sgh0ACgQQGSGDcAMKAK01DpmHCCi0FgGFGP5rkpPibCTAxkBCJpn/ywKNssz9v9idQoVcOkC21eWzv/bBcu7c/ISRXwpmzzkepVpb3fJA54qdb/h3HVK3CaQ1nD3oetXnqwON4L7kVJ9WegSMqVvRp93bXGzzmMxrOwdKK5QOYAGIkyHnxgw0fRlgN488H/4hOox2n15+NMr0i77EGDQMJBBIoTALDAoRLBvNBKKz/oVtPQ8Ag9kLeMd4OBHmAhvEeQrGm+nDvZyIBwuEu6+D+AwkEEiieBAoGCCNduqhKaxqAiP51JyYEQOQBHkaap8n4vqhrYzJuYJTXDADCKAUXnBZIIJDApEqg6ABhqLsppnKYyv4NgwGGcY+emKaAYTJWfjHXYb7jDwBCvpIK2gUSCCQwlSQwYQCh/00X9UU9DZgG//4nzBFyIldZAFCGlXZyAn0QJnLag2sFEggkMLMlMDxAuNrLg1BUbT60QIt5manMMvSWwITXnZip63kKgxRiEG6fICfFmTq9wX0FEggkMPESyA8gDDauYmrzYe67mJeZDqBhwutOTPyam7lXHAKk5AMQHBewi7nYZ66UC7ozRQJkCbAdKu8UHMWWgCqBs3EG67fYkhX99axfV8i4mAcFEtOzQf+GOgzDRGlpSU/YMYUfU34UwzAgXeIzCPmOqsg3MNRli3aZaWKa6HO/Rbv5fCc1aDdWCaS6W3H7NcNnUiQFZgQabKyiHnC+JgOqDOTs4r9giz7YadhhSBEKxnIAM1i/RZ9BXREggd4N9I4o5kHAjp6N/jVUe1/DMocBCJfmCRAK1lkFn1C4WIp2iSkIIvqnkR5OOkWRQ1E6KXwOZ8oZhQCE3R0qWhPygBIig6cIF3kN/eyGtEd2KfmQR5XR5/Tw954+8bsLDRbKQwkodI4n6OHqSRRjLohgkelFJwMJM4asFYbU83o6dBdjvRa9+I5qMhFSXfQHCGnDxp6ODFwqie3Y/JPLY7tEMZAs6HfKIukA/Lng9PzP+Dz6zC+p7f3N7b12LHHHBaWZoFSUtmNBVqQ+yZ8ooZXkzxNfl6bN1wCu15ZmZOCs+EmkDiWTom283NOSd3kSXY9mX1yX29JPmdrJ3nckae97/sxrI8mcxIrO5z74p+jP/7u5pgRRXUV/gLDxlWewedurzNa4hkBlkiLz35IlZEJdyroMWVXE7xKNSIZlOZwDg+6YKno6tg3bps9c2NQPZES1GCrLq6DIQCrZAUe2YRON4QKGZUHSNFi5HKMVugctrKG2qhJLmucgm0zBonTckspXkaFDVkgDy/zc0A49VFIBKVQNGxocV4Mrabwce2aCRMR/0Rx58vMXLD+kJCfxQe9z/A/6PGvcjtbSoTmmcylheFXEQlh10B8g7N6zA4/+8UHIqiTkSmvYobUqwbVoWbpQZBmyLMNyHZ632kgJ6C4syYGqyMhkcjAsB6Ul5Vi+fAWqyssFDcTl4Wmt05rlJwHRSAxNTU2DMwiXfnNgLQbv/ZLXM1yQXimocV6XH9CoWJeYDqYK/+aLcc/FUhy9zSejm8EJqqUx2sENcV4hAGHD1jDe3Kuxku9rsZB6FIr/8qGHWWgFekG6kEkvMSLwlK1kQ2JFpnFtBn6peedU6l1ojByESgpSps+LfNO9uqMETKSwHMmF4tqIO+XYn6pB1o4ArlBixRyALAPrTkqjPOIMAAhtCQNPbW2Ba5uwbQuOY8JxLDi2xZ8xYHBs2I4Jlz7zwIMN+p5exqS0CFiIf3wutyc0ID4joMEAwaT5kWDYWciaBMUDQ0LUDiRqw9fzQYnNAIVn1FfIfE6/J5Bf5hJk2QcdJD+1BwiwoichyOohRS8rkBUZEv2Uqa1QkkL5y1AkFYqsQFLoe4W/VxSNf6f2Pf8kaqPhtCNnobYsMgAg/OfP/xm/+f1NDLpk24UmKXBkCRbJJCPBzBhQFAVKiQIlTH3LrOytnAUjbfN6UBQBGEzbhJEzoCoKbMeBKoVQHa3D0sXLock2DmzfjFhUghxWYdk2WlIJZHQZyXQayNHDAMTKozh5zTE4d+0apDo6kDEJrERZWfI41BAkNQQLGkxXRiRaAVkvQ9KIwNXnwZTrYbkhsUR7ABT97rIiZ9DV88+B5M0JfSZLpKA9ACR+EaDBm1JiXkSX1Nabc1lCSAaWN+RQGzUHAIQNz67HX3/rc5BoPWkyr0UCWC4BKbo3W4BZX+FXhCNYXF6LCABDsqCoKlq7upAyHdQ3zsWnPvVZLGiey2uDQKtY24BpO7AcFw2Ns7BixcoCAcJg75I8XzB5Njt0hYJPKOxFV6zupxNoKExCM7N1sdi6fBRrIQDh6a0hbN5LuxcXDr04eIPBlQwg91pkvMvi4mO0w7KR6dwKJbEbesOxcPUKOEYnOjbdgsr6BoTnfhSGWslKmvqQJQtNJftRKiUguzJc2dvqjuNUC5DgIOWEsD/RhIwbFqCFAYJ3SMWZFQEQMoMChNZEDk9t2Q/bPgQMaIdPih8ECljZE2Cg3wWz4LgCBPi7NZe+9z5jkMFAQbARBBAkOLQfh511WLE4igAOvpoXP4nB8F7m9Gqm35m98GTASsPb1fcDCILV6A0QaAdMu3GJq3bST/obpNwlX+F77IGsMBgQbADtpuk6oi0BBAEEvJ/cpwAH9JMqbzJ4UDScsbwZdYMChO/hN/fdBEm2oSrCXs2yo3VsqjBTFlTqLwS4igtN1yBLLsychUzCgG270FUCJ+J+TMOAqqm8m9XlMCojNThy8XIku9vRsXs7ykIKQqEQ7LCMfYkOpF0XGSMHM2vDsRWUVZZg7YlH49TjV8LoTkKyJUBTsLtdgRNphiXVQZKicKDDdlSYjg5TKkHWUWFr5bCVKFxXheYSaDqk0AkgsLJntoWUPv3PFMqeWBqWK+3m6fklAEafMVkBSXIgEyinvz0sx+09YBSKuDhtqYX5VRgIEJ5Zj69887OEB3m9UB+6HoJt2pBod8BrFlBIZqaJynAIDbEylDIopPWhIG2a6DIMVDfMxsc/fhlmNc72xq30vGN8JqG2oQHLiwIQxgAaPKIl/9dTsbT6EFcsSvdT0DSRv4CDlsWUQKK7Fb/5UX4+CM9tV/D6Lg22S+S/UJ5EsQqjQ9+dJKkUpiglA9uevxXygecRrZmD5iM/gNw7myA9dDPimglc/H2ULLmEFQEp6QotjsbwQSiuIUwQvOsZz9Lo9DKV+OW7O9mAuFvqvYiGs36OfgYIIFw2BIPQGs/ij2/tgcvMAbEBxBKQMrEAZhQIIJCiIr7Whk1K3wMBbFZgoCDOEQyExbsuAgnMKtCukebLIYDgpbJWbDjMLnhKhVrw775pQbwsBBgRoIGUDB20O+xdl8J/VzIV37Orpb2sLOhyn99mJUVUs8ZMAK8dVk60Q6cS2/73BCKIaSAFSKyDAlUhZUJ/e2yDorFiEWBBgaxq+NDy+agrjw5gEH5y/Q9wxx03wVSy0CIap/Nm5UV1P2wZRsKAApWVoS3b0EI6VNmFKuuwvF0/sQ9kXqDxMDMjuzzmkBZBTawey+YvxssvPwstJjMTYcpAVrJADnW2aUHJOnByRJerCEV0RCIyomEZ82fNx5knHgdHt7Bl75HYmfwgUhD0OoEA11VgSxJyCs2Ni5AjQSOAAxcWIXVf3p5zwOAQJwAAHSxJREFUH7URLAwBMlL+psf++ABBPK80h0T7CzBGSp3mV5iRGER47AL9pM/CUQuXniJjWaM8ACA8+fTj+NLX1zGrIusKHJItMUOuCyr37usuTdMZBOu6Bs0BdFNCVbgETaUVkFUVLclOzJq7AB+54BJUVzfAZOaAWBGJAZpYZy5q6xux/OhiMAiFPM95auA8m01IOcm8xzKMHAKWoZBFMnPaFgIQWlMh7GpXsa/DQmfCRsZSYboqM/D91Sm9lOjlJRNtv3sTOt59HKrdhsXzmxHKmuh46zXUn3g2OmrPganXgh5/VbLQHD2ImBrnFwDt4CXJgsQ7ed/2XQzZC8TBzw3ZhxHCgXQNEmaZR6LTq2h8juEAQks8g/Vv7vRAASl7z6xAgIBAA5keGAT4Pwk80MtTAAZiFXyzAoMDNjEI5kBwOp5/ArHlhtjh2YoAEr5viHj7EpNDP7huJisaX1YM+xxBVw8OEA7tXnnnypKkXT6xB94qYX8DYSqQSeGzIvN2vPQ5MQJsLvAAAgEGWdjjiWEQZgZqR6YJXTALErEMKiuYD61YiLry2ACAcNMt1+DOW26EUqrA0IF4OsU+AbLjEkQCsoCVdVhxubQLlh1oqgLbcCCTzZ/aWcTeiLVIslHDdE0FYS2KhvImzJvbjPbMfiTNOA62H0QimYFCzweZsdiTz6PacwQ0HOiREBzJxpLmufjE2SchY1Tg7ZZT8Z57PCzJZrOXYAPEvBDbxX4axBoQUJckEPHQWwfQ89jb+4enlBkwH8iTSZDakH9AGpC9Z0xS4YJKmBMY80wQzDfRc0gnyCiPqvircx2sXCgNziBc/Rk4nnlKUZUeMEVmLPHECUAi1iVdSYGaBaq0GJrLShCLhpF1TMyZPx9nnPMJlFbWwuT5oTkQ53reK6htbByaQbjM80EohnIc8VWQ50XybDbuoCHvcYxw4wFoGHFlTPsGhQCEPW0WElkVqq4hY2loi9toS8hIZCUYFu10+E0kHLk8JyfePZAZonMz9r36axhdu1BWViWow6rlOBgHykpnQa6cj8qoioZQKxTVFMZQ7pB2eN6ulvUI7Xb8vWrvlT6QxRhqcmSXdrM2LLIvOyG0Z8vRZlTCZScJsgPTS6i/SaE4kIF2Z0OZGFq603jijffYn0BQ36T0hQInHwTxGSl+MjlYYmflAQbh1CjAAilw8lNg5qHHYZFpAMYJ5H/A5gLZhuWawhfEcwDzWSHamxKtz2yFR1ezlvJYBDYD8FQIuQgAIeAE/dXjSMi7UwJch9gGYoUEuBDmAUGFe46GpAB6lD99T+cSKKDrqbwj7QsSiIUggEDUP32v4kMrF6N+EIBwx4M34N7f3wrDzCFtZJFJZVn5kws+yzgnsTkhXBKGQh6Okgwjl4NlECsjFjU7JnqUlq7pwo4fkVFWWo76cCOqyqtxoGs3kpkU2tvbkaOQO9eBqpGxzYSrkk+CcJJ0TQmhkAxHAZqbFuJDJ61FecVC7Esfh7faFyDnlEC16f6JXbOZ1YCrCDVLzxSZEkhve4+B7xdEhMIhMOA/BR6nR/PmyrBJMZttsLO3Qgm/C9kphYR62PaxkFAJV7Xh6E2QUSYAupSF45YgorXhio8Aa5bXDgAIf/rzenzlG58HPJOXYCiE+YIsRcRm+WYONlqR7wYBPAOIuRpqImE01FQgogFz5szH2rM+ipKaBvbxsCxhCvKBKTEa9Q2zhmYQfIAw2EugWApyxLd/HhfKo8mhyxTUeMTRDWhQjO4D0FC43KfyGYUAhK07u7G3NY1wOIJIJIJQOAJX1pHIAB1pBx1JF8msCptCAeiF71kZLNmBtW8Durb8FmamFRSeFKtcjPoVH8Nbz9+FmKahceUnMK95Lsr0bo85OPRiE/2I3SztZ4QXvL+aD63q/ip8sPXugxd+ydoKWs0qtGYrYdEu13egZABRHJ+D/nNPdt7LhvBBONiVwhOvb2eAIJgCYVYgkwMxBMLXgACC8EFg/wIGE8KpEeSs6JkaLMcQO32OQvD8CbzoBXZQlMkBVPQlHBL7gi3qh3MIkAOfBxB8xeg37fGI9xwTxb0K1uCQc5zY6fc2RQgFRyyCcFQUjIAACMKcINgDSfUcEP3PmF0gVoGUTi9/BDIz+P4IioazjlmC+oqSAQzCrQ9chwfW3wHTzMCyHdiGDYeiE1wJpmkDOSDZEYeiS5B1FfSRZZjsPEdyYJ8JMoWRScIS7IxElpqwhHAojIgVQ4UURqa7A11mGgkCHSFyNpSgawRwSKYKbAK89Iiwv6gJWa9FVd1ZaJx7PkKREiiheiSzJchIUfbzIRZOYG8CsIccRXvkzchArP5ecK3P0qNnhs+VhKnJtRWkDt6PkHkHlHAbCDTn0iZyaQWlqgto8xGZ9VXk9GPgEEAj9sJRkO6+D9/+9FycsmbVAIDwxw2P4S+/ug4hReW1R74a/LwSGJAp2kNEb5CSZ/OZ40JTdfahUAwHUVnF/Fl1KA8pmDt3AdaefQHK6hp5jnKmyblYSA5ETBGT0Ng4e2iAsO5b14t1OkatN8bT83v353GRPJqIa+XdML+h9W9VjO4DEDE62U/GWb0BApUufnjvfWgzWvu+XDi0C+hKGkhlPDpakhDSdWg6UbzkCQ4ksw5SOQkO78T9g14QDmQrgWzn+7BynYCTQyg2C1pZE7oPvsOKoaR6LspiEagyKbreLnN9VyThAn+nNNTLcHg5EsDwyE5HRtKOwHB0n0TvFQBW+JOgIIRa9yTUOKdBYap24DE8QEji0Ve3CgdE9h8QZgL6XfIBgmvBYmaAnAcPgQPRTpgkKKZMOCeSBhIvYmFeoK8ogoGy3JDngQkLJod39rTpeckICtg3xQgFLhQ7U8gcdSLMEId2hfTyJp8DT1mxicFT+N75/iuMzQ1ehILvgc8+BL7iJ4BAzICv+NlZUZga2P+ATQqewyK3I5Cg8TlnH7sM9RWlAwDCzb/7CR586h44ksVr1gc/dKOmKQEZF0YiC9c2kMpmYNuAYZrs95AzctCUEDNYlkUCJJMB0f8yVF2BTmOyaFcu4vddRYbpOjBsE1JEYjMEhTcqRBeQ9BRyEiRTDYXWzsHCoy6HW/lBZJx6GAhDJp8BXugms1nEokhkzutlKvBDGfuCA98e4akLnkOK0lGhunFITorNeVKqDV3v/iuq5Hdg2GQmMYGUDWQsxCgwonYV3LmfQVqfA0upgeuUQbYy2Lvt3/BvV56HU044ZQBAeOqZx/GVqz8DxZY5coGGT2uEzAM0DAJlFJHAJhzbZYBG/gpl4QhUkwCIjIpYCPVlUSxYuBinnPMxVNY1ctSCYVpgQxmbWWgpSJg1qwkrhvJBIIAw1ItgWgCHPN4/eTQ5JIKCGhemisax68IGMgyambJjHNsdjvvZvQHClu438YPN38WO9Lvjft2ZeAGigqNuE9bYN6DUXTLoLbIPwto0yqMDwxwPdiXxyMtveSGK5GjoRTM4ZGbxGAXPaVHkRxAOjAQOGCBQe/I3oM97Qhp9PwTxhDiWSw7tIMO4TeYKGLxLFQyNH4YqohY8FeP99JQ+WRkIUPTOq+BFLQjmgPaMhxgEjmCgIMpe+Q7I/MSOjmSOYmUvQhp5x8nOh5qXA8D7m/0UyN+AmB2fRaC/vQgGUn4eSCBW4uxVR6KhomwAQLjt7uvwh/X3Ip1K8r2HI2HIGikuG5mUjVwX+QuQo6OLtJVlBW+yPcCFSYwB50og8wlFA3AgoQAINHYAuqwyq2bQOWSKIGo8ZyBUS9cJIduVA9IGQpoCGzbCYR1qxOWomXnLjsWsBc2AdAz2tSxCd7YBspqAJWtwEPPyI/SLNmGTjx9qeijHASlmzuvhjZBGyWYp4xFkk3+EZSThtuZQk9qLSjcJS40gZxnIZUxIchShmAKnSkKquhJaaBHkknUw5KMgWSUwuu7BNy6pw+lrBgMIT+Cvv/k5juxgMxcBAto8WDbLjeRMYFAlsESyNABNlVFVUoKwJCObsaE4NmbXlGPJ4iU47cOfRFVdA4c0EkggMEp9iqyNLprmNOPo0QCEYYGDD2FH8YYadyWU5wXybDaubEPeYxiFnKf9Kb2EM9XlFACEYq82CSfbd6DKWdOzg+p9heEYhANdCTzy0uYeBsFifwIBDIgJEOYGYRYgpUWe4QQQfIdEzpXAYY6CgehJsETmCJ+aJpbZoh0lqSjak1HYpK94vKRLrPx9KvvQTlQkYRJ/857QYw8ErvCjG4TyFF7wdB0yG3h5EHzgwHkQRD4BVmNkW6ZkTV6YI7MGFM3gmxR81sBzYBQggvwNhEMjhSYKE4PG+RXOXbUcDZUDAcJdt/wEjz5wN9oPtrH/RqwsighFM1gWslmTFSRFG0RKI0grFlIq+XJYPYmbjKwJM2MxkFE1jRmVsK2wNnZMCyXRMEpUHXbaQJKicEIEGMKwNBe5nIN0VwayYbEjnloRQUiPQQubiNudUNUwytwYFs1agJNOPxd2SQ32tNbije0y9qcaYMhRaG6Wd9nkPCmBrm8yGwYnwqYDUMohZnnIE4QgC5kmyBWRzEhtMJK/QMjZADtlId2VRkmyFBWSBFMzYFkhpOUc3BIdqu3C7MhB0WOINR4JufFbSEWbIUsaKjQZV3xUxapl6iB5EP6IL111OUzHhB7WYVsWgwH2G2LSy+VkSLS2bJOiOcgJVEVlNIoIRWhYMoc/1pVFsWzxMpz50QtR3dAAk81cgpUgwMaBz5KE2bObigsQxotxGFclkGfneTYbN9CQ9/WL/T4O+stfAv0mif4MAEL+4su35Vr7DlS7J3Bz8rzufQwXxXCgM4E/vLRZ5DmgiAV6FXq5D+jl2AMEvMRHHOXgOTOyv4LlMw7CLMEKnSltejkLB0f2s2DzhMh1wJEmXkiqSz4MDCXoP7FYqD1R8Y7LvuzQQOF9DsEKYTrqlyzf5WRCgg3g85kh0L3fPWbBU/iCcfB2bAQYvGgE3p1zOKMmoh+8CAViGQg4yJQkyQMJ7KDoAQTf6fG81SsGBQi/uvla/OHhO9HZHYftkv1bQ1TRIRGFTeGjqgxXEaYzspWnsmlWwDQc2v0a6RwcinTIEbiIwZZM1LslSDgmMraJcjWMsAN0OxmgLMxOBkrWgpzTkbZzMHQLsqZBJ+YiBjhJB26csJ+NmBaBqhgom1uJlcetwpz6CkRKXexvm41Xdi3H7vh8DxykGCyEbYtzjNgyOS0SYGqHYtbC0ciEoEJ1XoeEt+AoVZBkcsBMAc5jCMsJwFFhmGl2JKZ1oKUlZhSUHCBrOjKGCS3roCJcA3fOaehqOAuW1ISwrCASdXDF+eU4/sjygSYGclL82mcJo7ECJ9aFp1eSYLEDgYtQmMIUXc5WaZnEGABRVWcWhnJDkC9ISJawctmRuOjCdahraOTcXmyioHVHkSCUS8N12cRQVAYh3we8D8kwBs03hlPzG+oIF8j7+nk3zG9Yo2k1BYYwmmFP+3OS3a349Q9FHoSxmBiIVm6IzILpGOjItaNML2daM2kl/IDCIWVF55ZqZSjXypGyUug0OnrC6/hzvYJ3cgezB5kaHs0RkkPcT9yMc/bA+kgjUmYScSueV3c0xtpwHXJ2Dt1m17DnnGTeiWqc4AV19V3ZwzIInXE8/OIbcGyDoxE45t5nDjzHRZKDyFvrOSj6/gZetkV2ZOT8CSIfAqcTlmS4jsR2XI0SBNkGTItCJR1WTnpIKHACCMKRTfzle5pzQiHaB7ouYnoYlmMjbRgiGq5X+l4BREQyHj9XAudA8BLh+A5qwi/BT5csRCnCIA8lPILHDogrEODQQJ9RH+xr4IMCRZzDEQzUr6zhvDVHo7GyfICJ4de3/AyPPvpbZBJJdMXjUMI6Z5DMJVOIaWGooRDiqSRCmlBYmWwWSlhDpLIUxObYiTTkLBUDcmArDrJuFlXRUugVJTAIyMXTsNImZDmE0kiYnwWT7DclErTSEPdF5xqJDOScDVVTkDRsyJHZ0GOzIakN0FQXklaLjFYKBSWI2WHI+iyk5EpW6LZrQJV2otRNwFDrkJMr4brvQ3F3ojRXhVxEgq1HoKhPQkq/B82gEEEbOYINShdgkW8MZYKi+fNyKpgKnPYcqgxyoAR2dLZB0kPQIzLkKg1OpBqaGoIWikK3ynHFhX+JNSecMDCK4ekn8OUrPyPySDBwFZqd5kxEsrichpmiGcgMwUDBlaCR+clxYVGEhu0yYFu+ZBkuu+RzaJzd3BOySaCO1ixHzrguGmfNHp0PQl5P/Cgb9TzuY9BoYzh15FEXCzT0QUkjX/ZwaDGu8zZJAiwWQNBlHf9wzL8jZSXxy63/hZMbzkC30YknDzzGLwoKTTPppTTIUR2qwSfnXorFZUsZXPzi7WvRZXayQr543jo0hBs5Wc1j+x7GW52v4Zia1diw/wnknBxUSeWXt2dB579pd7m27hR+QT/bsoGvuLh0KT7R/Gk8vPcBvBvfir8/9l/x5/1/wsP77uex0cuKKHs6iPqmOHzTNaFKlBjKhiar+NZR38XW+Bbcu/POYb2FT3LuRDWZGLwcAn4oIPctDZ0o6UBHNx588VXPnGAxGBJmBbLhOsJngMGDYBZ89kDkO7D4xdqTbbHHYZHMByIXATO1DC6IaRDmBHK4Y2sC+wXQChcAQfgY+OGPwiOB2ASVPe8dWOw2QI6C/WNHPMu3l7VvYFSDSL0sHBIP1VgQGf18p0MCADQgL0ESFJG9kL73Ixu8lMzUj2ARyElRmBw+vPpYNFZVDAQI/30NHn3wDuRyJuLpJNdGILbAsg3YGjEHGsysIRwKKbKBTC8hFUpM51TcblcOdmeOnXC10jAMmRwIbZRWVYiohlSWz1HCIZSpOrMSTkyHFNFYH9vdWZjxDDMyenk51IpGZDAP0I6GrjfC0Q7CiSTghqoZLEg5FU66FTYBIqcKUaof4b4MRXsBstSNVOVS2NEqqDkNTmYTStM7YdatglXVgEhIRm7nLoRSr8J0VOh0Ko3WJTBIs2kzKCOmiVghKSdBIQrftrj4Eq8PTjsdgk5erEjAtXVE0pW48gvfxfEnnDokQKCoD1pXxDH5Icrsg0KOoRQ1wsnPKMMm+dYwXBSAlOaXAKblYtH8xbj0ks9izpy5vMYIcApXmUPOsQ3DAYTLv51fLYbJfKmPFUyM69iLBSTGdZCTpDUPo8uSiaEYDEJUieJ/znoSETWK32z7b96t78/sx8ttL+C8ORdAVyJ4rX0TLMdE1s5ibul8GHYOWTuHukgDkrluLChbjJMbz8CXn16HHan3cGz18fj+8T/Ghv3reR+ZtTIo0UuwtuF03LDlx6zEjqo8Bikzjtu3/xIXzLuIWYzOXDs+OOtcVoxff+4vsSu9A6uq1+Dq5f8HN7z9U7zUvhH3nfkE7nv/TvzpwOM4d84FPO7Hdv8eyyqXY27JAmzvfpuZjFU1JzIAuefdX+M/T7gOz7c+i/9445/zAggim13fFFKk9y4dIpPifgIIG18S5gHakfakUaZMisIezvkNvO+FGUE4JBJrQLswSr7DqZa9fAg9RZeYAxCphRlceHkPOEOiLdIGK5oXPsoAwS8GJV7KYjfoQvGKN9n8kieA0Pf+iEHwDz+trx+lwEwBjcJLnczJkPzaDKQcmAEghU/2dS/3LztACmdEdmRUySGRvvcyKjKTIIAFswiyivPXrEJjVeUAgHDLPT/F/Y/djnRnhs0UnOchZ0BXFLgRBUYixfUZaHebSWYZKGohDQ6FBZJMTBeZ7hz/DJdGoEQUmColT7I52RJR5WYmi1A4xDUb0rkMlJAKyZGQi+dgWxL0Mh1SiQQnWgNJOQFQFsFVaDzbobvvIELZC8tnoTsSgYMSWO27UWqaKOt0UG5b2FudhBlOQLItpKPz4MZi0NRS2F07UZHehVTzB9CpVkOTo1Ba30V54k1kJQkRCoeVdYLBkIiFgsqRFq5LgJMQgcw1IGjmFYd8AYh3cKESs0KWKs1E+mAaNZkqfOOb38dxg0Qx/OnpJ/DFr66DqhLoslguwtQkmAoChJYpQj1FGK2IahDME5mrFKg2oDsKFi5YgosvuRxNTXPYjKUxCyHye4rU30BD42wcvXKITIpDAoShXu6D2F8nSw9MWeBQLNAQsA+TtbQKvi4xCLcVwcTgAwRKvGPaBrqMTjy9/0ksKV+GNXUnY1v3Vo552ta1lcHBwrLFrODJoWljyzO4bduN+OKyq1ATqsV3Nl3JDAIp+y8u+SqOqj4GbZlW3LHtZtRFGnHpks/jp2/8P6yuORGzY3NwfP1J+Pmb/4GPzfs09qR24c73bsFXjrya8wlcvfFLSFgJBgjfOfqfeCeYMONYXrGSAYLhGlhdsxaVoSq0Zg4K73Ilgju3/woXzLuYlfLSiuV4dNf9OKZ2NV5sex7/yQBh6OP88G1QUyfCoVoSXg1A/9FSZQeXrs0OWothf3uXAAgMDPxUyULZEzvgF2oSEQu+n4FviqAXv3h5iloMXpIkT6HzjpHDxLzUzV6IolD+LizTgkkmCJUSD4nEPOzAyFERglEQ+ShEwRzOReHVU+ib40DYhxkMeJELbG6g33kEwuueGQQvakGkUfaS6nCqY5F5kcMavTTLnB+B/Q98M4TnxCjporBRLwbh/BOPHxQg3Hrbtfif+36FVFsGIT3EDnSZRBaaoiMUk5BMprlqYzQSQSqbZWe4UCiM8vIoJMWAZbro7sjBSJsIhxWEIxJCiCCTS4l6DOESdKfi0Ms0lNaUAWHahVNEgwQjR9UcVaixECyNVC8xKNWQJHIwTEFCHJqVQvXeDBqsSrw5V4VT5gJUQMqSUNKRRpUL7KoNwVBMaAjBVKJcAI0TKVkWwm4GqUgZHCVCXghAOoGolYMlmx5NL4oeEWARibKEwqUoAVqnKk+wqPchcypJUZPBpKUkKTAOJDFHqsbVf/NvWL7q5IE+CE+vx19dcZmYSwrzNExOqsbFmnjtAGbOZiDIIZCqK3wPiNryCkmFXBkaVCyatxifuvRyzG5qEiYrXj+HfBFonc+a3YSVxxwzeLGmggHCdAEOo9yRj/K0kRVKHh3n0WTk60xWi2k9+LELrdgA4e3ON1CileHomlW4ecvPsbbhFMyONuP19k3Ym9rFJoR1S/4SESXGu8+0lcZ3N14F07Xw5SO+jpu2XofnWjbwi6w5Og/HVa9hRuALy66AKin44ev/iquO/ltc9+YP8RfLrhAsQtVK3LX9V1hbfxo2tj6L67dci39b81OYZg7feumvWUiCQfgubn/3l3i94yXcctq9bGKoCFViTmwe9qf3oC3Tguby+UibKdz93m34m5X/iI5sK7qNbrzV8RpW1qzCax2v4Odv/2hYwX9n/i2o1j+AN9+30JERtCknHfIyy62jMMdBqjkyQHh+E1yX8hmIegrEuHAqZQYI9E8kRSL2gNIv+7Ze8bef8Kh3gSbhrCjS9QrbMJspGEgIxzGTwyhJN9Bu2IGmUSlhUh05cW2uzyDuQezeqLEfrSD8DUQ6Zt6f9qnsyUW4erVlRkWW2ZudYvv9io0S28P9sEcVEnm/e0mUKHsggwwCB6oIgyS/A5FuOcRgw3dWpIiJ89euRmP1QAbh5v/6CR787a/RkWmHRjZ2Ul4woSik3GOcctvWZOihHCwoyJolcIie12mnmwJyXTCTVL8hJBI6qWR6SoGqO6mhKLSwDCouQEmWKIjAVi0v+yFR+V66ZK6tQBEfh6I9aF4rS21URk3sylKI4ByY6Q4oVhS6ayKndiGDNEKcsCjC80zyYwdFpuhJVg4ciRxbLS4VzYWfejmBEivjZ8XkBFpM6RPYU2FTZk3DgaqqcMmGRFEStozOfW1M/6vhMId/hrMSljbMw+Wf/xscedzagSaGDU/gK1d+lpkoyyZfDGFCMnK0hmURuWBR5UtKEU0khjBZiVwJIreBLmvQJBWL5y3Cpy/9DJrmNDFY5KqQng+Cn2eHwMPKlYMDhP8PPppVA2qDmgUAAAAASUVORK5CYII=;shadow=0;" vertex="1" parent="1">
                    <mxGeometry x="10" y="10" width="520" height="233" as="geometry"/>
                </mxCell>
                <mxCell id="3" value="" style="whiteSpace=wrap;html=1;shadow=0;fillColor=none;strokeColor=#FF0000;strokeWidth=3;" vertex="1" parent="1">
                    <mxGeometry x="310" y="130" width="100" height="70" as="geometry"/>
                </mxCell>
            </root>
        </mxGraphModel>
    </diagram>
</mxfile>